<?xml version="1.0" encoding="UTF-8" standalone="no"?>
<!DOCTYPE svg PUBLIC "-//W3C//DTD SVG 1.1//EN" "http://www.w3.org/Graphics/SVG/1.1/DTD/svg11.dtd">
<!-- Created with Vectornator (http://vectornator.io/) -->
<svg height="100%" stroke-miterlimit="10" style="fill-rule:nonzero;clip-rule:evenodd;stroke-linecap:round;stroke-linejoin:round;" version="1.1" viewBox="0 0 2000 1800" width="100%" xml:space="preserve" xmlns="http://www.w3.org/2000/svg" xmlns:vectornator="http://vectornator.io" xmlns:xlink="http://www.w3.org/1999/xlink">
<defs/>
<clipPath id="ArtboardFrame">
<rect height="1800" width="2000" x="0" y="0"/>
</clipPath>
<g clip-path="url(#ArtboardFrame)" id="Body" vectornator:layerName="Body">
<path d="M1022.45 508.847C1022.45 508.847 1019.26 556.852 1057.95 567.02C1096.65 577.188 1108.91 579.241 1116.98 610.352C1125.06 641.462 1157.51 793.479 1157.51 793.479" fill="none" opacity="1" stroke="#000000" stroke-linecap="butt" stroke-linejoin="round" stroke-width="4"/>
<path d="M1393.78 516.11C1393.78 516.11 1401.09 572.868 1364.64 584.547L1315.18 589.533" fill="none" opacity="1" stroke="#000000" stroke-linecap="butt" stroke-linejoin="round" stroke-width="4"/>
<path d="M1177.38 517.167L1211.02 685.141" fill="none" opacity="1" stroke="#000000" stroke-linecap="butt" stroke-linejoin="round" stroke-width="4"/>
<path d="M1114.07 515.523C1114.07 515.523 1121.11 568.383 1144.7 549.165" fill="none" opacity="1" stroke="#000000" stroke-linecap="butt" stroke-linejoin="round" stroke-width="4"/>
<path d="M1188.79 792.082C1188.79 792.082 1197.12 765.025 1200.13 741.087" fill="none" opacity="1" stroke="#000000" stroke-linecap="butt" stroke-linejoin="round" stroke-width="4"/>
<path d="M1188.62 793.426C1188.62 793.426 1321.84 785.962 1352.81 788.971C1383.79 791.979 1421.69 754.401 1480.01 765.967C1538.34 777.534 1612.36 763.676 1681.96 727.597C1751.56 691.518 1758.84 633.852 1805.99 543.361C1853.14 452.871 1873.99 410.413 1926.91 410.75C1979.83 411.087 2000.31 411.619 2000.31 411.619" fill="none" opacity="1" stroke="#000000" stroke-linecap="butt" stroke-linejoin="round" stroke-width="4"/>
<path d="M1480.82 765.961C1480.82 765.961 1559.06 623.807 1662.4 605.707C1765.73 587.607 1726.57 607.837 1764.14 544.602C1801.71 481.367 1802.89 423.683 1852.67 416.96C1902.46 410.238 1941.67 410.891 1941.67 410.891" fill="none" opacity="1" stroke="#000000" stroke-linecap="butt" stroke-linejoin="round" stroke-width="4"/>
<path d="M1484.05 764.159C1484.05 764.159 1501.84 750.85 1537.95 743.48C1574.06 736.11 1650.93 732.281 1677.74 697.127C1704.56 661.973 1729.55 607.404 1745.86 578.563" fill="none" opacity="1" stroke="#000000" stroke-linecap="butt" stroke-linejoin="round" stroke-width="4"/>
<path d="M1252.47 788.852C1252.47 788.852 1304.57 763.305 1354.31 763.305C1404.05 763.305 1442.78 768.24 1442.78 768.24" fill="none" opacity="1" stroke="#000000" stroke-linecap="butt" stroke-linejoin="round" stroke-width="4"/>
<path d="M693.361 817.067C693.361 817.067 748.771 815.712 795.67 794.271C842.569 772.829 880.12 752.567 912.333 750.908C944.545 749.249 963.586 739.839 963.586 739.839" fill="none" opacity="1" stroke="#000000" stroke-linecap="butt" stroke-linejoin="round" stroke-width="4"/>
<path d="M1047.22 514.115L1399.97 514.115C1425.58 514.115 1446.34 493.356 1446.34 467.748L1446.34 310.252C1446.34 284.644 1425.58 263.885 1399.97 263.885L1047.22 263.885C1021.61 263.885 1000.85 284.644 1000.85 310.252L1000.85 467.748C1000.85 493.356 1021.61 514.115 1047.22 514.115Z" fill="#ffffff" fill-opacity="0" fill-rule="nonzero" opacity="1" stroke="#000000" stroke-linecap="butt" stroke-linejoin="round" stroke-width="4"/>
<path d="M1327.45 766.807L1374.23 764.376L1354.56 706.038" fill="none" opacity="1" stroke="#000000" stroke-linecap="butt" stroke-linejoin="round" stroke-width="4"/>
<path d="M1326.05 768.036L1267.54 618.326" fill="none" opacity="1" stroke="#000000" stroke-linecap="butt" stroke-linejoin="round" stroke-width="4"/>
<path d="M1193.44 780.292" fill="none" opacity="1" stroke="#000000" stroke-linecap="butt" stroke-linejoin="round" stroke-width="4"/>
<path d="M1192.37 778.706L1226.72 570.013L1284.18 553.678L1450.84 765.147L1402.36 770.319L1269.33 583.093L1250.12 788.885L1192.37 778.706Z" fill="none" opacity="1" stroke="#000000" stroke-linecap="butt" stroke-linejoin="round" stroke-width="4"/>
<path d="M1213.79 679.447" fill="none" opacity="1" stroke="#000000" stroke-linecap="butt" stroke-linejoin="round" stroke-width="4"/>
<path d="M1186.82 793.38L1141.12 550.484L1182.2 526.818" fill="none" opacity="1" stroke="#000000" stroke-linecap="butt" stroke-linejoin="round" stroke-width="4"/>
<path d="M1022.45 1272.41C1022.45 1272.41 1019.26 1224.4 1057.95 1214.24C1096.65 1204.07 1108.91 1202.02 1116.98 1170.9C1125.06 1139.79 1157.51 987.777 1157.51 987.777" fill="none" opacity="1" stroke="#000000" stroke-linecap="butt" stroke-linejoin="round" stroke-width="4"/>
<path d="M1393.78 1265.15C1393.78 1265.15 1401.09 1208.39 1364.64 1196.71L1315.18 1191.72" fill="none" opacity="1" stroke="#000000" stroke-linecap="butt" stroke-linejoin="round" stroke-width="4"/>
<path d="M1177.38 1264.09L1211.02 1096.12" fill="none" opacity="1" stroke="#000000" stroke-linecap="butt" stroke-linejoin="round" stroke-width="4"/>
<path d="M1114.07 1265.73C1114.07 1265.73 1121.11 1212.87 1144.7 1232.09" fill="none" opacity="1" stroke="#000000" stroke-linecap="butt" stroke-linejoin="round" stroke-width="4"/>
<path d="M1188.79 989.175C1188.79 989.175 1197.12 1016.23 1200.13 1040.17" fill="none" opacity="1" stroke="#000000" stroke-linecap="butt" stroke-linejoin="round" stroke-width="4"/>
<path d="M1188.62 987.83C1188.62 987.83 1321.84 995.294 1352.81 992.286C1383.79 989.277 1421.69 1026.86 1480.01 1015.29C1538.34 1003.72 1612.36 1017.58 1681.96 1053.66C1751.56 1089.74 1758.84 1147.4 1805.99 1237.9C1853.14 1328.39 1873.99 1370.84 1926.91 1370.51C1979.83 1370.17 2000.31 1369.64 2000.31 1369.64" fill="none" opacity="1" stroke="#000000" stroke-linecap="butt" stroke-linejoin="round" stroke-width="4"/>
<path d="M1480.82 1015.3C1480.82 1015.3 1559.06 1157.45 1662.4 1175.55C1765.73 1193.65 1726.57 1173.42 1764.14 1236.65C1801.71 1299.89 1802.89 1357.57 1852.67 1364.3C1902.46 1371.02 1941.67 1370.37 1941.67 1370.37" fill="none" opacity="1" stroke="#000000" stroke-linecap="butt" stroke-linejoin="round" stroke-width="4"/>
<path d="M1484.05 1017.1C1484.05 1017.1 1501.84 1030.41 1537.95 1037.78C1574.06 1045.15 1650.93 1048.98 1677.74 1084.13C1704.56 1119.28 1729.55 1173.85 1745.86 1202.69" fill="none" opacity="1" stroke="#000000" stroke-linecap="butt" stroke-linejoin="round" stroke-width="4"/>
<path d="M1252.47 992.404C1252.47 992.404 1304.57 1017.95 1354.31 1017.95C1404.05 1017.95 1442.78 1013.02 1442.78 1013.02" fill="none" opacity="1" stroke="#000000" stroke-linecap="butt" stroke-linejoin="round" stroke-width="4"/>
<path d="M693.361 964.19C693.361 964.19 748.771 965.544 795.67 986.986C842.569 1008.43 880.12 1028.69 912.333 1030.35C944.545 1032.01 963.586 1041.42 963.586 1041.42" fill="none" opacity="1" stroke="#000000" stroke-linecap="butt" stroke-linejoin="round" stroke-width="4"/>
<path d="M1047.22 1267.14L1399.97 1267.14C1425.58 1267.14 1446.34 1287.9 1446.34 1313.51L1446.34 1471C1446.34 1496.61 1425.58 1517.37 1399.97 1517.37L1047.22 1517.37C1021.61 1517.37 1000.85 1496.61 1000.85 1471L1000.85 1313.51C1000.85 1287.9 1021.61 1267.14 1047.22 1267.14Z" fill="#ffffff" fill-opacity="0" fill-rule="nonzero" opacity="1" stroke="#000000" stroke-linecap="butt" stroke-linejoin="round" stroke-width="4"/>
<path d="M1327.45 1014.45L1374.23 1016.88L1354.56 1075.22" fill="none" opacity="1" stroke="#000000" stroke-linecap="butt" stroke-linejoin="round" stroke-width="4"/>
<path d="M1326.05 1013.22L1267.54 1162.93" fill="none" opacity="1" stroke="#000000" stroke-linecap="butt" stroke-linejoin="round" stroke-width="4"/>
<path d="M1193.44 1000.96" fill="none" opacity="1" stroke="#000000" stroke-linecap="butt" stroke-linejoin="round" stroke-width="4"/>
<path d="M1192.37 1002.55L1226.72 1211.24L1284.18 1227.58L1450.84 1016.11L1402.36 1010.94L1269.33 1198.16L1250.12 992.371L1192.37 1002.55Z" fill="none" opacity="1" stroke="#000000" stroke-linecap="butt" stroke-linejoin="round" stroke-width="4"/>
<path d="M1213.79 1101.81" fill="none" opacity="1" stroke="#000000" stroke-linecap="butt" stroke-linejoin="round" stroke-width="4"/>
<path d="M1186.82 987.876L1141.12 1230.77L1182.2 1254.44" fill="none" opacity="1" stroke="#000000" stroke-linecap="butt" stroke-linejoin="round" stroke-width="4"/>
<g opacity="1">
<path d="M565.143 890.641C565.143 890.641 568.738 818.225 671.145 818.225L871.165 815.409C871.165 815.409 950.888 727.847 1014.27 722.961C1077.65 718.075 1124.97 720.146 1124.97 720.146L1125.39 792.725L1186.82 793.38" fill="none" opacity="1" stroke="#000000" stroke-linecap="butt" stroke-linejoin="round" stroke-width="4"/>
<path d="M565.143 890.615C565.143 890.615 568.738 963.031 671.145 963.031L871.165 965.848C871.165 965.848 950.888 1053.41 1014.27 1058.3C1077.65 1063.18 1124.97 1061.11 1124.97 1061.11L1125.39 988.531L1186.82 987.876" fill="none" opacity="1" stroke="#000000" stroke-linecap="butt" stroke-linejoin="round" stroke-width="4"/>
</g>
</g>
<g id="Measurments" vectornator:layerName="Measurments">
<g opacity="1">
<path d="M1446.1 1645.94C1423.74 1645.94 594.74 1645.94 594.74 1645.94" fill="none" stroke="#000000" stroke-linecap="butt" stroke-linejoin="round" stroke-width="4"/>
<g fill="#000000" stroke="none">
<path d="M596.74 1633.94L592.74 1633.94L592.74 1657.94L596.74 1657.94L596.74 1633.94Z" fill="#000000"/>
<path d="M1444.1 1657.94L1448.1 1657.94L1448.1 1633.94L1444.1 1633.94L1444.1 1657.94Z" fill="#000000"/>
</g>
</g>
<g opacity="1">
<path d="M1446.1 1585.64C1430.34 1585.64 1002.3 1585.64 1002.3 1585.64" fill="none" stroke="#000000" stroke-linecap="butt" stroke-linejoin="round" stroke-width="4"/>
<g fill="#000000" stroke="none">
<path d="M1004.3 1573.64L1000.3 1573.64L1000.3 1597.64L1004.3 1597.64L1004.3 1573.64Z" fill="#000000"/>
<path d="M1444.1 1597.64L1448.1 1597.64L1448.1 1573.64L1444.1 1573.64L1444.1 1597.64Z" fill="#000000"/>
</g>
</g>
</g>
<g id="Measurments-wing" vectornator:layerName="Measurments wing">
<g opacity="1">
<path d="M215.909 264.956C215.909 292.437 215.909 1520.43 215.909 1520.43" fill="none" stroke="#000000" stroke-linecap="butt" stroke-linejoin="round" stroke-width="4"/>
<g fill="#000000" stroke="none">
<path d="M203.909 1518.43L203.909 1522.43L227.909 1522.43L227.909 1518.43L203.909 1518.43Z" fill="#000000"/>
<path d="M227.909 266.956L227.909 262.956L203.909 262.956L203.909 266.956L227.909 266.956Z" fill="#000000"/>
</g>
</g>
</g>
<g id="Wing" vectornator:layerName="Wing">
<g opacity="1">
<path d="M483.066 893.68C483.066 893.68 503.139 1099.33 528.356 1177.23C553.573 1255.13 629.356 1447.43 629.356 1447.43L932.935 1446.38C932.935 1446.38 923.872 1304.37 853.545 1262.02C783.219 1219.67 704.66 1135.87 684.83 1083.54C664.999 1031.21 664.999 964.251 664.999 964.251" fill="none" opacity="1" stroke="#000000" stroke-linecap="butt" stroke-linejoin="round" stroke-width="4"/>
<path d="M723.563 1366.41L848.949 1369.15C848.949 1369.15 818.427 1284.35 757.863 1230.51C697.299 1176.68 642.968 1083.5 641.479 1062.14" fill="none" opacity="1" stroke="#000000" stroke-linecap="butt" stroke-linejoin="round" stroke-width="4"/>
<path d="M677.804 1375.41L787.209 1378.15C787.209 1378.15 760.577 1293.35 707.732 1239.51C654.887 1185.68 607.48 1092.5 606.181 1071.14" fill="none" opacity="1" stroke="#000000" stroke-linecap="butt" stroke-linejoin="round" stroke-width="4"/>
<path d="M640.682 1381.41L725.094 1384.15C725.094 1384.15 704.546 1299.35 663.773 1245.51C623 1191.68 586.424 1098.5 585.421 1077.14" fill="none" opacity="1" stroke="#000000" stroke-linecap="butt" stroke-linejoin="round" stroke-width="4"/>
<path d="M594.032 1447.47L954.137 1447.47L954.137 1480.76L594.032 1480.76L594.032 1447.47Z" fill="#ffffff" fill-opacity="0" fill-rule="nonzero" opacity="1" stroke="#000000" stroke-linecap="butt" stroke-linejoin="round" stroke-width="4"/>
<path d="M596.01 1478.69" fill="none" opacity="1" stroke="#000000" stroke-linecap="butt" stroke-linejoin="round" stroke-width="4"/>
<path d="M483.296 890.216C483.296 890.216 503.369 684.562 528.587 606.665C553.804 528.769 629.586 336.465 629.586 336.465L933.165 337.516C933.165 337.516 924.102 479.523 853.776 521.877C783.449 564.231 704.891 648.026 685.06 700.354C665.229 752.681 665.229 819.645 665.229 819.645" fill="none" opacity="1" stroke="#000000" stroke-linecap="butt" stroke-linejoin="round" stroke-width="4"/>
<path d="M723.793 417.49L849.179 414.749C849.179 414.749 818.658 499.55 758.093 553.381C697.529 607.213 643.198 700.394 641.709 721.753" fill="none" opacity="1" stroke="#000000" stroke-linecap="butt" stroke-linejoin="round" stroke-width="4"/>
<path d="M678.034 408.49L787.439 405.749C787.439 405.749 760.807 490.55 707.962 544.381C655.117 598.213 607.711 691.394 606.411 712.753" fill="none" opacity="1" stroke="#000000" stroke-linecap="butt" stroke-linejoin="round" stroke-width="4"/>
<path d="M640.912 402.49L725.324 399.749C725.324 399.749 704.776 484.55 664.003 538.381C623.231 592.213 586.654 685.394 585.651 706.753" fill="none" opacity="1" stroke="#000000" stroke-linecap="butt" stroke-linejoin="round" stroke-width="4"/>
<path d="M594.263 336.424L954.367 336.424L954.367 303.135L594.263 303.135L594.263 336.424Z" fill="#ffffff" fill-opacity="0" fill-rule="nonzero" opacity="1" stroke="#000000" stroke-linecap="butt" stroke-linejoin="round" stroke-width="4"/>
<path d="M596.241 305.202" fill="none" opacity="1" stroke="#000000" stroke-linecap="butt" stroke-linejoin="round" stroke-width="4"/>
<path d="M474.966 886.851L564.305 886.851C564.898 886.851 565.379 887.332 565.379 887.925L565.379 895.18C565.379 895.773 564.898 896.254 564.305 896.254L474.966 896.254C474.373 896.254 473.892 895.773 473.892 895.18L473.892 887.925C473.892 887.332 474.373 886.851 474.966 886.851Z" fill="#000000" fill-rule="nonzero" opacity="1" stroke="#000000" stroke-linecap="butt" stroke-linejoin="round" stroke-width="4"/>
<g opacity="1">
<path d="M334.716 338.021C334.716 389.55 334.716 1418.55 334.716 1443.36" fill="none" stroke="#000000" stroke-linecap="butt" stroke-linejoin="round" stroke-width="4"/>
<g fill="#000000" stroke="none">
<path d="M322.716 1441.36L322.716 1445.36L346.716 1445.36L346.716 1441.36L322.716 1441.36Z" fill="#000000"/>
<path d="M346.716 340.021L346.716 336.021L322.716 336.021L322.716 340.021L346.716 340.021Z" fill="#000000"/>
</g>
</g>
<g opacity="1">
<path d="M275.397 304.762C275.397 331.287 275.397 1479.25 275.397 1479.25" fill="none" stroke="#000000" stroke-linecap="butt" stroke-linejoin="round" stroke-width="4"/>
<g fill="#000000" stroke="none">
<path d="M263.397 1477.25L263.397 1481.25L287.397 1481.25L287.397 1477.25L263.397 1477.25Z" fill="#000000"/>
<path d="M287.397 306.762L287.397 302.762L263.397 302.762L263.397 306.762L287.397 306.762Z" fill="#000000"/>
</g>
</g>
</g>
</g>
</svg>
