<svg version="1.1" id="Layer_1" xmlns="http://www.w3.org/2000/svg" xmlns:xlink="http://www.w3.org/1999/xlink" x="0px" y="0px"
	 width="100%" viewBox="0 0 832 832" enable-background="new 0 0 832 832" xml:space="preserve">
<path fill="#000000" opacity="1.000000" stroke="none" 
	d="
M665.348267,713.373779 
	C629.771118,743.535828 590.505554,766.625061 546.783142,782.003723 
	C523.497498,790.194031 499.658691,796.072510 475.180603,799.389221 
	C456.362854,801.938965 437.471069,803.589966 418.491852,803.163452 
	C364.735443,801.955505 313.314331,790.543030 264.703400,767.202637 
	C196.038147,734.233215 142.399841,684.818054 103.608620,619.376404 
	C80.016808,579.576599 64.826355,536.681763 57.477936,490.949554 
	C53.609425,466.874298 51.849705,442.685120 52.840851,418.380585 
	C55.224255,359.935638 70.015045,304.798676 98.313889,253.471436 
	C131.952454,192.459274 179.070099,144.536774 239.297852,109.633713 
	C276.956268,87.809975 317.439789,73.394913 360.298065,65.900093 
	C386.263733,61.359367 412.516205,59.631489 438.846130,60.817459 
	C487.058807,62.989086 533.308105,73.775261 577.261902,93.881371 
	C618.769409,112.868431 655.612549,138.603897 687.564819,171.201202 
	C734.658630,219.245682 766.660950,275.834900 783.336975,341.080780 
	C792.556091,377.150879 796.001343,413.835510 794.087463,450.886566 
	C791.195679,506.867401 776.394043,559.660217 749.544922,609.005737 
	C727.878052,648.826904 699.661255,683.319885 665.348267,713.373779 
M630.966736,725.458923 
	C669.570618,697.942261 701.779846,664.263000 727.112000,624.230591 
	C757.041992,576.932251 775.209900,525.463257 780.922424,469.607208 
	C784.211426,437.447601 783.484863,405.462463 778.381653,373.614014 
	C772.764099,338.555115 762.060486,305.008026 746.182129,273.240662 
	C713.807312,208.469147 666.456116,157.521957 603.959656,120.868347 
	C553.947693,91.536774 499.787231,75.507668 441.967804,72.493004 
	C411.991058,70.930031 382.169647,73.159592 352.621155,79.167557 
	C297.078522,90.460777 247.083862,113.705391 202.545425,148.507645 
	C163.048630,179.370361 131.351807,217.015762 107.424194,261.138611 
	C80.949165,309.958923 66.832260,362.215332 64.436394,417.589813 
	C63.464668,440.048859 64.856094,462.447144 68.159454,484.761078 
	C72.148781,511.708710 79.023994,537.850952 89.016647,563.114868 
	C105.041359,603.629333 127.595894,640.187622 156.870544,672.542969 
	C195.339554,715.060364 241.246262,746.851196 294.693024,767.544434 
	C342.672638,786.120850 392.381104,793.963989 443.848022,790.880005 
	C464.820770,789.623352 485.507080,786.823547 505.915802,782.023132 
	C551.040222,771.409058 592.462219,752.505615 630.966736,725.458923 
z"/>
<path fill="#000000" opacity="1.000000" stroke="none" 
	d="
M100.946747,478.642639 
	C98.721405,461.205597 97.371483,444.167755 97.631813,426.996948 
	C98.428146,374.472565 111.100754,325.010925 135.675003,278.619568 
	C157.197281,237.989731 186.214859,203.522049 222.288132,175.106949 
	C265.649780,140.950745 314.750885,119.431007 369.086884,109.910828 
	C392.450928,105.817230 416.073975,104.626640 439.709717,105.848694 
	C490.690155,108.484558 538.628540,122.149155 583.312500,146.966568 
	C588.177490,149.668564 588.321655,150.764282 584.311707,154.608459 
	C570.838074,167.525070 557.346191,180.410675 546.141907,195.461792 
	C544.221558,198.041428 543.439209,200.260300 544.079834,203.622314 
	C545.312195,210.088455 543.915039,216.469040 540.806335,223.322296 
	C548.043091,222.199829 554.070312,219.882492 560.476257,219.295929 
	C564.883972,218.892349 569.094727,219.329544 573.378967,219.755646 
	C576.924744,220.108307 577.783325,222.099106 576.759644,225.360291 
	C574.931335,231.184967 571.480652,236.040543 567.653992,240.586060 
	C571.878601,245.501404 574.098206,245.875031 579.225037,242.628265 
	C582.329407,240.662247 585.516663,238.871170 588.998718,237.659805 
	C596.823914,234.937454 603.498169,236.711380 607.751709,242.627899 
	C611.618591,248.006546 611.228638,255.592422 606.768372,261.755219 
	C602.259766,267.984802 602.290344,267.963257 606.755066,274.303711 
	C611.780701,281.440918 617.722290,287.684387 624.564636,293.104675 
	C626.248169,294.438293 627.858032,295.954102 629.178528,297.639496 
	C632.538391,301.927826 632.446716,306.630493 628.382935,310.124817 
	C625.691406,312.439117 625.509705,314.311035 626.867432,317.340668 
	C629.855408,324.008148 630.253784,330.523132 624.484802,336.213104 
	C622.603027,338.069092 623.427246,340.148682 624.287537,342.236969 
	C628.408447,352.241241 632.445190,362.280212 636.563293,372.285645 
	C638.376099,376.690002 639.042847,381.179932 638.492493,385.945953 
	C637.684570,392.942841 639.783691,399.386871 642.513916,405.741394 
	C652.307129,428.534424 662.136963,451.313904 671.651001,474.223877 
	C677.594238,488.535278 673.822083,496.378113 659.129578,501.664154 
	C652.553650,504.030090 645.889160,506.160248 639.369934,508.670319 
	C633.728638,510.842407 631.477417,514.959045 632.495850,520.864685 
	C633.344788,525.786987 634.507446,530.682434 637.155884,534.997437 
	C640.096436,539.788452 639.919312,544.452759 637.076233,549.121094 
	C636.102783,550.719666 635.304688,551.892029 636.649902,553.992615 
	C639.869141,559.019897 639.684631,563.320435 634.794678,566.674133 
	C624.249512,573.906189 623.466309,583.645447 625.399841,594.875366 
	C629.183289,616.848816 621.650879,631.445068 602.018372,641.662109 
	C582.006348,652.076721 560.805969,655.342102 538.591431,652.461182 
	C533.912476,651.854370 531.829529,653.294434 530.537354,657.949341 
	C522.768250,685.937195 526.757080,712.256531 541.032837,737.270081 
	C541.280579,737.704163 541.547241,738.127625 541.788147,738.565369 
	C543.275085,741.267639 544.560181,744.232605 542.753723,747.040527 
	C540.855347,749.991028 537.430664,749.626892 534.512390,749.116943 
	C526.478088,747.713135 518.346802,747.208496 510.283295,746.151978 
	C498.219299,744.571228 486.058533,743.822083 473.975342,743.597656 
	C449.851715,743.149658 425.709961,740.854736 401.572296,743.257080 
	C395.291626,743.882080 388.942505,744.249817 382.776672,745.490479 
	C374.826355,747.090149 367.132690,746.213013 359.633667,743.923950 
	C353.476410,742.044434 347.434601,743.243774 341.370117,743.428162 
	C332.183167,743.707520 323.793243,742.420959 317.361969,734.971497 
	C315.837677,733.205872 313.644165,732.431396 311.118347,732.302124 
	C296.021759,731.529785 283.949707,722.140991 279.461700,707.778137 
	C278.435455,704.493774 276.147369,702.596069 273.277374,700.976135 
	C264.540863,696.044922 262.105164,685.554749 267.997345,677.450439 
	C270.426453,674.109314 273.541290,671.258484 276.408051,668.245361 
	C285.909760,658.258362 286.911102,646.823425 282.063843,634.485535 
	C280.172455,629.671326 277.514771,625.231384 274.544952,620.980286 
	C266.199036,609.033630 255.681503,599.076172 245.248795,588.296265 
	C238.607758,595.722534 234.775055,604.123230 232.422806,613.133423 
	C224.662766,642.858276 232.128220,669.327698 250.153259,693.412659 
	C251.049408,694.610046 252.175568,695.696228 252.803986,697.019714 
	C253.929001,699.389160 253.154755,701.513916 251.455780,703.426086 
	C249.743164,705.353699 247.860184,705.500793 245.619400,704.456421 
	C241.974884,702.757812 238.618195,700.615234 235.388824,698.239197 
	C190.530090,665.233643 155.709167,623.734070 130.987762,573.891724 
	C116.107529,543.890686 106.384331,512.145691 100.946747,478.642639 
M418.477112,561.438171 
	C417.732971,564.153381 419.492981,565.790039 421.070435,567.526367 
	C438.389618,586.589355 457.149689,604.060181 478.709167,618.256226 
	C504.905640,635.505615 532.743896,647.752991 565.202698,644.711975 
	C579.525513,643.370056 592.952515,639.350891 604.907043,631.154785 
	C615.352295,623.993530 619.600403,614.199097 617.997437,601.459961 
	C617.303223,595.942566 616.689453,590.284241 617.566956,584.581360 
	C618.346497,579.515320 621.023071,575.330505 623.138123,570.762207 
	C620.525085,568.567566 617.287354,568.980835 614.598999,567.850830 
	C611.862610,566.700623 608.379028,566.357666 607.821960,562.364624 
	C611.019592,560.698486 613.421570,562.338135 615.944336,563.606018 
	C620.245544,565.767700 624.730774,567.056091 629.292236,564.527893 
	C633.369263,562.268250 633.566040,559.317871 630.260925,556.173279 
	C628.756775,554.742188 626.310303,554.290833 625.642212,551.935486 
	C626.812561,549.863525 629.091919,549.230774 630.556274,547.673096 
	C632.001282,546.136108 634.311768,544.658875 633.068420,542.253174 
	C631.752563,539.706970 629.230042,540.394226 626.844666,540.914307 
	C620.884399,542.213562 617.153809,546.578674 613.238342,550.628906 
	C608.792053,555.228210 603.493469,557.495361 597.134583,557.222229 
	C594.640320,557.114990 592.248352,556.641235 591.297241,554.008972 
	C592.125549,552.582886 593.246948,552.604004 594.145996,552.756409 
	C602.453430,554.165588 608.097473,549.935547 613.168701,544.138794 
	C616.134155,540.748962 619.442078,537.686707 623.793945,536.025024 
	C630.730164,533.376465 630.721008,533.352661 628.213806,526.641846 
	C624.192078,515.877380 626.907715,509.509033 637.488159,505.104767 
	C640.252197,503.954193 643.079895,502.938141 645.926819,502.008942 
	C652.286804,499.933105 658.427979,497.429749 663.983154,493.616608 
	C667.860168,490.955414 669.418945,487.586151 668.018127,482.888855 
	C664.667847,471.654694 658.543213,461.630463 654.203674,450.832550 
	C645.949036,430.292572 634.080017,411.216095 632.827759,387.988739 
	C631.940308,371.529388 622.839355,357.127472 616.798462,342.024017 
	C615.386475,338.493805 612.992188,338.748260 610.434082,340.681244 
	C602.961487,346.327728 594.676147,349.164093 585.234863,348.277649 
	C583.367004,348.102295 581.581421,348.301025 580.474121,350.232422 
	C572.357239,364.390198 558.769653,369.127960 543.791504,371.236969 
	C541.014648,371.627991 539.769348,373.111389 538.611816,375.239410 
	C532.418152,386.626282 523.063171,394.111908 510.701843,397.995972 
	C502.888123,400.451111 500.529480,407.711304 504.812256,414.861542 
	C509.828949,423.237122 512.004272,432.171326 510.517059,442.068970 
	C508.806610,453.452576 503.180267,462.655853 495.667389,470.904724 
	C493.212616,473.600006 491.627625,476.368622 491.112885,480.047089 
	C490.262177,486.126434 489.323883,492.240417 487.267059,498.059906 
	C484.574341,505.678589 480.829315,512.502930 472.007751,514.368774 
	C461.918610,516.502747 453.023895,514.345947 446.634674,505.843292 
	C443.395386,501.532532 440.496521,500.106232 435.021362,502.337616 
	C427.307251,505.481567 417.903564,502.762726 416.471405,491.967926 
	C415.501740,484.659302 413.020874,477.772339 408.832611,471.568665 
	C398.605865,456.420624 379.359741,456.995453 370.415863,472.925751 
	C363.410858,485.402618 362.465302,498.636322 367.660645,511.897858 
	C373.968323,527.998718 386.389709,540.378357 395.069824,555.112976 
	C400.175476,563.779907 408.886292,562.276184 414.011322,553.432373 
	C415.014771,551.700928 415.485443,549.086670 418.523804,549.863770 
	C419.620056,553.886414 419.648468,555.862427 418.477112,561.438171 
M120.039299,512.632446 
	C138.506744,578.222778 174.426224,632.383850 227.263931,676.888000 
	C226.899750,675.257019 226.873154,674.780701 226.691162,674.374023 
	C216.675598,651.992493 215.324127,629.131165 223.098694,605.848694 
	C224.166534,602.650818 223.236176,600.543274 221.267563,598.185730 
	C189.139343,559.709229 170.270203,515.407043 163.808243,465.829865 
	C160.127243,437.588867 160.962021,409.355957 166.755600,381.456909 
	C182.299042,306.607208 222.544464,248.698410 287.369293,208.218536 
	C320.322906,187.640640 356.405884,175.804260 395.097046,171.434692 
	C416.099915,169.062759 436.984344,169.334122 457.804779,171.973251 
	C482.683319,175.126755 506.672119,181.950638 529.591309,192.232269 
	C532.706177,193.629608 534.547058,193.520416 536.718445,190.651657 
	C543.054871,182.280319 549.902710,174.317337 557.155334,166.712570 
	C561.249329,162.419846 565.314941,158.099991 569.473816,153.707306 
	C489.903351,109.015068 364.212799,96.613503 255.638245,165.809219 
	C140.394485,239.255295 83.974457,378.141968 120.039299,512.632446 
M457.712677,210.005280 
	C434.045532,206.033371 410.410767,206.404922 386.732483,210.127792 
	C339.080719,217.619949 297.382904,237.587753 262.961609,271.265594 
	C215.712692,317.493958 193.563553,373.806000 198.139038,440.233643 
	C199.847778,465.041504 205.496994,488.808228 215.177353,511.650635 
	C217.384003,516.857544 219.949402,521.912476 222.869705,528.147583 
	C225.358078,519.807922 227.459686,512.989807 230.575928,506.523712 
	C235.109146,497.117371 235.248123,497.039886 243.408340,503.419037 
	C243.597107,503.566589 244.002060,503.437592 244.916931,503.437592 
	C243.132919,498.289948 243.789383,493.225433 244.673828,488.145660 
	C246.728622,476.344147 250.623413,465.290527 257.949921,455.672211 
	C261.527863,450.975006 262.464996,451.007324 267.158478,454.802063 
	C269.682465,456.842773 271.708832,459.384430 274.324860,462.714874 
	C270.833801,438.090729 280.063354,413.208923 294.400177,407.578979 
	C296.983856,411.713104 299.148956,416.303986 303.571594,419.924011 
	C303.528778,413.424927 303.041870,407.599884 304.360321,401.870331 
	C307.180328,389.615479 314.138458,379.737335 322.480621,370.731171 
	C329.306213,363.362274 329.817108,363.500183 335.472046,371.844269 
	C335.624237,372.068848 335.999603,372.142151 336.509613,372.412506 
	C337.173279,369.457245 337.746521,366.569702 338.474152,363.721649 
	C341.903259,350.299774 350.556000,340.728729 361.068054,332.289032 
	C368.089233,326.652039 367.817505,326.319489 371.539581,334.323547 
	C371.610474,334.476013 372.071167,334.447235 372.350372,334.501129 
	C377.606506,315.427063 386.361450,302.927185 400.210632,294.723480 
	C406.928070,290.744354 407.144684,290.828217 409.634399,298.241760 
	C409.680328,298.378540 410.139404,298.376587 410.444733,298.448547 
	C411.552246,295.675110 412.539612,292.841888 413.791077,290.130554 
	C419.400269,277.978027 427.807129,268.406799 439.656769,261.908203 
	C443.365723,259.874146 445.144989,260.783264 445.893707,264.733490 
	C446.357788,267.182129 446.930450,269.610138 447.511597,272.313538 
	C456.179352,252.692276 467.523163,236.410141 488.379333,228.248886 
	C489.868866,232.956512 489.493378,237.025833 491.444763,241.091476 
	C494.983215,234.844040 498.222015,229.125671 501.744690,222.906097 
	C487.575623,216.913010 473.339172,212.660522 457.712677,210.005280 
M379.538025,547.174438 
	C378.112762,543.993652 376.502808,544.644897 374.239166,546.549622 
	C368.890228,551.050476 363.510406,555.557434 357.804413,559.581848 
	C347.569031,566.800842 336.899902,573.278564 324.348724,575.799438 
	C322.394592,576.191956 320.467957,576.687561 319.321777,574.505188 
	C319.586945,573.926758 319.641937,573.513123 319.872711,573.353271 
	C320.963074,572.598206 322.079132,571.874023 323.226227,571.208069 
	C338.854736,562.134277 353.280823,551.441956 366.421082,539.034912 
	C371.925629,533.837524 371.824341,532.919800 364.684601,527.165588 
	C362.069427,530.154968 359.371521,533.275818 356.630585,536.358398 
	C354.955414,538.242371 352.993530,539.811340 350.731964,540.918213 
	C348.669830,541.927551 346.139862,543.542114 344.392456,541.194641 
	C342.705872,538.928894 345.221069,537.315430 346.642548,535.799744 
	C350.626282,531.551758 354.980316,527.652161 358.329803,522.817444 
	C360.250549,520.044922 360.876495,517.405151 359.813110,513.969055 
	C357.089111,505.166840 356.021515,496.255554 357.539459,486.919922 
	C360.596497,468.118652 374.345642,452.753082 392.924622,454.639130 
	C396.178558,454.969452 397.619110,452.764587 399.093811,450.443695 
	C409.997406,433.283386 421.428345,416.482941 433.445007,400.079559 
	C469.090088,351.422119 508.331848,305.987122 553.422119,265.761169 
	C556.715698,262.822968 560.573975,260.401825 563.110840,256.663055 
	C556.668823,250.267471 555.947021,250.150986 548.457214,253.496155 
	C545.418823,254.853165 542.365234,256.245605 539.194580,257.217285 
	C536.072266,258.174164 534.244324,260.052216 532.783203,262.920471 
	C528.424805,271.476410 522.453125,278.759247 515.007263,284.903625 
	C507.525818,291.077301 498.770874,294.486908 488.391663,297.339569 
	C493.562897,299.613373 492.304840,302.622528 490.926147,305.592255 
	C489.656830,308.326416 487.950439,310.776642 485.960602,313.053650 
	C475.098694,325.483124 460.560394,330.831848 445.072845,334.379272 
	C444.053589,334.612762 442.641815,334.286072 442.454742,335.955414 
	C448.551331,338.141907 448.820160,338.647919 445.633240,344.252899 
	C438.094269,357.512024 426.770203,365.984924 412.213898,370.246155 
	C410.546570,370.734253 408.822083,371.014771 407.142090,372.701843 
	C412.188690,373.811584 411.716766,376.734650 410.366241,380.037994 
	C407.674347,386.622223 403.555084,392.213013 398.601929,397.249146 
	C391.083679,404.893402 381.855286,409.631226 371.368774,412.913513 
	C377.846008,414.940155 377.957672,415.173492 375.651337,421.291687 
	C373.937286,425.838593 371.593689,430.038361 368.785797,434.004761 
	C362.961823,442.231567 355.505585,448.602295 345.929932,453.463501 
	C347.550110,453.957520 348.336853,454.398712 349.127502,454.405792 
	C354.229492,454.451599 354.858826,456.950867 353.306732,461.225250 
	C350.424408,469.163086 346.284210,476.254486 340.507141,482.451752 
	C335.702759,487.605560 329.840088,491.227051 322.947815,494.629486 
	C324.401215,495.112457 324.996643,495.406433 325.622650,495.503571 
	C331.901001,496.477417 332.301636,497.051392 330.327637,503.076111 
	C328.610443,508.317108 326.263794,513.256531 323.271118,517.918457 
	C318.576630,525.231567 312.249573,530.933838 304.795990,536.291931 
	C308.301178,537.108398 311.016663,537.740906 314.250549,538.494141 
	C307.296204,566.693054 287.890259,579.579590 260.928009,582.970642 
	C261.317749,585.896973 262.950836,586.949829 264.130035,588.288208 
	C271.620575,596.789612 279.233704,605.199280 285.460327,614.709778 
	C292.848053,625.993652 299.273743,637.530823 296.360931,651.937134 
	C295.298889,657.190002 293.232483,662.100159 292.027771,667.281677 
	C290.833740,672.417236 292.178528,674.143433 297.454620,673.592773 
	C304.058472,672.903625 310.617188,671.697693 317.231873,671.214417 
	C330.357941,670.255432 343.504700,670.264099 356.641907,671.285400 
	C371.559509,672.445251 386.437469,674.449585 401.454956,673.648071 
	C413.496338,673.005371 418.202515,668.093811 419.811920,656.190247 
	C421.110657,646.584595 419.718536,637.301270 417.976105,628.004150 
	C414.907959,611.632996 408.616943,596.057312 405.470734,579.759521 
	C403.958038,571.923584 400.109863,568.842896 392.802917,567.957825 
	C391.623962,571.931152 392.061707,575.920715 392.664917,579.786194 
	C395.351532,597.002808 398.291656,614.179626 401.026672,631.388916 
	C403.958862,649.839111 394.202576,658.899902 375.497375,657.802795 
	C356.981934,656.716797 338.220093,655.058472 319.838470,660.020081 
	C318.266846,660.444275 316.503998,660.612305 314.903961,660.382935 
	C311.752289,659.931458 310.843109,657.229980 313.102570,654.997253 
	C314.244110,653.869202 315.792725,652.942871 317.325745,652.456726 
	C325.104736,649.989868 333.013428,647.963440 341.218170,647.727173 
	C354.536957,647.343689 367.861633,647.169861 381.183044,646.871765 
	C388.827545,646.700745 392.352661,643.164001 392.677216,635.516174 
	C392.962616,628.790283 391.199127,622.339600 390.076691,615.804688 
	C387.160858,598.828308 381.771271,582.057434 383.883545,564.612549 
	C384.675262,558.073730 382.792389,553.021973 379.538025,547.174438 
M479.418121,629.168823 
	C455.597900,613.504028 435.341797,593.670105 415.435089,572.970215 
	C413.433838,576.238281 414.344940,578.472717 414.913666,580.664001 
	C418.169861,593.209778 421.531494,605.728577 424.727203,618.289612 
	C428.048218,631.343140 431.206909,644.433472 429.245178,658.098633 
	C427.185730,672.444519 427.194916,672.445862 430.738403,685.435913 
	C434.385864,698.807007 430.562531,710.843140 419.141083,714.173279 
	C409.818909,716.891418 407.207520,722.349243 406.212341,730.389587 
	C406.171875,730.716187 406.057129,731.038574 405.942719,731.350342 
	C404.520325,735.226624 405.663971,737.036926 409.982788,736.720337 
	C421.256561,735.893738 432.530609,735.024475 443.818695,734.450134 
	C467.919922,733.224060 492.018463,732.128784 515.912109,737.154541 
	C519.501099,737.909485 523.195984,739.567627 527.148071,738.116089 
	C527.441040,735.153503 525.902344,732.872314 524.959412,730.458435 
	C518.809143,714.712891 515.283325,698.585327 518.794556,681.694458 
	C520.584656,673.083374 523.083862,664.615845 525.387817,656.117371 
	C526.332520,652.632629 525.666199,650.489502 521.856873,649.376038 
	C506.874268,644.996582 493.105408,637.996155 479.418121,629.168823 
M224.581192,583.935181 
	C226.579819,586.029907 227.660446,589.056091 230.566788,590.221924 
	C238.510574,582.482300 238.671753,581.305664 232.604797,573.361816 
	C201.149796,532.175903 186.526230,485.268982 185.926208,433.856598 
	C185.669510,411.861237 188.688370,390.156921 194.526932,368.832886 
	C221.868179,268.975037 311.756439,195.921143 420.606903,193.925888 
	C451.168732,193.365677 480.867798,198.737961 509.351288,210.165970 
	C510.841187,210.763733 512.458679,212.173828 514.033081,211.055099 
	C517.592651,208.525772 521.739197,206.760071 524.964966,203.338913 
	C524.100830,202.719910 523.612854,202.257339 523.035889,201.979675 
	C521.688965,201.331467 520.309631,200.746689 518.925354,200.180450 
	C478.683167,183.719437 437.018066,178.011368 393.794708,183.157700 
	C367.278595,186.314774 341.979065,193.505157 317.871460,204.867630 
	C279.443542,222.979584 247.592636,249.162109 222.354614,283.351868 
	C191.276535,325.453094 175.224197,372.786407 173.380508,424.972015 
	C172.768478,442.295227 174.261124,459.493469 177.205780,476.604919 
	C184.005020,516.115356 199.764786,551.624573 224.581192,583.935181 
M491.941132,368.433502 
	C497.575165,362.974060 503.565430,357.941559 510.014679,353.470215 
	C537.214783,334.612091 567.635559,323.170380 599.334900,314.651215 
	C605.257446,313.059540 611.512085,312.507019 616.993225,309.491852 
	C623.014038,306.179749 623.366089,302.301880 618.125122,297.947510 
	C610.655640,291.741516 603.995667,284.797943 598.271667,276.934296 
	C589.714355,265.178223 591.835815,265.519897 598.869263,258.088684 
	C599.097717,257.847351 599.309265,257.586792 599.503418,257.316956 
	C601.226379,254.922241 602.609253,252.517105 600.471069,249.597672 
	C598.294067,246.625214 595.337952,246.674377 592.376343,247.675049 
	C588.710022,248.913834 585.688416,251.362885 582.617310,253.657745 
	C566.575623,265.644836 551.682251,278.976562 537.178955,292.743469 
	C500.961487,327.122040 467.885742,364.292847 438.494232,404.684662 
	C426.632019,420.986572 415.493774,437.785828 405.306732,455.199524 
	C404.298340,456.923309 402.717499,458.784576 405.318268,460.290039 
	C409.410645,462.658905 412.344482,466.234802 415.108002,469.695496 
	C418.088287,468.874237 419.240265,466.723022 420.533844,464.850098 
	C424.982513,458.409027 429.410339,451.949738 433.676147,445.386932 
	C451.127075,418.539001 469.188904,392.159210 491.941132,368.433502 
M452.017853,435.513397 
	C448.089447,442.022705 445.253204,448.497162 447.125275,456.661224 
	C448.939911,464.574707 449.613342,473.059021 447.985687,480.944397 
	C446.117249,489.996124 450.321106,496.041260 455.276794,502.109100 
	C458.667969,506.261261 463.359131,508.047852 468.718536,506.523621 
	C473.973236,505.029144 477.191132,501.233032 478.397614,496.036835 
	C479.562561,491.019501 480.303619,485.873199 479.196503,480.710907 
	C478.262756,476.357208 479.676758,472.957764 482.838776,469.953339 
	C485.850922,467.091370 488.757263,464.092773 491.475403,460.951141 
	C501.361084,449.525116 504.515472,436.865051 497.925323,422.671234 
	C496.510834,419.624786 495.270813,415.170532 490.727295,416.806274 
	C486.556152,418.307983 488.557739,422.436768 488.804169,425.597931 
	C488.868408,426.422272 489.187134,427.230957 489.216858,428.053070 
	C489.413300,433.486786 489.027588,439.004944 484.869110,442.906677 
	C477.041534,450.250916 467.239380,455.535309 461.922760,465.491974 
	C461.168701,466.904053 459.215424,467.564941 457.459778,466.983032 
	C455.426666,466.309143 455.598877,464.434692 455.666565,462.779388 
	C455.862854,457.983185 458.367249,454.233337 461.584534,451.025513 
	C464.520996,448.097748 467.934357,445.654266 470.958130,442.806854 
	C476.749176,437.353607 479.526215,430.669220 478.714630,422.627838 
	C478.298157,418.501251 476.513214,415.149506 472.566742,413.695068 
	C468.944061,412.359894 467.171936,415.613922 465.283936,417.756317 
	C460.551086,423.127014 456.246002,428.846741 452.017853,435.513397 
M398.931274,718.867737 
	C398.813019,715.855042 396.199738,715.337463 394.218567,714.323120 
	C385.580872,709.901062 379.852905,703.164673 377.548126,693.671570 
	C376.844727,690.774231 376.248383,687.846924 375.723663,684.911743 
	C375.395782,683.077637 374.586731,681.658020 372.676270,681.478516 
	C367.226868,680.966187 361.808960,679.783264 356.292053,680.432556 
	C353.892273,680.714966 351.748199,681.472961 350.829254,684.076294 
	C345.049774,700.449646 345.406158,716.332031 354.626678,731.494385 
	C356.420044,734.443359 358.868439,736.699829 362.363770,737.323547 
	C367.100342,738.168701 371.844971,739.004456 376.713318,738.655457 
	C388.958832,737.777771 397.660461,730.370056 398.931274,718.867737 
M297.279846,531.785950 
	C309.572266,525.925293 316.746338,516.017273 320.866211,503.112518 
	C316.178436,501.522369 312.128082,501.973206 308.276459,502.418793 
	C287.620178,504.808228 276.071930,510.149506 267.836426,531.471191 
	C265.603119,537.253235 267.144714,539.242981 273.183502,538.442261 
	C281.258789,537.371521 289.214417,535.758423 297.279846,531.785950 
M238.117004,510.756805 
	C235.276749,510.465729 235.101578,512.984375 234.285843,514.605103 
	C230.951752,521.229370 229.438400,528.433960 228.594803,535.693115 
	C226.926193,550.051819 233.079819,561.326416 242.948288,571.234619 
	C260.042236,551.341614 257.978851,524.616760 238.117004,510.756805 
M526.090820,376.552582 
	C529.733337,370.820190 531.912964,364.641052 531.817749,357.769714 
	C531.752563,353.066620 530.616638,352.329498 526.433899,354.692902 
	C508.072418,365.067810 492.823242,378.957581 480.115845,395.746979 
	C477.797607,398.809875 478.911469,400.455536 481.659210,402.057465 
	C488.434814,406.007690 495.322388,403.495575 498.980804,395.297455 
	C500.550323,391.780273 502.441681,389.773560 506.543304,389.303314 
	C514.747070,388.362732 521.081360,384.000366 526.090820,376.552582 
M310.136932,466.586121 
	C299.346405,472.600311 292.050964,481.483154 287.232147,493.262177 
	C319.111908,492.623871 342.533661,478.833527 342.721222,460.454010 
	C331.665741,460.283447 321.001495,461.787476 310.136932,466.586121 
M269.335999,471.222260 
	C268.313293,469.916840 267.387299,468.519562 266.250153,467.322906 
	C262.534271,463.412842 261.054077,463.557129 258.685730,468.378632 
	C256.935120,471.942566 255.484009,475.665588 254.080200,479.385895 
	C248.133789,495.144958 251.619324,509.438812 260.892303,522.843018 
	C275.464905,512.292297 279.280426,490.052979 269.335999,471.222260 
M290.949799,564.451782 
	C296.489258,558.592590 300.409729,551.814636 303.070740,543.866638 
	C297.863953,542.649719 293.035095,542.980774 288.351776,543.437561 
	C274.376648,544.800598 263.022247,550.090576 258.585846,564.898560 
	C257.925049,567.104126 256.775604,569.171265 255.774918,571.265442 
	C253.812531,575.372192 254.416580,576.576355 259.122650,576.623413 
	C271.024384,576.742493 281.656677,573.260071 290.949799,564.451782 
M362.719788,419.848999 
	C339.509369,419.262329 315.868896,434.829376 312.024872,453.823120 
	C325.368744,452.720764 338.147247,450.691772 349.495270,443.253998 
	C356.518463,438.650879 361.367035,432.163116 365.229309,424.877625 
	C366.307770,422.843353 367.591675,420.317596 362.719788,419.848999 
M353.294739,396.786041 
	C349.958191,401.209259 345.385162,404.720428 342.861633,410.621521 
	C348.678864,410.970886 353.872620,410.549042 359.096405,409.721161 
	C375.082642,407.187531 388.644104,400.853027 397.081268,386.165253 
	C400.758820,379.763184 400.041534,378.423370 392.832275,378.338470 
	C376.973663,378.151703 364.272430,384.802673 353.294739,396.786041 
M279.113159,449.500671 
	C278.938202,459.292267 281.237762,468.424164 286.307159,477.472900 
	C295.052155,469.079254 300.664612,459.665405 302.703430,448.139160 
	C303.676331,442.638977 304.198914,437.325287 301.056488,432.273407 
	C298.148315,427.598145 294.097015,423.953552 290.449402,419.410736 
	C281.737152,427.619873 279.107056,437.561157 279.113159,449.500671 
M400.205933,367.637970 
	C415.403015,364.163086 429.199768,358.650421 436.709015,343.312714 
	C415.200409,333.708588 383.221619,348.949707 381.184418,369.447357 
	C387.379974,370.176239 393.352234,368.730621 400.205933,367.637970 
M478.948944,308.507721 
	C479.870392,307.021637 481.535767,305.832184 480.930634,303.740173 
	C462.371735,295.576019 430.044708,309.802155 423.644287,329.542664 
	C444.603912,329.142548 464.313568,326.724823 478.948944,308.507721 
M318.126190,701.486511 
	C318.068787,708.666931 318.654327,715.794678 320.452698,722.753479 
	C322.589172,731.020508 330.593872,736.728394 338.249725,735.755432 
	C340.982269,735.408203 342.510284,734.367310 340.818604,731.541199 
	C333.197571,718.809570 334.234833,705.279846 336.236115,691.336121 
	C337.831390,680.221558 338.720917,681.072937 327.184052,681.241516 
	C322.395599,681.311523 319.754578,683.496155 318.806702,688.063538 
	C317.952454,692.179749 318.184387,696.347961 318.126190,701.486511 
M309.908203,421.521576 
	C310.993317,425.248413 311.463318,429.243195 314.544525,432.563782 
	C321.225433,425.810944 326.860291,418.793671 330.426147,410.157898 
	C334.514954,400.255554 334.556488,390.491486 330.432495,380.660065 
	C328.257050,375.473877 326.401184,375.045532 322.748749,379.274689 
	C312.465790,391.181335 307.635590,404.878906 309.908203,421.521576 
M466.566498,251.058990 
	C456.503815,261.160339 449.598267,284.187622 455.288116,293.037140 
	C458.361328,288.559326 461.233215,284.045898 465.073395,280.352173 
	C468.908600,276.663239 473.058533,273.297241 476.833862,269.551208 
	C484.832092,261.614960 487.245239,246.740921 481.928223,237.524826 
	C476.210815,241.036789 471.378906,245.487595 466.566498,251.058990 
M441.677094,289.007812 
	C441.573883,282.517944 442.683777,275.830872 439.030212,269.777863 
	C422.865326,277.504913 409.620331,307.202667 414.337708,325.539001 
	C419.532196,318.976013 425.772797,314.017181 431.091614,308.158234 
	C435.888794,302.873871 440.595581,297.398529 441.677094,289.007812 
M519.016907,270.668915 
	C519.677368,269.393524 521.059570,268.405273 520.637756,266.696167 
	C504.000732,261.521301 472.021881,277.294220 465.491302,294.574890 
	C486.859558,294.285828 505.335236,288.840546 519.016907,270.668915 
M403.135712,307.600555 
	C402.465363,306.009888 403.001129,303.836456 400.940063,302.917236 
	C381.250641,312.616180 374.669861,339.516968 378.517212,356.112091 
	C381.450012,352.113739 384.236267,348.240997 388.077850,345.718689 
	C401.799408,336.709381 405.106476,323.632477 403.135712,307.600555 
M366.640472,352.740753 
	C365.643005,348.711487 366.396729,344.173981 363.461395,340.621307 
	C346.287506,350.705017 336.508514,381.129242 346.402802,392.809967 
	C358.826721,382.687836 366.798737,370.247559 366.640472,352.740753 
M507.620087,227.136520 
	C500.958374,235.685196 496.415619,245.252884 492.597748,256.316681 
	C514.053101,246.966217 536.657959,225.626877 535.249390,206.773590 
	C524.301086,211.071426 515.751160,218.206909 507.620087,227.136520 
M516.889526,256.753571 
	C538.678650,253.884506 561.758240,242.027481 565.144470,226.830246 
	C564.361694,226.667343 563.568542,226.313705 562.811462,226.378860 
	C560.174316,226.605774 557.536682,226.895157 554.922424,227.307785 
	C537.729431,230.021515 525.512329,240.463654 514.860779,253.268295 
	C513.516663,254.884079 512.785461,256.680450 516.889526,256.753571 
M395.424042,684.356628 
	C389.454041,684.437866 388.309235,685.698425 389.446442,691.457947 
	C390.199371,695.271301 392.086823,698.613037 394.558289,701.603882 
	C399.822449,707.974243 409.658966,709.818848 416.243622,705.689453 
	C421.556732,702.357605 423.682129,692.049805 420.371643,685.199219 
	C419.023804,682.410034 417.450256,680.694702 413.757263,682.588928 
	C408.296326,685.390198 402.347107,686.021790 395.424042,684.356628 
M307.153015,684.367676 
	C297.896759,681.401611 290.777557,685.525818 289.539398,694.802612 
	C288.831726,700.104980 289.154938,705.454895 290.585480,710.625854 
	C292.637268,718.042603 301.965576,723.079102 309.204376,720.651306 
	C309.131165,719.915405 309.111664,719.111755 308.964447,718.332336 
	C307.191528,708.946655 307.059296,699.547974 308.525421,690.103699 
	C308.797363,688.351990 309.111084,686.437378 307.153015,684.367676 
M546.396606,343.199432 
	C544.733398,348.388336 544.563416,353.744476 544.032166,359.024750 
	C556.578735,361.195312 570.404663,351.856110 574.689270,338.809143 
	C576.341064,333.779266 575.442078,332.406128 570.386353,333.407166 
	C562.045776,335.058655 553.998474,337.673981 546.396606,343.199432 
M423.877136,489.302612 
	C427.604889,494.089874 432.480927,493.761047 435.611694,488.063171 
	C440.321289,479.491821 439.653992,470.325745 437.589417,460.876038 
	C432.675903,465.745209 429.076324,471.396423 425.579041,477.151581 
	C423.392609,480.749664 422.403748,484.443909 423.877136,489.302612 
M601.162354,326.777344 
	C597.662842,327.837769 594.174255,328.935822 590.661011,329.948730 
	C586.598450,331.120117 587.067810,334.441772 587.490234,337.305450 
	C587.999756,340.760071 591.072571,339.870453 593.129089,339.455811 
	C600.223999,338.025299 606.799744,335.243530 612.468445,330.639404 
	C614.498901,328.990234 616.457581,327.159180 616.473816,323.560425 
	C611.160461,323.175049 606.689880,325.722321 601.162354,326.777344 
M282.156250,686.800659 
	C282.367249,685.830566 282.590607,684.863037 282.786774,683.889954 
	C283.222351,681.728821 284.904968,679.152344 281.874878,677.782471 
	C278.934387,676.452942 276.847565,678.417419 275.104065,680.571106 
	C273.682587,682.327087 273.260895,684.381104 273.301453,686.624878 
	C273.359985,689.862854 274.635651,692.205322 277.989655,692.616333 
	C281.801361,693.083374 281.399689,689.883911 282.156250,686.800659 
z"/>
<path fill="#000000" opacity="1.000000" stroke="none" 
	d="
M583.311157,406.035614 
	C585.733032,405.234253 587.787048,404.090607 589.859985,404.055237 
	C595.313965,403.962128 598.799805,401.887787 599.167175,395.939178 
	C603.508301,396.553711 603.616394,399.857330 604.218201,402.603577 
	C604.730347,404.940796 603.969299,406.923981 601.416077,407.709442 
	C599.237793,408.379547 598.744507,409.751526 599.173828,411.910797 
	C600.578003,418.972351 597.430115,426.014618 599.113342,433.169128 
	C599.735535,435.813904 597.104797,436.206207 595.039856,436.274261 
	C582.892273,436.674744 570.778992,436.119720 558.697632,434.837158 
	C554.243347,434.364319 549.801086,433.777191 545.345398,433.319702 
	C543.513367,433.131592 541.729126,432.989410 540.619812,431.485443 
	C540.446594,429.910156 541.499329,429.444214 542.393311,429.219666 
	C553.365173,426.464172 562.037842,419.669739 570.868408,413.140137 
	C574.626404,410.361359 578.598999,407.946442 583.311157,406.035614 
M565.165894,428.797546 
	C572.913452,430.380219 580.749939,429.564850 588.552246,429.658783 
	C592.506165,429.706421 592.998291,426.632690 593.377747,423.854462 
	C593.869385,420.254913 594.184082,416.503265 591.091492,413.705658 
	C590.614685,413.274261 589.445435,413.333130 588.689392,413.527374 
	C579.508850,415.886200 571.610046,420.825592 563.893433,426.078430 
	C562.466248,427.049896 562.270203,428.264099 565.165894,428.797546 
z"/>
<path fill="#000000" opacity="1.000000" stroke="none" 
	d="
M398.928589,528.284546 
	C400.550720,530.722351 399.876984,534.022400 402.733215,535.306213 
	C403.169342,535.212158 403.523193,535.210083 403.801056,535.063721 
	C405.335815,534.255249 406.307831,530.849854 408.498505,533.263306 
	C410.302032,535.250244 409.702942,538.038452 407.891602,540.107971 
	C405.033264,543.373718 398.649200,542.130920 397.384064,537.394470 
	C395.645721,530.886597 391.391846,527.744995 385.954132,524.631409 
	C375.752472,518.790222 370.673309,504.911285 373.047211,491.768677 
	C373.997131,486.509583 375.211060,481.326691 378.152771,476.752625 
	C382.033173,470.719116 388.099060,468.342651 394.472473,470.289642 
	C401.416473,472.410889 404.381775,476.729034 404.340240,484.526733 
	C404.316895,488.908051 403.223602,493.094666 402.027435,497.240845 
	C400.939331,501.012451 400.504333,504.406403 404.438141,506.928864 
	C405.722412,507.752380 406.703400,509.110626 405.571106,510.742920 
	C404.679169,512.028809 403.341370,511.858612 401.955536,511.540039 
	C397.221893,510.451813 394.821960,506.898407 395.372894,502.002289 
	C396.150055,495.095825 397.822876,488.203278 395.875336,481.217865 
	C395.084869,478.382690 394.118652,475.711182 390.688965,475.279907 
	C387.272675,474.850372 385.078552,476.734436 383.277466,479.380920 
	C373.348694,493.970123 377.451538,513.240295 392.518036,522.384644 
	C394.966034,523.870422 397.379120,525.305725 398.928589,528.284546 
z"/>
<path fill="#000000" opacity="1.000000" stroke="none" 
	d="
M599.331055,378.950745 
	C603.630005,380.388306 606.252075,382.960419 607.328979,386.970734 
	C607.667480,388.231476 608.164062,389.657013 606.678467,390.560669 
	C605.444214,391.311340 604.207031,390.609589 603.570374,389.742035 
	C597.368958,381.291870 590.343262,384.703064 583.232483,388.147369 
	C574.495605,392.379364 566.950195,398.433289 558.939636,403.783325 
	C555.636719,405.989288 552.362000,408.793671 548.019470,407.951721 
	C547.253418,406.038330 548.067383,405.136841 549.098877,404.559296 
	C557.704712,399.740814 564.762512,392.757690 573.035522,387.486389 
	C580.931580,382.455292 588.918640,377.603027 599.331055,378.950745 
z"/>
<path fill="#000000" opacity="1.000000" stroke="none" 
	d="
M614.322754,482.064270 
	C613.636536,485.749878 612.758728,488.977112 612.399353,492.261017 
	C611.662048,498.997131 614.937744,501.379364 621.045105,498.503723 
	C626.907532,495.743469 632.580933,492.584076 638.417969,489.766846 
	C640.646973,488.691010 643.089417,488.047699 645.453979,487.265930 
	C646.897888,486.788544 648.193726,487.128662 648.740356,488.627991 
	C649.222839,489.951508 648.346130,491.091797 647.230652,491.395966 
	C637.159363,494.142151 628.872742,500.683258 619.311401,504.435638 
	C613.428894,506.744232 607.419189,502.144470 607.843140,495.365814 
	C608.286072,488.282990 609.813477,481.265320 610.936401,474.230286 
	C611.133972,472.992371 612.003418,472.049164 613.362732,472.191956 
	C614.770996,472.339905 615.078430,473.546509 615.249695,474.754486 
	C615.586548,477.130707 614.855164,479.364441 614.322754,482.064270 
z"/>
<path fill="#000000" opacity="1.000000" stroke="none" 
	d="
M191.416977,631.574524 
	C194.553497,617.494629 197.685944,603.770935 200.997177,590.090576 
	C201.778214,586.863708 203.672989,586.579834 205.934586,589.096802 
	C207.984039,591.377686 208.511276,593.731079 207.692795,596.855164 
	C204.751938,608.080383 202.130692,619.389221 199.386978,630.666077 
	C198.853607,632.858215 199.161804,636.071960 196.626999,636.551270 
	C193.868210,637.072937 192.677048,634.117126 191.416977,631.574524 
z"/>
<path fill="#000000" opacity="1.000000" stroke="none" 
	d="
M181.815765,549.293274 
	C183.294815,551.740601 182.683929,553.626709 181.589569,555.680359 
	C176.203857,565.787354 170.975662,575.978210 165.585571,586.082764 
	C164.668976,587.801147 164.006424,591.117676 161.287201,589.634644 
	C158.750534,588.251038 156.828995,585.457642 158.526550,582.049133 
	C160.450043,578.187012 162.518051,574.396912 164.527588,570.577698 
	C168.315506,563.378662 172.113159,556.184631 175.893448,548.981567 
	C177.811111,545.327576 179.710648,544.997864 181.815765,549.293274 
z"/>
<path fill="#000000" opacity="1.000000" stroke="none" 
	d="
M143.974564,513.980957 
	C148.442307,509.011139 152.609055,504.243134 156.954437,499.643921 
	C158.388245,498.126404 160.018768,494.869232 162.440735,497.436432 
	C164.191498,499.292236 165.307297,502.422943 162.861496,505.139404 
	C159.296097,509.099365 155.760117,513.085754 152.198959,517.049561 
	C147.969223,521.757385 143.785156,526.508728 139.453522,531.121216 
	C138.119827,532.541382 136.654861,535.548401 134.347137,533.340271 
	C132.217529,531.302612 131.010788,528.241943 133.654816,525.333740 
	C137.015701,521.636963 140.380188,517.943481 143.974564,513.980957 
z"/>
<path fill="#000000" opacity="1.000000" stroke="none" 
	d="
M136.998978,455.950012 
	C142.954025,452.535858 147.896896,448.044800 154.135544,445.500153 
	C156.511688,450.362183 156.201553,453.469818 151.801437,456.196808 
	C142.774887,461.791046 134.062759,467.890411 125.135025,473.648224 
	C123.412521,474.759125 121.076187,477.562805 119.310997,474.444733 
	C117.917801,471.983765 117.555504,468.706055 120.898148,466.566254 
	C126.210381,463.165649 131.430954,459.621857 136.998978,455.950012 
z"/>
<path fill="#000000" opacity="1.000000" stroke="none" 
	d="
M144.228546,407.372314 
	C136.633530,410.018555 129.445358,412.649628 122.174568,415.028076 
	C120.433197,415.597687 117.721100,417.840240 116.764061,414.461243 
	C115.968872,411.653687 116.034103,408.556122 120.033737,407.276031 
	C126.844086,405.096405 133.542587,402.567657 140.291000,400.194000 
	C144.057770,398.869110 147.813461,397.509094 151.607910,396.268158 
	C153.425247,395.673828 155.810181,394.363953 156.853485,396.879333 
	C157.934204,399.484924 157.366943,402.367401 154.445511,403.686279 
	C151.273407,405.118347 147.894058,406.091339 144.228546,407.372314 
z"/>
<path fill="#000000" opacity="1.000000" stroke="none" 
	d="
M166.531036,345.954803 
	C168.943161,350.659760 167.599075,353.480499 162.721893,354.047272 
	C154.806503,354.967102 146.852249,355.550598 138.916733,356.300659 
	C136.439651,356.534790 133.976013,356.969635 131.495407,357.090790 
	C129.160934,357.204803 126.008949,358.277313 125.846100,354.305389 
	C125.712914,351.056976 127.359909,349.023407 130.871414,348.719604 
	C137.819275,348.118500 144.745605,347.095856 151.702866,346.835205 
	C156.526413,346.654449 161.242096,345.142120 166.531036,345.954803 
z"/>
<path fill="#000000" opacity="1.000000" stroke="none" 
	d="
M239.641632,210.316422 
	C243.751633,213.170303 247.584442,215.793091 251.381912,218.466080 
	C253.310059,219.823288 255.569077,221.245804 253.431519,223.997253 
	C251.555466,226.412125 249.218414,227.012909 246.489227,225.082504 
	C242.156540,222.017914 237.753036,219.053574 233.389679,216.032135 
	C229.162582,213.105042 224.914825,210.205826 220.744797,207.199142 
	C219.057770,205.982758 216.674316,204.728653 218.645538,202.100388 
	C220.363098,199.810349 222.542938,198.411621 225.456512,200.451035 
	C230.076675,203.685028 234.717651,206.889267 239.641632,210.316422 
z"/>
<path fill="#000000" opacity="1.000000" stroke="none" 
	d="
M180.523972,243.242050 
	C182.798996,242.333145 184.492661,243.327789 186.144348,243.955063 
	C195.611160,247.550247 205.050812,251.219009 214.457916,254.967590 
	C216.318085,255.708847 219.157257,256.265045 217.651657,259.360046 
	C216.459549,261.810638 214.886047,263.881592 211.419235,262.501801 
	C201.086700,258.389404 190.638718,254.563614 180.344818,250.359039 
	C175.729568,248.473923 178.041733,245.816681 180.523972,243.242050 
z"/>
<path fill="#000000" opacity="1.000000" stroke="none" 
	d="
M527.887695,153.912628 
	C529.871094,151.421875 531.582153,149.163803 533.417908,147.011993 
	C535.515686,144.552994 537.982239,145.239655 540.111267,146.794785 
	C542.412476,148.475647 540.995544,150.385330 539.761230,151.960464 
	C533.191162,160.344818 526.501892,168.636353 519.986755,177.062729 
	C517.691101,180.031830 515.095520,179.751373 512.575867,177.995026 
	C509.412567,175.790070 512.206543,173.882446 513.460693,172.241760 
	C518.110535,166.158920 522.920593,160.198593 527.887695,153.912628 
z"/>
<path fill="#000000" opacity="1.000000" stroke="none" 
	d="
M319.817444,141.684143 
	C322.657745,140.423691 324.241302,141.313553 325.395752,143.651627 
	C330.029694,153.036545 334.718048,162.394623 339.394531,171.758514 
	C340.491608,173.955200 340.745300,175.885223 337.999512,177.088074 
	C335.610413,178.134659 333.584015,178.326370 332.185608,175.497238 
	C327.400360,165.816208 322.548370,156.168137 317.703857,146.516525 
	C316.581879,144.281235 317.046112,142.691345 319.817444,141.684143 
z"/>
<path fill="#000000" opacity="1.000000" stroke="none" 
	d="
M279.223358,173.797943 
	C284.355042,179.695389 289.284698,185.299301 294.148956,190.959427 
	C295.406494,192.422760 297.258179,194.091400 294.827606,195.959290 
	C292.706757,197.589142 290.472565,199.131821 287.945312,196.194244 
	C280.914459,188.021851 273.764374,179.952103 266.669769,171.834488 
	C265.239136,170.197571 264.207184,168.437546 266.604309,166.834473 
	C268.503723,165.564224 270.525879,163.944656 272.732056,166.444702 
	C274.817291,168.807617 276.908447,171.165329 279.223358,173.797943 
z"/>
<path fill="#000000" opacity="1.000000" stroke="none" 
	d="
M151.824387,301.439178 
	C149.209579,301.115692 146.146454,301.738739 146.547165,298.107635 
	C146.870895,295.174164 148.650864,293.243774 152.006058,293.681610 
	C160.706360,294.817017 169.404358,295.970032 178.104309,297.108124 
	C180.403381,297.408875 182.749573,297.496918 184.993469,298.025238 
	C186.761337,298.441498 189.579254,298.523529 188.689178,301.476318 
	C187.999786,303.763275 186.930740,306.522522 183.675797,306.073975 
	C173.187531,304.628540 162.720566,303.028656 151.824387,301.439178 
z"/>
<path fill="#000000" opacity="1.000000" stroke="none" 
	d="
M484.966919,154.820374 
	C483.428680,158.555588 481.966339,161.910248 480.702698,165.338135 
	C479.566223,168.421036 477.340271,168.809540 474.692902,167.909836 
	C471.438416,166.803802 472.345886,164.525345 473.284119,162.218933 
	C477.041046,152.983643 480.840759,143.763519 484.412933,134.456512 
	C485.683075,131.147369 487.576813,129.946976 490.884186,131.194992 
	C494.620392,132.604782 492.874420,135.138229 492.005005,137.359650 
	C489.764679,143.083832 487.427704,148.770203 484.966919,154.820374 
z"/>
<path fill="#000000" opacity="1.000000" stroke="none" 
	d="
M430.910278,123.766327 
	C434.278259,123.532120 435.674377,124.775871 435.391876,127.841591 
	C434.433838,138.238693 433.527313,148.640564 432.607880,159.041214 
	C432.374481,161.681656 431.428009,163.432236 428.303772,163.249466 
	C425.070435,163.060287 424.491150,161.057526 424.729706,158.469543 
	C425.703369,147.906586 426.733398,137.348862 427.734436,126.788429 
	C427.896454,125.079079 428.732513,124.022186 430.910278,123.766327 
z"/>
<path fill="#000000" opacity="1.000000" stroke="none" 
	d="
M375.852600,152.845459 
	C374.510773,145.920837 373.242676,139.418304 372.007843,132.909439 
	C371.551147,130.501816 371.273041,128.304321 374.676483,127.626472 
	C377.851074,126.994209 379.328186,128.164658 379.893036,131.182068 
	C381.813904,141.443878 383.747131,151.703995 385.790405,161.941849 
	C386.297882,164.484634 385.402771,165.792831 382.991455,166.180206 
	C380.680634,166.551453 378.558716,166.315964 377.956238,163.505722 
	C377.227081,160.104370 376.606873,156.679657 375.852600,152.845459 
z"/>
</svg>