<svg version="1.1" id="Layer_1" xmlns="http://www.w3.org/2000/svg" xmlns:xlink="http://www.w3.org/1999/xlink" x="0px" y="0px"
	 width="100%" viewBox="0 0 848 416" enable-background="new 0 0 848 416" xml:space="preserve">
<path fill="#000000" opacity="1.000000" stroke="none" 
	d="
M233.263916,162.150421 
	C228.304810,169.274948 223.551315,176.096481 218.978470,182.658768 
	C219.355209,185.028122 221.069550,185.712830 222.287079,186.722473 
	C259.141571,217.284012 259.942963,274.212921 224.993088,305.866577 
	C224.005157,306.761322 223.126465,307.794006 222.066574,308.588623 
	C219.472122,310.533722 219.008820,312.537933 221.112030,315.271698 
	C224.227798,319.321533 225.020706,324.149689 224.219116,329.034180 
	C223.685059,332.288452 224.590240,334.784760 226.200668,337.432709 
	C229.662415,343.124695 233.120758,348.837646 236.177673,354.750244 
	C238.198746,358.659332 240.244064,360.736298 244.431961,357.523804 
	C244.878723,357.181091 245.655319,357.268372 246.917191,357.041382 
	C247.105896,366.516113 249.206406,375.435028 250.749573,384.655487 
	C243.701004,378.650421 237.004608,372.537109 229.407608,367.952576 
	C229.524872,367.122528 229.448792,366.662140 229.632874,366.503204 
	C234.999390,361.870697 235.047684,361.850250 231.479706,355.618591 
	C228.195770,349.883057 224.803009,344.209839 221.238800,338.135284 
	C215.530167,342.338257 210.045349,345.719330 203.751297,347.539581 
	C201.501083,348.190399 201.268295,349.751648 201.879333,351.879456 
	C203.486084,357.474579 205.020462,363.096283 206.359207,368.760437 
	C207.201767,372.325378 208.402039,374.751892 212.697845,372.915344 
	C213.344070,372.639099 214.258789,372.990936 215.561157,373.091919 
	C214.429672,382.158569 212.601120,390.906036 212.785461,400.082550 
	C208.715958,396.273071 206.951385,390.908295 202.690887,387.009003 
	C200.020279,391.625214 200.948929,396.858521 198.718185,401.611572 
	C194.059128,394.370758 190.131363,386.881256 184.911453,380.091248 
	C192.172440,376.494232 192.177673,376.493347 190.833237,368.545532 
	C190.139969,364.447174 189.287247,360.370087 188.761444,356.250854 
	C188.328674,352.860504 186.572876,351.618805 183.330582,352.052826 
	C181.679825,352.273743 180.020340,352.593506 178.365829,352.587555 
	C175.123489,352.575897 173.963577,354.167389 174.048981,357.264008 
	C174.168381,361.593445 174.068115,365.928833 174.070892,370.261658 
	C174.075851,377.977844 174.078705,377.977844 181.871460,379.840942 
	C178.063126,388.450592 174.431198,397.024719 171.756836,406.089081 
	C168.613632,399.320068 167.598465,391.974091 163.278320,385.176361 
	C158.052383,390.739105 156.464035,397.858551 152.382614,405.137207 
	C150.044647,395.454742 148.855392,386.709045 145.710236,378.747040 
	C146.369476,378.141571 146.596039,377.746735 146.845276,377.731812 
	C153.945419,377.307526 153.894730,377.308411 154.639252,370.107025 
	C155.117722,365.478851 155.608459,360.840210 156.407410,356.260986 
	C156.944031,353.185272 156.272141,351.542480 152.951599,351.050629 
	C149.835693,350.589081 146.703629,349.906769 143.733948,348.874725 
	C140.331619,347.692352 138.869736,348.897705 137.928146,352.098328 
	C136.707657,356.246918 135.122040,360.288605 133.679352,364.371246 
	C131.062088,371.777771 131.057678,371.776215 138.292358,376.084137 
	C131.711517,382.675568 125.867989,389.695129 120.313644,397.172241 
	C119.402649,387.995392 120.338516,378.931549 118.930267,370.105835 
	C119.470238,369.771790 119.827957,369.399048 119.992485,369.470581 
	C126.157074,372.151306 128.021805,368.369110 129.447495,363.445709 
	C130.789185,358.812408 132.450455,354.268463 134.070114,349.720428 
	C134.763184,347.774323 134.823883,346.244385 132.789978,345.021240 
	C129.391220,342.977325 126.080658,340.786774 122.275970,338.367340 
	C117.128479,345.904541 112.924408,353.931976 108.589081,361.705109 
	C109.822220,364.263336 112.556602,364.674133 114.452896,367.516235 
	C106.496086,372.410461 99.563782,378.587769 92.416161,384.819855 
	C94.328331,375.567444 95.696297,366.512390 96.338165,357.559753 
	C97.316826,357.376862 97.746086,357.153961 97.932365,357.282715 
	C102.475906,360.422333 105.212219,359.049072 107.392082,354.179169 
	C109.287498,349.944733 111.892334,346.011749 114.352440,342.050354 
	C117.443542,337.072937 120.106918,332.218994 118.789742,325.853333 
	C118.001541,322.044128 119.674026,318.274139 122.275208,315.241730 
	C124.403992,312.760040 124.505905,310.943634 121.715302,308.649506 
	C100.930351,291.562347 91.495728,269.141541 92.833099,242.626556 
	C93.957634,220.331085 103.530403,201.570068 120.731277,187.124405 
	C124.276962,184.146667 124.401352,182.089081 121.714203,178.644196 
	C117.825172,173.658569 114.501419,168.235947 110.712379,163.167282 
	C106.852165,158.003403 104.830101,152.470749 105.635773,145.933884 
	C106.199326,141.361435 104.594482,137.801224 99.826309,136.368073 
	C98.689980,136.026535 98.024246,135.340286 98.041489,134.283325 
	C98.171936,126.286041 92.511391,120.963448 88.991798,114.675797 
	C86.565468,110.341217 83.788368,106.203003 81.275948,102.151085 
	C78.415901,101.895630 76.864090,104.546432 73.632263,104.078644 
	C72.693947,95.181091 71.196587,86.148926 69.062286,76.973160 
	C75.503044,81.348083 80.457825,87.490829 88.204216,90.829163 
	C89.856552,82.578964 87.942413,75.151825 87.585831,67.283615 
	C94.054893,73.836838 100.307175,80.477577 107.404922,85.949265 
	C107.112984,86.723907 107.076500,87.219826 106.873383,87.301544 
	C101.208015,89.580765 101.621422,93.007492 104.083878,97.819916 
	C108.784264,107.005981 112.962891,116.466614 117.131798,125.913139 
	C118.714294,129.499023 120.428253,130.959854 124.245506,128.676437 
	C126.499062,127.328392 129.169144,126.688316 131.620087,125.654442 
	C133.191391,124.991623 135.373566,124.936073 135.343567,122.349892 
	C133.390213,119.930016 130.890228,122.682846 127.946533,121.190224 
	C128.948212,112.830704 130.307327,104.106506 129.727554,94.377838 
	C134.347122,97.264442 134.610580,102.171135 139.101578,105.333153 
	C137.271881,96.920876 135.979813,89.377045 133.891861,82.060326 
	C132.855255,78.427834 128.707443,81.519661 125.781181,79.691246 
	C128.206421,71.165619 128.728088,62.120514 130.412796,53.013763 
	C135.050644,60.892296 139.769928,68.568741 145.205231,75.474716 
	C144.743668,76.271690 144.613586,76.769043 144.416382,76.797264 
	C138.137756,77.695633 138.026535,81.570534 139.469055,86.503769 
	C140.584991,90.320152 141.289520,94.256828 142.193192,98.211067 
	C143.682510,97.501648 142.863907,95.421684 145.306091,94.969215 
	C149.493698,100.504478 152.601883,107.056892 156.278931,113.673553 
	C152.577744,115.053581 150.886551,110.197952 147.957611,112.019585 
	C144.709702,114.039604 148.485184,117.439667 145.801544,119.636971 
	C152.059860,121.063843 157.405243,119.740540 162.763260,119.619743 
	C165.712601,119.553261 168.317398,118.974602 165.220795,115.359039 
	C164.625885,114.664436 164.100510,114.024483 164.532135,113.193039 
	C168.886230,104.805458 165.762497,95.813484 166.667267,87.151146 
	C166.770554,86.162231 166.678314,85.152847 166.676025,84.152954 
	C166.657791,76.176025 166.657730,76.176025 158.499054,74.665245 
	C161.852585,66.048607 165.606735,57.679317 168.035889,48.581150 
	C171.447159,57.418709 174.889053,65.983505 179.095383,74.334549 
	C171.326889,76.513199 171.346298,76.512794 171.513840,84.477867 
	C171.576096,87.437950 171.523911,90.400436 171.523911,93.710480 
	C173.258057,92.489548 172.520844,90.414040 174.633682,89.453011 
	C177.244751,95.349182 177.855347,102.059593 181.567032,108.286858 
	C185.579636,103.008347 187.212677,96.897324 191.007034,90.299210 
	C192.226410,95.750580 193.160110,99.924866 194.399780,105.466949 
	C195.974915,96.858162 197.060425,89.624268 198.675140,82.510498 
	C199.974625,76.785629 195.232910,77.150635 191.755508,75.354828 
	C196.857819,67.647850 201.855560,60.087341 205.931854,51.696186 
	C207.975586,55.509129 206.904770,59.737057 208.217087,63.508610 
	C208.973160,65.681595 209.042038,68.083366 209.616409,70.332047 
	C210.844910,75.141548 214.677841,76.567619 218.992188,77.278404 
	C220.192047,77.476082 221.029617,76.851120 221.217453,75.786057 
	C221.600998,73.611176 221.754944,70.565498 219.857697,69.828781 
	C214.085327,67.587303 217.025681,64.643700 218.738724,61.790154 
	C219.814713,59.997799 220.454697,57.795506 223.465164,56.252953 
	C224.587723,65.377800 223.516327,74.295624 226.611664,82.840919 
	C217.960098,82.993622 217.917419,82.982201 215.658279,91.421646 
	C213.815475,98.305779 212.090652,105.221489 210.057281,113.118195 
	C215.724030,108.349945 218.665527,102.562279 223.239883,97.889023 
	C222.939896,106.942070 223.274857,115.841316 224.208359,124.423508 
	C221.233459,126.288979 219.295700,123.671593 216.853806,123.990829 
	C215.493240,125.795845 215.652435,127.034828 218.016724,128.053970 
	C220.762558,129.237579 223.333786,130.819962 226.044312,132.094147 
	C227.747269,132.894699 229.255936,134.968597 231.445740,133.602402 
	C233.881927,132.082474 231.418411,129.984116 231.688141,128.512634 
	C242.541809,120.048180 245.601318,107.028923 252.522278,96.914833 
	C251.231308,93.963837 248.189117,93.933945 246.880081,91.128525 
	C254.074066,85.679176 261.176208,79.917435 268.033966,73.568825 
	C266.755188,82.713318 264.922333,91.555412 264.919464,100.600777 
	C255.419998,100.053627 255.419998,100.053627 250.494064,111.045036 
	C251.110947,112.764946 252.632370,110.647972 253.828140,112.305824 
	C251.209717,120.587822 249.498428,129.588226 248.755066,138.981339 
	C247.516403,138.798569 246.851624,138.812347 246.271515,138.597473 
	C240.809464,136.574249 236.372055,139.709656 237.555481,145.469482 
	C238.862823,151.832397 236.830185,156.891464 233.263916,162.150421 
M139.390320,200.870468 
	C117.133408,216.063934 110.863831,243.808853 117.500229,263.729828 
	C118.656990,264.275421 119.544327,262.409149 120.888939,263.477478 
	C122.154114,266.544373 120.233238,270.305969 122.385056,273.511566 
	C127.506622,272.473877 131.020065,267.675323 136.754944,267.218048 
	C136.111191,270.384644 133.918976,270.854309 132.318466,271.813782 
	C126.036377,275.579712 119.665146,279.196594 113.342552,282.895416 
	C108.354881,285.813293 108.249268,286.390625 111.616676,291.233612 
	C127.838158,314.563232 159.750443,326.996307 187.410187,320.174164 
	C216.136322,313.088989 235.692963,295.265991 243.316391,266.705505 
	C251.209412,237.135162 242.740311,211.369431 219.863297,190.909546 
	C208.684067,180.911484 195.184158,175.298111 180.262772,173.431076 
	C173.691956,172.608917 173.189377,173.211411 173.188446,179.931717 
	C173.187439,187.258942 173.259171,194.586578 173.192886,201.913086 
	C173.177643,203.597473 173.904831,205.654816 171.381119,206.926163 
	C168.859222,203.472656 170.235413,199.545578 170.127960,195.945206 
	C170.017883,192.257004 168.699493,190.887329 165.005981,191.207565 
	C155.794113,192.006226 147.671509,195.604904 139.390320,200.870468 
M105.864197,281.308136 
	C111.447754,283.296600 113.644264,278.033844 117.661179,276.590851 
	C116.171585,272.577728 111.879387,272.349243 110.409050,269.187164 
	C111.252052,267.503510 113.474792,268.966705 114.264214,267.349426 
	C114.304710,267.072052 114.436928,266.732849 114.386299,266.423584 
	C113.983658,263.964081 113.520363,261.514404 113.123695,259.053986 
	C109.841927,238.698059 114.752151,220.756592 129.171783,205.781006 
	C138.499725,196.093399 149.983841,190.501511 163.309418,188.605972 
	C165.516876,188.291962 168.673080,188.759552 169.478943,186.271744 
	C170.703613,182.491013 171.072968,178.056137 169.237305,174.591568 
	C167.810074,171.897812 164.019928,173.212753 161.354156,173.661331 
	C141.694809,176.969452 125.481895,186.160614 112.887543,201.823853 
	C95.451599,223.508408 92.125259,257.447998 105.864197,281.308136 
M211.940750,88.663864 
	C212.208374,87.704727 212.401154,86.716766 212.757446,85.791794 
	C213.895721,82.836693 214.373505,80.182755 210.155197,79.473862 
	C206.762390,78.903709 203.529953,77.757744 202.776306,83.324028 
	C201.244583,94.636818 199.225311,105.893250 197.036530,117.100555 
	C196.496399,119.866203 196.233566,121.362007 199.420517,122.204346 
	C202.650482,123.058067 203.523895,121.457657 204.180328,118.856636 
	C206.656494,109.045242 209.229507,99.258293 211.940750,88.663864 
M159.364868,363.828918 
	C158.998825,367.279602 158.709732,370.740662 158.245331,374.178040 
	C157.770294,377.694122 159.296326,379.060516 162.699783,378.845947 
	C165.836334,378.648254 169.769257,379.965515 169.673676,374.493134 
	C169.578323,369.032959 169.423492,363.556641 169.730972,358.112061 
	C169.982361,353.660706 167.412140,352.848206 163.954453,352.552612 
	C159.977753,352.212708 160.509232,355.153229 160.215408,357.539215 
	C159.993301,359.342896 159.719513,361.140167 159.364868,363.828918 
M98.435219,96.106529 
	C97.633163,94.878662 96.975586,92.953331 95.204041,93.556526 
	C91.803467,94.714378 88.052483,95.742638 86.466728,99.473564 
	C85.791298,101.062714 91.782806,110.715607 93.471764,111.210625 
	C93.973511,110.525200 94.506996,109.796417 95.181671,108.874748 
	C99.634781,111.896507 102.267517,117.189209 108.593269,117.824364 
	C105.314476,110.804230 102.035683,103.784088 98.435219,96.106529 
M228.005325,140.734879 
	C228.596649,139.489899 229.195435,138.095657 227.628830,137.255661 
	C225.859512,136.306961 224.918564,137.927536 223.937027,138.955811 
	C218.557663,144.591370 213.426636,150.483109 207.799667,155.856842 
	C203.676407,159.794540 202.149658,164.578827 201.487228,170.047363 
	C210.421494,160.630280 221.653854,153.394302 228.005325,140.734879 
M194.136978,362.565186 
	C194.612503,365.517853 194.998657,368.488281 195.582489,371.419373 
	C196.730301,377.181854 197.001724,377.281128 203.418365,374.601410 
	C201.482178,367.370453 199.545044,360.027710 197.532715,352.705627 
	C197.093658,351.108154 196.094910,350.020813 194.203278,350.669006 
	C192.666992,351.195435 192.292618,352.380890 192.560806,353.863159 
	C193.034424,356.480835 193.512253,359.097687 194.136978,362.565186 
M127.169090,337.345917 
	C128.815247,339.299347 130.447174,339.928589 132.478271,337.699310 
	C135.033829,334.894379 137.918732,332.378632 140.359436,329.483459 
	C142.220612,327.275726 143.481216,324.637909 142.582428,320.619934 
	C136.150558,324.723419 131.059341,329.370911 126.769638,334.929840 
	C126.472168,335.315338 126.782280,336.169617 127.169090,337.345917 
M193.101059,146.714905 
	C190.721527,149.659241 190.018036,152.941010 190.603958,156.909958 
	C194.297699,154.839615 195.452103,151.740005 196.548843,148.565109 
	C197.080795,147.025238 198.169327,144.267654 199.333496,145.030960 
	C202.960556,147.409073 203.832138,144.196594 204.898346,142.581360 
	C207.298904,138.944702 208.615280,134.787704 209.425232,129.214478 
	C203.379166,135.290817 200.208786,142.390228 193.101059,146.714905 
M210.093216,324.780762 
	C206.870026,328.095306 203.675308,331.438171 200.414825,334.715637 
	C197.695374,337.449249 197.962875,340.132385 200.547729,343.425018 
	C205.035767,338.508575 209.330383,333.785553 213.650024,329.085480 
	C214.693192,327.950409 214.807846,326.775543 214.050369,325.474884 
	C213.232285,324.070099 212.330688,322.910980 210.093216,324.780762 
M149.425812,336.905334 
	C147.650864,339.566528 144.295792,341.131287 143.721466,344.688416 
	C146.195419,346.894348 148.499771,346.609863 150.495132,344.606506 
	C153.064987,342.026367 155.635437,339.389954 157.792419,336.472290 
	C159.746231,333.829407 160.536835,330.697662 159.257584,326.419586 
	C155.734116,330.153687 152.805954,333.256927 149.425812,336.905334 
M218.030807,141.552536 
	C219.760193,139.392349 222.439285,137.974548 223.255951,135.054749 
	C222.152756,133.298309 220.404663,131.734955 218.753632,132.713898 
	C211.303711,137.131210 208.695343,144.608505 206.738464,153.586060 
	C210.780106,149.282318 214.166000,145.676849 218.030807,141.552536 
M130.480408,143.759598 
	C132.598511,141.657196 134.723557,139.561722 136.832932,137.450592 
	C139.336761,134.944641 139.453857,132.390656 137.019653,129.483612 
	C132.396896,132.009918 129.013000,135.598557 125.763756,139.321030 
	C123.912994,141.441345 125.144768,143.531662 126.439537,145.182510 
	C127.948448,147.106400 128.919235,144.971420 130.480408,143.759598 
M160.043533,138.471588 
	C161.773682,136.690506 163.425293,134.823792 165.251968,133.147934 
	C168.154953,130.484604 168.211731,127.585793 166.510773,124.265526 
	C155.950729,131.023621 152.633545,136.492538 155.743149,141.896149 
	C157.569214,141.649628 158.326431,139.984711 160.043533,138.471588 
M165.408707,136.382111 
	C162.968430,139.085251 160.554535,141.812851 158.080399,144.484634 
	C155.626892,147.134140 155.570267,149.921371 157.182953,153.036621 
	C164.950394,148.091156 168.234329,143.108551 167.635681,137.354309 
	C167.527756,136.316895 167.864029,134.607864 165.408707,136.382111 
M196.292618,331.128540 
	C196.604691,332.366974 197.236343,333.744385 198.575424,332.483185 
	C202.450165,328.833771 206.254501,325.083893 209.781982,321.103638 
	C211.261917,319.433746 209.848846,318.365601 207.997620,318.286804 
	C203.531021,318.096649 196.223862,325.705017 196.292618,331.128540 
M129.240845,149.651443 
	C129.309341,151.511719 129.582947,153.259918 131.570160,154.089523 
	C142.797287,144.953461 143.503708,144.510056 139.379227,138.697830 
	C135.823074,141.928314 132.228470,145.059372 129.240845,149.651443 
M174.108398,341.469025 
	C174.094803,343.436615 174.833313,343.979492 176.362137,342.540771 
	C178.527924,340.502625 180.617340,338.383240 182.738022,336.297211 
	C185.355957,333.722015 185.531326,330.993469 183.150513,327.548096 
	C178.623260,331.202179 173.555984,333.972473 174.108398,341.469025 
M167.548920,154.749634 
	C167.596420,152.665298 168.081223,150.550598 167.083679,148.137802 
	C163.240585,151.279053 159.809296,154.503448 157.056091,158.368774 
	C156.086578,159.729935 155.581680,161.499786 157.085571,162.893173 
	C158.779861,164.462967 160.130936,163.139648 161.351242,162.022324 
	C163.537704,160.020355 165.828171,158.101822 167.548920,154.749634 
M200.159027,157.680740 
	C200.775925,155.502350 201.960159,153.462723 201.885071,151.098419 
	C200.783081,150.855728 200.141541,151.548157 199.809097,152.191925 
	C197.978104,155.737503 195.640686,158.414597 191.859497,160.370499 
	C188.684692,162.012711 186.932953,165.501801 189.357880,170.016098 
	C193.186432,166.029617 198.296371,163.877289 200.159027,157.680740 
M136.730530,162.090561 
	C138.426254,160.527115 140.147568,158.990341 141.811829,157.394089 
	C144.464157,154.850128 144.579330,152.141159 142.169800,148.739594 
	C139.429718,151.340271 136.715530,153.506805 134.525406,156.113647 
	C132.457397,158.575134 132.160080,161.177826 136.730530,162.090561 
M177.936172,145.114410 
	C182.420471,141.462067 184.888184,137.009155 183.754425,130.532928 
	C179.329437,134.479706 174.580475,137.563889 175.398346,144.142365 
	C175.570938,145.530609 175.773376,146.541504 177.936172,145.114410 
M145.088074,331.545105 
	C144.282654,333.888031 143.477234,336.230927 142.671814,338.573853 
	C142.992188,338.721130 143.312561,338.868408 143.632950,339.015717 
	C147.696915,334.684021 151.760864,330.352325 156.043304,325.787811 
	C149.504379,322.941864 148.218170,323.659302 145.088074,331.545105 
M203.632721,172.637665 
	C202.597046,174.226151 203.601181,174.672806 204.920776,174.858459 
	C206.998413,175.150742 208.958694,174.869049 210.153259,172.925415 
	C212.792389,168.631546 215.440384,164.332016 217.359314,159.218933 
	C212.691132,163.733917 208.347824,167.934708 203.632721,172.637665 
M142.936569,168.418442 
	C145.776016,165.695389 148.506088,162.950226 144.873535,158.755890 
	C142.144714,159.960678 140.598984,162.439133 138.430710,164.153610 
	C136.614716,165.589539 136.053070,167.330429 137.505371,169.331345 
	C139.336792,171.854584 140.885910,170.219330 142.936569,168.418442 
M181.154327,341.717041 
	C179.248489,344.230164 176.064621,345.725830 174.887970,349.102173 
	C184.419418,349.498169 188.184601,345.490540 184.776093,338.967712 
	C183.312653,339.144165 182.650345,340.438965 181.154327,341.717041 
M193.217041,138.118210 
	C193.391769,139.314987 192.050369,140.506989 193.308044,141.940292 
	C197.762573,137.847137 202.328003,133.992004 201.458740,126.356041 
	C196.967560,129.371506 193.455826,132.140381 193.217041,138.118210 
M161.971725,343.270721 
	C162.032394,343.424927 162.054703,343.621185 162.164597,343.721497 
	C162.273514,343.820923 162.529129,343.914703 162.620804,343.855835 
	C168.767365,339.910004 170.415298,336.167236 168.939529,329.389618 
	C164.080444,332.548798 161.685516,336.918182 161.971725,343.270721 
M150.665588,130.355789 
	C150.336395,131.086044 150.007187,131.816299 149.459854,133.030441 
	C156.009476,132.474167 158.376572,127.548286 162.501678,123.588531 
	C154.125198,122.769402 152.251801,123.877357 150.665588,130.355789 
M207.276215,342.816162 
	C210.658096,341.404755 213.795990,339.594940 216.563538,337.169983 
	C218.863907,335.154388 219.294510,333.157654 216.344131,330.866211 
	C212.932190,334.483521 209.537537,338.043335 206.202881,341.658508 
	C205.678970,342.226501 204.315826,343.524841 207.276215,342.816162 
M179.751892,167.193253 
	C180.446747,163.875610 185.833557,163.168808 184.631287,158.882065 
	C181.055893,158.912674 177.996017,159.864899 176.034286,162.937653 
	C175.072891,164.443512 174.866486,166.203400 175.786636,167.670853 
	C176.691116,169.113327 178.093002,168.541504 179.751892,167.193253 
M179.892929,147.067032 
	C176.420013,149.930084 173.817642,153.086502 176.040726,158.044724 
	C181.686783,154.741714 183.308655,150.303482 179.892929,147.067032 
M178.550430,123.895264 
	C175.411804,126.359810 175.897034,129.450363 176.717834,133.496033 
	C178.859024,131.500610 180.481232,130.105743 181.960754,128.573120 
	C183.148758,127.342468 185.512756,126.345932 184.239548,124.180084 
	C183.118423,122.272926 181.012161,123.064735 178.550430,123.895264 
M164.470062,162.174072 
	C162.790558,164.446243 159.734573,165.674118 158.991364,168.918396 
	C167.890045,169.121918 169.046661,167.814087 166.856018,160.114288 
	C166.158798,160.690033 165.539658,161.201294 164.470062,162.174072 
M218.725204,173.774429 
	C218.447632,174.714401 217.325974,175.536179 218.424957,177.137405 
	C222.602936,171.345306 227.093872,166.177124 229.705902,159.711502 
	C224.125626,162.637115 222.478882,168.626404 218.725204,173.774429 
M135.956665,321.786621 
	C136.707230,320.762146 137.990707,319.737366 136.307083,318.521973 
	C135.014725,317.589050 133.816193,317.855743 133.006210,319.265381 
	C131.476700,321.927185 129.986877,324.611816 128.480560,327.286957 
	C128.776550,327.465302 129.072556,327.643616 129.368561,327.821960 
	C131.419525,325.971466 133.470490,324.120972 135.956665,321.786621 
M180.558594,119.654526 
	C182.336899,119.400742 184.671448,120.434082 185.475433,117.308289 
	C182.435883,115.613564 179.532883,115.676048 176.594391,117.245483 
	C176.640823,119.822853 178.366165,119.492744 180.558594,119.654526 
M164.470169,346.600250 
	C163.246338,350.174347 166.476044,349.401672 167.471191,348.972198 
	C170.621750,347.612518 169.603546,344.901917 169.188828,341.517670 
	C167.359879,343.521820 166.143799,344.854370 164.470169,346.600250 
M122.131149,136.223526 
	C126.945496,137.334442 127.260948,132.743622 129.601807,130.702072 
	C126.431252,131.557724 122.629013,131.448700 122.131149,136.223526 
M189.489227,337.572876 
	C190.064713,338.501343 190.010864,340.981995 191.836716,339.388824 
	C194.486496,337.076691 192.814133,334.589142 191.483459,332.188751 
	C189.014145,333.274658 189.253632,335.122589 189.489227,337.572876 
M155.061661,343.736298 
	C154.378952,344.796631 152.973450,345.391876 152.977554,346.913025 
	C153.787872,347.960663 155.005859,348.281006 156.060516,348.001678 
	C158.485046,347.359589 158.047882,345.120026 157.822342,343.493530 
	C157.511719,341.253540 156.330231,342.710022 155.061661,343.736298 
M219.680267,318.938385 
	C218.830139,317.723450 217.505936,316.771393 216.748169,318.520966 
	C215.793777,320.724609 217.084885,322.415894 219.096466,323.411469 
	C220.998505,322.272614 220.727005,320.934448 219.680267,318.938385 
M189.572830,132.474930 
	C189.769653,130.144241 191.343201,127.894806 190.106094,124.930817 
	C187.080460,128.013535 187.945099,131.341461 187.525528,135.672424 
	C188.623718,134.117813 188.988571,133.601303 189.572830,132.474930 
M116.333160,138.342468 
	C114.697159,140.079147 115.262856,141.614975 116.895775,142.878922 
	C117.654335,143.466064 118.667465,143.033234 118.926987,142.257431 
	C119.592484,140.268021 119.602539,138.403290 116.333160,138.342468 
M123.348503,149.988266 
	C123.116333,148.169281 122.646896,146.501801 120.710472,145.714203 
	C119.024475,149.253876 119.526314,150.221909 123.348503,149.988266 
M138.092163,336.393494 
	C136.036057,337.411011 134.426956,338.785034 133.800949,341.939758 
	C137.895996,341.897217 137.473679,338.736664 138.092163,336.393494 
z"/>
<path fill="#000000" opacity="1.000000" stroke="none" 
	d="
M735.301880,113.836929 
	C734.691895,117.919083 736.780579,121.451958 735.853699,125.077110 
	C727.809082,124.979996 727.978821,125.039017 725.111084,133.285004 
	C723.867676,136.860489 724.459656,138.696899 728.046509,140.227646 
	C731.675232,141.776215 734.960449,144.129776 738.591980,146.244781 
	C741.648987,142.816330 743.483337,138.711472 745.664368,134.834854 
	C746.678162,133.032806 746.097107,131.732590 744.327209,130.717285 
	C743.066162,129.993896 741.602539,129.343185 741.269531,127.125511 
	C748.716553,122.313179 755.359192,116.126648 762.770569,110.552666 
	C760.969055,119.545540 758.961914,128.342911 758.978333,137.140884 
	C757.977600,137.465973 757.550720,137.748871 757.382690,137.638306 
	C752.257812,134.266678 749.580811,136.542664 747.276306,141.415115 
	C744.698364,146.865616 740.669495,151.454636 742.985779,158.503128 
	C744.321350,162.567398 741.709045,166.892288 739.181458,170.537231 
	C736.345337,174.627213 733.516174,178.722107 730.845642,182.581207 
	C731.261292,184.878723 732.959534,185.571487 734.152649,186.635849 
	C771.446533,219.904419 772.184204,272.713715 735.805115,306.887268 
	C730.400635,311.964142 730.470215,311.916412 734.681824,318.052216 
	C737.771606,322.553619 741.526184,326.686859 742.724304,332.298157 
	C743.113647,334.121643 743.668640,336.004028 743.046448,337.713470 
	C739.796204,346.643707 747.406128,351.668518 750.355591,358.344299 
	C751.055176,359.927765 752.577026,359.290863 753.861267,358.736511 
	C755.200073,358.158600 756.333801,356.970184 758.832764,357.409576 
	C759.221191,366.492065 760.756653,375.654480 762.815552,385.010742 
	C755.892578,378.530487 748.602295,372.808472 741.077332,367.696472 
	C741.353638,366.826477 741.353577,366.393005 741.564514,366.225830 
	C746.875000,362.016785 746.911743,362.002655 743.354431,355.864899 
	C741.954163,353.448822 741.055054,350.673828 738.254944,348.508484 
	C732.419128,353.061768 725.662048,356.145630 718.662598,358.737915 
	C716.819214,359.420593 716.028809,360.668579 716.629639,362.645386 
	C716.871643,363.441254 717.069031,364.251099 717.273376,365.057922 
	C719.283875,372.996277 719.283020,372.996490 727.403625,372.858643 
	C726.310852,381.874695 724.481079,390.779449 724.890686,400.096863 
	C720.228943,396.962250 719.374451,390.814240 714.564575,387.749725 
	C711.664062,392.405548 713.120483,397.762115 710.806458,403.500549 
	C706.054626,394.977997 702.038940,387.182678 696.819641,380.035400 
	C704.477234,376.258392 704.784668,375.463531 702.473206,366.662903 
	C700.920776,360.752350 696.174377,363.570435 692.919312,363.656891 
	C690.138916,363.730774 685.811401,362.640198 685.364624,367.930084 
	C684.583740,377.176605 684.696899,377.510681 693.743774,380.016388 
	C689.782654,388.419983 686.303345,396.928894 683.835999,407.304260 
	C680.112732,399.241302 679.494812,391.427521 674.902893,384.861633 
	C670.203735,390.934692 668.065002,397.946289 664.298584,404.317780 
	C662.072754,395.409973 660.554443,386.530701 657.349670,378.493073 
	C658.854553,376.839081 660.040894,377.627502 661.144897,377.613983 
	C661.810730,377.605835 662.605103,377.856689 663.122620,377.580536 
	C667.796509,375.086731 665.616333,370.279205 666.640747,366.562897 
	C667.318604,364.103790 665.999268,362.629333 663.203796,362.242981 
	C659.591980,361.743835 655.957703,361.036377 652.498352,359.910614 
	C649.050964,358.788727 647.034851,359.571289 646.096680,363.066040 
	C646.010925,363.385284 645.839722,363.680634 645.723022,363.992645 
	C642.835999,371.707764 642.836365,371.707916 649.953003,376.092163 
	C643.655457,382.904175 637.536621,389.747437 632.006531,397.396698 
	C631.873596,388.020355 631.876343,378.805359 630.746765,369.554993 
	C639.094116,370.166809 638.961670,370.122314 641.704895,361.957428 
	C642.839783,358.579407 642.730042,356.510345 638.989807,354.909119 
	C635.364990,353.357269 632.117737,350.923370 628.030884,348.472900 
	C625.433289,352.911072 622.876526,357.279388 620.474365,361.383636 
	C621.230591,364.601410 624.747864,364.506012 625.939453,367.556976 
	C618.468933,372.638824 611.283630,378.320343 604.445618,384.773651 
	C605.704468,375.466675 607.999146,366.592621 607.994446,357.595184 
	C608.882935,357.370483 609.317017,357.115936 609.493958,357.237030 
	C614.642151,360.759918 617.250244,358.324127 619.575378,353.511261 
	C622.214417,348.048523 626.100891,343.384918 623.940491,336.357758 
	C622.682251,332.265015 625.169006,327.992859 627.796387,324.355652 
	C630.620300,320.446289 634.994324,316.582184 635.471619,312.336304 
	C636.013855,307.512695 629.459839,305.588501 626.230225,302.191254 
	C596.303589,270.711365 597.462830,220.124222 629.006287,190.199234 
	C631.396545,187.931595 633.866516,185.747879 636.638306,183.215424 
	C633.648621,178.939560 630.805176,174.870575 627.959351,170.803284 
	C624.357483,165.655289 622.440918,160.175507 624.631653,153.889679 
	C625.280212,152.028793 625.042236,150.377853 623.880676,148.709854 
	C622.551575,146.801224 621.444519,144.734283 620.291382,142.707474 
	C616.200317,135.516861 616.208496,135.512207 608.273132,137.905670 
	C607.667786,128.657944 606.257751,119.655869 604.184998,110.561699 
	C611.414612,116.310616 618.079529,122.442772 625.644775,127.123184 
	C625.532166,127.842987 625.585388,128.367737 625.417236,128.452301 
	C619.651978,131.351898 620.355042,135.091019 623.742737,139.467239 
	C625.338623,141.528809 626.460083,143.957550 628.064392,146.673279 
	C634.535889,142.076263 641.103149,138.581482 648.229736,136.239151 
	C650.390137,135.529083 651.039551,134.089203 650.340881,131.961792 
	C650.029297,131.013214 649.757507,130.051193 649.483643,129.090683 
	C647.370911,121.682198 647.372131,121.681854 639.695068,121.955276 
	C640.701965,112.997932 642.456299,104.181168 642.196411,95.060104 
	C646.594177,98.954155 648.107605,104.740448 652.781006,108.318619 
	C655.505432,103.669785 653.622437,98.223259 656.477234,92.968056 
	C661.194641,100.623489 664.784790,108.150467 669.799011,114.898552 
	C662.553101,118.382599 662.124329,119.823372 664.474121,128.501083 
	C665.841736,133.551727 669.857300,131.874451 672.664917,131.394638 
	C675.708862,130.874451 680.585571,132.833435 681.098694,126.901283 
	C681.878479,117.885231 681.430481,116.933281 673.629456,114.811356 
	C676.943481,106.572067 680.757568,98.569458 683.194092,89.803711 
	C687.170044,96.739326 687.451904,105.365158 693.774231,110.950325 
	C695.336365,104.536285 698.683411,99.606712 701.333740,94.326035 
	C701.892273,94.372742 702.450806,94.419449 703.009338,94.466148 
	C705.050781,101.797226 707.092285,109.128304 709.106812,116.362640 
	C706.769775,118.360130 703.064758,115.804764 702.013977,118.282867 
	C700.696045,121.391121 700.644958,125.057755 700.188538,128.502136 
	C699.914124,130.572830 700.768250,132.080338 702.983643,132.526917 
	C703.309448,132.592590 703.648804,132.593872 703.972717,132.666031 
	C708.978149,133.781113 713.982117,134.902985 719.252380,136.082840 
	C720.019348,134.165878 720.827271,132.359512 721.472412,130.496780 
	C724.048401,123.059189 724.029602,123.052689 717.088989,118.861282 
	C723.260803,112.329712 729.201233,105.730957 735.293579,98.423134 
	C735.293579,103.402641 735.293579,108.382149 735.301880,113.836929 
M750.409668,215.084518 
	C747.587097,209.186630 743.994629,203.790527 739.717407,198.856552 
	C727.157776,184.368423 711.101685,176.323624 692.337280,173.457687 
	C685.909241,172.475937 685.103333,173.351624 685.106384,179.837067 
	C685.109863,187.334717 685.176819,194.832596 685.127319,202.329803 
	C685.116577,203.959686 685.712280,206.026825 682.883240,206.983643 
	C681.084900,203.372650 681.873901,199.671814 681.942200,196.173935 
	C682.019653,192.204239 680.537476,190.612320 676.629761,191.257370 
	C675.321228,191.473358 673.975891,191.497375 672.683899,191.777557 
	C639.329163,199.010666 620.030884,230.865677 628.903931,264.034637 
	C629.014465,264.447906 629.332703,264.805603 629.541626,265.167603 
	C630.786621,264.728943 630.719849,262.343353 632.656677,263.361328 
	C634.204407,266.670532 632.261780,270.547516 634.133667,273.930939 
	C639.213623,272.238403 642.872314,267.923462 648.388367,267.901062 
	C639.913391,275.289764 629.315002,279.353302 620.463440,285.962738 
	C635.868713,314.217377 676.914612,332.821411 715.147949,314.724823 
	C752.341858,297.120300 768.368286,252.632263 750.409668,215.084518 
M614.085999,274.433594 
	C615.093262,276.532013 616.078979,278.641144 617.114929,280.725311 
	C617.917480,282.339813 619.159119,282.946136 620.771851,281.895233 
	C623.787415,279.930267 627.328491,278.755890 630.088440,275.979828 
	C627.875977,272.811981 623.762756,272.099304 621.792786,269.057465 
	C623.104858,267.193878 625.351624,269.661621 626.452515,267.299377 
	C624.850830,257.946625 623.155640,248.433121 624.545837,238.453339 
	C627.952332,214.000381 648.786194,192.317673 673.343750,188.824265 
	C683.855957,187.328842 681.609802,187.307297 681.830200,178.728638 
	C681.834473,178.562302 681.810913,178.393280 681.832153,178.229645 
	C682.370850,174.081436 680.219482,172.956177 676.513000,173.339996 
	C669.525879,174.063522 662.692261,175.534210 656.240601,178.265289 
	C617.703552,194.578659 600.173340,234.083496 614.085999,274.433594 
M635.446350,348.629669 
	C643.945068,341.283539 652.838440,334.219238 655.361328,320.897430 
	C646.583862,328.642578 639.819092,336.418274 632.901489,344.040466 
	C630.442444,346.750000 632.608948,347.719818 635.446350,348.629669 
M658.742981,342.243561 
	C655.918518,345.464813 652.144226,347.841736 650.129089,351.769318 
	C649.464355,353.065033 648.691345,354.632050 650.367432,355.766602 
	C651.749390,356.701996 652.925903,355.738647 653.910645,354.858917 
	C658.234070,350.996521 662.451050,347.012939 666.826721,343.211517 
	C670.713928,339.834442 671.347717,335.684784 670.458313,330.322418 
	C666.424988,334.429596 662.833984,338.086304 658.742981,342.243561 
M730.769775,156.277588 
	C731.948914,155.106415 733.151245,153.957474 734.300903,152.758026 
	C735.533020,151.472412 737.308899,150.304672 735.319092,148.239182 
	C733.477661,146.327805 731.985718,146.818954 730.294800,148.559708 
	C725.547485,153.446915 720.611267,158.152069 715.911621,163.083496 
	C713.852478,165.244217 712.502258,167.853912 714.030457,171.797668 
	C720.251892,167.190018 725.087036,161.782867 730.769775,156.277588 
M699.456299,155.063721 
	C695.933105,157.824341 695.704468,161.583572 695.911743,166.880203 
	C703.731262,157.414902 715.234619,152.433411 716.984070,139.679672 
	C710.021301,143.288116 705.880798,149.911362 699.456299,155.063721 
M688.614624,130.813385 
	C696.250977,131.876755 697.703064,129.456635 696.937439,116.942543 
	C691.442688,115.326897 686.871399,115.572662 685.750610,117.543922 
	C684.273254,120.142387 685.656555,128.934479 688.614624,130.813385 
M673.872559,378.834869 
	C676.181030,378.530975 679.560913,380.160309 680.443665,377.098724 
	C681.565857,373.206604 682.144470,368.694305 679.915833,365.093903 
	C678.732544,363.182251 674.777710,362.460266 673.101074,363.788635 
	C669.258728,366.832947 670.702209,371.930115 669.933044,376.171478 
	C669.475464,378.694550 671.348633,378.710510 673.872559,378.834869 
M637.662170,155.190811 
	C634.784180,157.648758 634.500793,160.024048 638.127136,162.639648 
	C642.512390,158.310379 646.752380,153.922058 651.222412,149.782150 
	C654.233826,146.993164 654.227295,144.257065 652.113892,141.152466 
	C647.404663,145.725220 642.786804,150.209244 637.662170,155.190811 
M715.260315,347.725891 
	C713.186340,350.033325 712.904358,352.238464 715.488037,354.455597 
	C720.513000,349.630096 725.325989,344.900482 730.265137,340.306488 
	C733.140076,337.632446 732.390015,335.609741 729.806396,333.656189 
	C724.992065,338.296692 720.364807,342.756958 715.260315,347.725891 
M650.627686,154.232071 
	C647.822693,157.034698 645.163330,160.005615 642.172485,162.593491 
	C639.071106,165.277054 639.004333,167.611496 642.791748,170.822281 
	C646.424194,167.010406 649.855591,163.025925 653.703369,159.495255 
	C656.694519,156.750580 657.020447,154.211121 654.523865,150.745071 
	C653.283020,151.835587 652.193298,152.793289 650.627686,154.232071 
M726.324402,326.535248 
	C725.510620,325.654572 724.581909,325.566071 723.716797,326.358154 
	C719.431335,330.281677 715.289124,334.377625 711.932861,339.119568 
	C710.533569,341.096497 710.753662,343.449158 713.425537,345.378265 
	C717.862122,340.673828 722.146851,336.093506 726.478516,331.558044 
	C727.904663,330.064789 727.658936,328.608795 726.324402,326.535248 
M666.785889,330.342957 
	C667.971252,329.018829 669.563660,327.981598 669.918030,326.049042 
	C662.286194,322.802704 654.306396,331.152222 654.029907,344.113220 
	C658.642456,339.123383 662.474792,334.977570 666.785889,330.342957 
M645.779602,171.045288 
	C643.691895,172.678940 643.270935,174.564941 645.332825,176.423691 
	C647.282776,178.181580 648.744202,176.375305 649.994141,175.250183 
	C652.445129,173.043854 654.710083,170.629227 657.027832,168.277039 
	C659.570496,165.696640 659.342285,163.206436 655.841187,159.449585 
	C652.487732,163.332169 649.365906,166.946671 645.779602,171.045288 
M716.193237,321.698975 
	C714.332397,323.587860 712.507935,325.514374 710.601685,327.356323 
	C708.057678,329.814484 707.727112,332.353302 710.207642,335.397125 
	C714.368164,332.732727 716.907654,328.528137 720.467468,325.410034 
	C722.072754,324.003906 724.596008,322.365570 722.234802,319.697235 
	C719.536072,316.647308 718.409607,320.182983 716.193237,321.698975 
M686.066467,352.374603 
	C685.231201,354.589508 685.594788,356.707550 686.178223,359.138153 
	C698.700439,347.922302 700.732239,347.845825 696.915283,341.167389 
	C693.364929,344.750122 689.880798,348.266022 686.066467,352.374603 
M671.610596,146.119232 
	C668.720032,148.674652 667.307434,151.479904 670.016968,155.068314 
	C680.409851,147.155884 682.788574,143.730087 680.080688,137.507278 
	C676.765625,139.594147 674.803467,142.974030 671.610596,146.119232 
M700.231628,150.362640 
	C704.266968,146.563736 708.445068,142.888901 711.371277,138.269119 
	C710.987305,137.744949 710.918274,137.574890 710.792053,137.489349 
	C705.901855,134.176788 703.720459,138.510605 700.891968,141.007034 
	C697.702637,143.821945 697.363770,147.583740 697.802246,151.407928 
	C697.886353,152.141876 699.132935,151.210236 700.231628,150.362640 
M660.213501,132.520065 
	C661.352966,128.634384 659.555908,125.043518 659.054749,121.326920 
	C658.771912,119.229454 657.815247,118.039078 655.305725,118.784828 
	C653.027100,119.461952 651.769775,120.524895 652.399475,123.024071 
	C653.007324,125.436722 653.730164,127.823189 654.257568,130.252625 
	C654.951965,133.451218 656.667053,134.429382 660.213501,132.520065 
M692.775940,341.223267 
	C695.648132,338.251648 698.736267,335.329498 695.358521,330.754517 
	C687.272827,335.446594 684.144836,341.233368 686.496338,347.029327 
	C688.909302,345.772949 690.371033,343.498016 692.775940,341.223267 
M706.411621,363.149872 
	C706.081421,366.692139 707.362549,369.990173 707.983582,373.386139 
	C708.338135,375.324463 708.939026,376.956482 711.576294,376.147766 
	C713.799622,375.465973 715.114685,374.315735 714.513794,371.846710 
	C713.926697,369.434052 713.244812,367.044037 712.583069,364.650024 
	C711.645752,361.259094 709.780396,360.317444 706.411621,363.149872 
M632.212097,148.526199 
	C629.242798,151.336197 631.613220,153.099991 633.510315,155.465958 
	C638.465515,150.800507 643.090332,146.304016 647.664917,140.001129 
	C641.214905,141.913376 636.532593,144.192963 632.212097,148.526199 
M679.992920,150.422852 
	C675.756531,154.789322 668.502808,157.460052 671.295532,165.790558 
	C675.619934,161.483063 682.988403,159.034866 679.992920,150.422852 
M702.163818,164.570114 
	C701.057617,165.929810 699.204834,166.757599 699.054199,168.803314 
	C704.996216,172.557709 710.777100,166.582077 711.195251,154.513733 
	C708.349609,157.705887 705.503967,160.898026 702.163818,164.570114 
M692.226318,145.578720 
	C695.151855,142.692917 695.068970,139.211639 694.500488,135.376114 
	C686.482910,140.823364 684.393494,144.892838 686.322937,151.069550 
	C688.820984,150.162506 690.059265,147.891174 692.226318,145.578720 
M641.308228,330.756927 
	C644.344543,327.201202 648.390198,324.480835 650.680542,320.155792 
	C648.655396,318.563049 646.795471,316.399902 645.013855,319.160675 
	C641.631897,324.401398 638.695129,329.929443 635.573486,335.338135 
	C635.872314,335.536591 636.171204,335.735016 636.470032,335.933472 
	C637.925537,334.382904 639.381104,332.832336 641.308228,330.756927 
M664.059204,349.617004 
	C661.680237,352.049683 658.801025,354.033813 656.861145,357.095612 
	C659.806702,359.334503 662.250671,359.005402 664.758301,357.029999 
	C668.602295,354.001831 669.344421,351.850647 668.279541,345.756500 
	C666.979492,346.945160 665.771057,348.050049 664.059204,349.617004 
M717.781860,156.443634 
	C722.341614,153.286484 726.035339,149.345947 729.142578,144.841187 
	C725.094360,140.933884 722.591187,143.090897 720.966858,146.301971 
	C719.427673,149.344650 718.639404,152.767181 717.781860,156.443634 
M671.569153,142.002808 
	C673.651489,139.735138 675.733826,137.467468 678.261963,134.714401 
	C673.761414,133.918732 670.395203,133.871292 667.710022,137.218811 
	C665.500854,139.972931 667.040344,142.364182 667.768188,144.936035 
	C669.559326,144.667847 670.095886,143.280823 671.569153,142.002808 
M674.661377,358.945923 
	C678.854065,355.844360 682.624878,352.557465 680.234863,346.163940 
	C677.802795,348.516510 675.367798,350.466675 673.453186,352.837067 
	C671.509888,355.242950 671.918762,357.199677 674.661377,358.945923 
M692.327942,149.948761 
	C688.210083,153.274902 683.747559,156.435852 686.055237,163.243835 
	C691.357666,160.188354 693.749084,156.010895 692.327942,149.948761 
M676.936035,345.152100 
	C680.742615,341.998505 681.936951,338.150665 680.340393,333.224396 
	C674.375671,338.278107 673.653503,339.880707 673.735718,348.003296 
	C674.805908,347.075287 675.640869,346.351227 676.936035,345.152100 
M634.596802,320.097443 
	C632.090515,323.491394 629.703430,326.952942 628.320435,331.002930 
	C633.899048,326.512451 639.189575,321.842041 641.297546,314.073547 
	C637.108582,314.269958 636.837097,317.738678 634.596802,320.097443 
M729.870239,350.393066 
	C731.361877,349.362091 732.896973,348.387909 734.335876,347.287872 
	C737.048096,345.214264 736.692932,343.406281 733.843323,341.634613 
	C729.622620,345.283905 725.943970,349.057068 723.068481,353.722321 
	C725.124390,352.723175 727.180237,351.724030 729.870239,350.393066 
M640.862366,348.074249 
	C639.600342,349.374268 637.754883,350.554108 640.622009,352.197205 
	C642.822388,353.458221 644.402344,353.241638 645.330566,350.771118 
	C646.473572,347.729248 647.541321,344.659149 648.641602,341.601288 
	C648.305725,341.352692 647.969788,341.104095 647.633911,340.855499 
	C645.529297,343.105530 643.424744,345.355560 640.862366,348.074249 
M692.710754,357.678223 
	C692.285278,358.273529 691.314575,358.624878 691.823975,359.667572 
	C694.582031,360.463104 697.319763,360.986725 699.575623,358.548309 
	C701.598938,356.361359 699.974548,354.371765 699.353821,352.108704 
	C696.550537,353.299896 695.113403,355.598022 692.710754,357.678223 
M691.171814,329.805420 
	C692.038086,328.658752 693.548645,327.991364 693.810059,326.344818 
	C685.187683,326.536469 684.276123,327.480713 686.327515,334.113159 
	C688.449890,333.605682 689.432373,331.769989 691.171814,329.805420 
M735.891296,168.250641 
	C731.363831,171.377655 726.762878,174.452927 726.904663,180.877884 
	C730.741760,177.337311 733.897034,173.303955 735.891296,168.250641 
M720.121765,171.331787 
	C719.504761,172.213028 718.166748,173.030045 719.537170,174.210938 
	C720.536438,175.072067 721.832153,175.000397 722.642639,173.998657 
	C724.707581,171.446609 726.352722,168.645966 727.787292,164.679794 
	C724.134521,166.532562 722.556702,168.913437 720.121765,171.331787 
M659.239502,146.867706 
	C659.346313,148.643295 659.240051,150.494995 661.172852,151.928345 
	C664.712280,149.545166 663.950684,146.578552 662.754272,143.391098 
	C660.731079,143.601868 660.014404,144.871445 659.239502,146.867706 
M680.952026,165.014374 
	C680.759399,164.130402 681.303528,162.993179 680.373535,162.572739 
	C678.312927,164.459473 676.355774,166.251480 673.682739,168.698975 
	C676.981812,168.153290 680.221191,170.199417 680.952026,165.014374 
M707.619019,346.843872 
	C706.787537,344.891357 705.663269,345.435425 704.643250,346.591461 
	C702.569214,348.941956 703.937134,350.997192 704.942871,353.462433 
	C707.457764,351.746918 709.033386,350.230530 707.619019,346.843872 
M678.984863,326.455963 
	C674.320557,326.717346 675.286255,329.745972 675.686279,333.818939 
	C677.429077,330.783630 681.421326,330.473236 678.984863,326.455963 
M702.253723,340.988220 
	C702.845032,342.565460 703.899658,342.639923 704.781006,341.436951 
	C706.567871,338.997772 705.022339,336.963348 704.037415,334.723877 
	C701.222595,336.197876 701.281860,338.175140 702.253723,340.988220 
M630.169922,162.926437 
	C627.935669,164.501175 628.280151,166.198669 629.967773,167.915497 
	C630.787781,168.749741 631.808655,168.846924 632.635193,168.049011 
	C634.487671,166.260635 633.127563,164.714935 632.046448,163.250214 
	C631.803101,162.920532 631.182800,162.869125 630.169922,162.926437 
M661.348694,136.635040 
	C656.425781,136.767807 656.162842,137.188248 658.204346,142.195404 
	C659.887390,140.711624 662.363953,140.060379 661.348694,136.635040 
M734.947632,327.469940 
	C732.768555,330.085297 734.669189,331.486786 736.546753,333.294189 
	C739.187500,330.333405 739.855408,328.177460 734.947632,327.469940 
M662.302551,160.008194 
	C662.895508,161.582321 663.929443,161.606354 664.799377,160.427811 
	C666.402710,158.255676 665.248230,156.260605 664.317566,154.020889 
	C661.688721,155.367706 661.224487,157.122574 662.302551,160.008194 
M635.433899,170.503357 
	C631.236877,172.946854 634.656189,174.443756 636.027283,176.610855 
	C639.584473,174.267319 637.651367,172.469299 635.433899,170.503357 
M667.598328,168.773026 
	C667.648804,167.166489 668.038391,165.473862 666.338257,164.134109 
	C664.163208,164.917099 664.020996,166.624847 664.562012,168.460632 
	C664.995667,169.931961 665.880859,170.828339 667.598328,168.773026 
M690.311340,163.592148 
	C689.101624,164.998276 687.000427,165.785324 686.916443,168.444656 
	C690.626953,168.272873 693.034851,167.592651 690.311340,163.592148 
M701.969543,325.635376 
	C696.771179,327.105896 700.983765,329.703796 700.689697,332.293945 
	C703.624023,330.314819 702.773682,328.183746 701.969543,325.635376 
M733.713928,322.628601 
	C733.107239,321.072266 732.486267,319.098236 730.340088,320.365936 
	C728.456238,321.478668 729.815247,323.054718 730.680664,324.137573 
	C732.225281,326.070312 733.120300,324.953888 733.713928,322.628601 
z"/>
<path fill="#000000" opacity="1.000000" stroke="none" 
	d="
M548.276245,167.249359 
	C544.509216,172.742279 540.934021,177.932175 537.134460,183.447662 
	C560.244934,201.624664 571.288757,225.299301 569.116028,254.243210 
	C567.533569,275.324585 558.259521,293.145264 542.244141,307.262451 
	C511.123566,334.694458 462.335785,332.243988 433.163910,302.076508 
	C404.619720,272.558197 400.883148,216.552490 443.502411,183.283310 
	C439.575623,177.632919 435.631439,171.929871 431.658264,166.247070 
	C426.312958,158.601776 421.031219,150.909927 415.561279,143.354538 
	C410.818115,136.802994 408.954712,129.989639 412.664520,122.325981 
	C413.021393,121.588684 413.593628,120.583046 413.354767,119.986885 
	C410.623871,113.170868 406.872894,106.847717 402.372498,101.133904 
	C400.711823,99.025429 398.126801,103.148369 395.096497,102.349106 
	C394.250519,93.396973 392.558533,84.408699 389.997192,74.282021 
	C396.601410,78.732864 400.345581,84.593132 406.881531,87.511848 
	C409.028900,80.665260 406.013153,74.284660 405.889618,66.253632 
	C412.948242,73.886063 418.875763,80.810486 426.513245,86.083359 
	C420.121582,91.474533 420.110565,91.479576 423.452484,98.773888 
	C424.908508,101.951843 426.413452,105.107506 427.917877,108.262932 
	C428.054230,108.548904 428.350006,108.758850 428.823517,109.282600 
	C434.440948,107.179749 440.139435,105.046104 445.838623,102.914299 
	C446.150665,102.797569 446.467987,102.695007 446.783539,102.587807 
	C456.833008,99.173111 456.909515,99.154655 454.368500,88.629623 
	C453.680267,85.778847 453.613220,82.689087 451.761108,79.983086 
	C449.514008,80.201424 447.272034,80.419258 444.294006,80.708611 
	C446.611603,71.447823 447.833862,62.538891 448.995605,53.265038 
	C453.881531,61.037083 458.545532,68.671394 463.931610,75.575325 
	C463.486603,76.305153 463.352112,76.788132 463.150696,76.817856 
	C457.356323,77.673058 456.470581,80.951744 458.209106,86.008812 
	C459.228699,88.974640 459.714355,92.150696 460.184692,95.270714 
	C460.601898,98.038521 461.978455,98.959084 464.649841,98.484627 
	C470.877899,97.378479 477.138550,96.493217 483.487152,96.683281 
	C486.684021,96.778984 488.062714,95.324997 487.938446,92.170837 
	C487.840118,89.674629 487.887604,87.172089 487.894958,84.672424 
	C487.918671,76.582245 487.923065,76.582260 479.961212,74.253052 
	C484.319336,66.041183 487.198486,57.330074 490.407990,48.599197 
	C493.369690,57.452465 496.683960,65.900749 500.591431,73.857071 
	C500.032623,74.510704 499.854950,74.929878 499.612518,74.971436 
	C492.395142,76.208763 492.279724,76.204620 492.398376,83.809502 
	C492.459900,87.754372 490.764221,92.460152 493.283691,95.457268 
	C495.810120,98.462776 500.537231,96.368423 504.277344,96.718132 
	C514.538025,97.677551 514.547058,97.604263 516.456848,87.469521 
	C516.579895,86.816544 516.536377,86.121193 516.728455,85.493950 
	C518.303162,80.350761 518.423462,76.021782 510.280273,76.030441 
	C515.588501,67.611870 520.567444,60.105965 524.659973,50.685974 
	C527.048218,56.269051 525.732544,61.128139 527.245728,65.468201 
	C527.952454,67.495224 527.829834,69.912521 528.863953,71.701630 
	C530.608765,74.720482 533.151978,76.707649 537.155823,75.317612 
	C543.218018,73.212952 543.413330,73.404320 544.406494,79.924454 
	C544.526733,80.713722 544.548645,81.517982 544.607727,82.216103 
	C544.120911,82.514870 543.780457,82.887566 543.579285,82.823448 
	C538.014648,81.049927 535.824951,83.678383 535.026123,88.886490 
	C534.400146,92.967506 530.868896,97.204025 532.322510,100.783218 
	C533.830078,104.495323 539.482117,104.040009 543.118225,105.876366 
	C548.170471,108.427864 553.510132,110.505234 558.273987,113.504593 
	C562.548401,116.195763 564.812622,115.204247 566.720459,111.020210 
	C567.684570,108.906029 568.978943,106.941208 570.142456,104.919456 
	C574.037720,98.150681 574.040894,98.152519 568.137817,92.520218 
	C575.628723,87.305847 582.688293,81.715103 589.605774,75.538597 
	C588.672424,84.600273 586.002258,93.239265 586.116394,102.024544 
	C585.389099,102.341721 584.966309,102.667915 584.816162,102.571121 
	C578.983459,98.811295 576.274109,102.186684 574.141968,107.130249 
	C573.552917,108.496140 572.753662,109.805519 571.863586,111.001457 
	C568.320312,115.762352 566.621948,120.457436 569.331482,126.559326 
	C571.876038,132.289780 568.997070,137.639404 565.709290,142.412888 
	C560.039917,150.644226 554.223022,158.773956 548.276245,167.249359 
M434.467865,237.056656 
	C432.840149,246.541992 433.666534,255.872864 435.970551,265.005310 
	C437.765015,265.708588 437.504700,262.582520 439.547668,263.825317 
	C441.032379,266.744232 439.516876,270.447327 440.790955,273.648926 
	C446.082001,272.482300 449.744598,268.022308 455.240326,267.934235 
	C446.821991,275.360809 436.195801,279.358765 427.112366,286.127899 
	C428.232422,288.001343 428.942078,289.516571 429.940125,290.809052 
	C448.536041,314.890747 472.906860,325.901794 503.045013,320.584961 
	C532.899719,315.318054 552.921204,297.203094 561.563599,268.253296 
	C570.053833,239.813095 562.635742,214.540787 541.623230,193.722748 
	C529.168396,181.383179 513.836060,174.487473 496.145355,173.286728 
	C492.775452,173.057999 491.435730,174.068115 491.626770,177.815186 
	C492.041901,185.959076 491.931244,194.131256 491.958771,202.292145 
	C491.964325,203.943497 492.364532,205.929596 489.880890,206.960007 
	C488.085358,204.156143 488.868134,201.271332 488.846466,198.570114 
	C488.784607,190.855972 488.106537,190.206390 480.540253,191.435287 
	C479.887115,191.541367 479.254700,191.772217 478.610260,191.935532 
	C455.086578,197.896683 440.571381,212.796295 434.467865,237.056656 
M466.405273,176.982895 
	C444.483307,184.916687 428.882935,199.583618 420.706940,221.418915 
	C413.447754,240.805573 414.190002,260.202881 423.104889,279.070740 
	C423.873505,280.697479 424.327545,283.590668 427.140381,282.104492 
	C430.554718,280.300537 434.349182,278.931793 436.958557,275.898193 
	C434.856689,272.635345 430.328461,272.436951 428.904572,268.640594 
	C430.490662,267.745880 432.263428,269.398529 433.282959,267.719116 
	C432.661835,263.261383 432.058136,258.837067 431.427429,254.416580 
	C427.052948,223.756485 449.460327,193.611313 480.255493,188.857559 
	C490.231903,187.317566 488.614716,188.199982 488.829926,178.828369 
	C488.841370,178.329269 488.796753,177.826981 488.836151,177.330765 
	C489.076263,174.306122 487.661987,173.202087 484.684937,173.273193 
	C478.624359,173.417923 472.876740,174.987534 466.405273,176.982895 
M546.147339,135.648300 
	C536.470154,146.461685 526.562012,157.032974 514.909912,165.790237 
	C521.921631,157.579071 529.245300,149.685883 536.700073,141.918564 
	C544.264526,134.036911 551.958435,126.279495 560.676819,117.361839 
	C551.171265,114.338730 544.795654,105.924828 534.211792,109.419762 
	C534.107300,108.095894 535.994019,106.187309 533.233337,105.481476 
	C531.245728,104.973320 530.021606,105.792549 529.354309,107.627625 
	C529.012817,108.566681 528.275757,109.599907 528.443054,110.447334 
	C529.525330,115.929779 526.038818,120.210213 524.835144,125.076332 
	C524.550598,126.226456 523.524902,127.495094 525.128174,128.814301 
	C529.819153,124.878654 533.560242,119.809486 538.949646,116.303940 
	C539.481628,117.993942 538.883423,118.605789 538.355164,119.229019 
	C532.359863,126.301895 524.312256,131.580032 520.044617,140.176895 
	C519.777832,140.714249 519.108704,141.217590 518.520996,141.404877 
	C510.949341,143.817871 509.079834,149.682938 508.868225,156.608017 
	C510.230743,157.101685 511.053040,155.144501 512.504883,156.611511 
	C509.600494,160.387039 505.387878,163.749634 506.793243,169.601715 
	C508.489563,170.426819 510.535339,170.187637 512.304382,171.307709 
	C516.139771,173.736084 519.204468,172.666306 522.298706,169.249924 
	C528.333252,162.587006 534.512634,155.982971 541.229736,150.028839 
	C549.564453,142.640839 553.599304,132.677124 558.405151,122.967979 
	C554.484192,127.027519 550.563232,131.087051 546.147339,135.648300 
M480.104279,125.573624 
	C490.833618,119.262825 486.814331,109.046097 487.662689,99.063080 
	C481.042328,101.719849 478.500488,108.156013 472.133087,110.917877 
	C473.890869,105.833252 478.587433,104.105385 480.318878,99.947212 
	C473.850647,98.702332 470.095245,102.363075 466.252380,106.100586 
	C462.067169,110.171021 462.421539,113.444138 467.583801,115.959084 
	C465.044495,120.464668 465.044495,120.464668 467.143463,124.992638 
	C471.316254,123.152824 473.452728,118.409569 478.091675,116.872040 
	C476.920471,124.094696 464.515533,125.288818 468.973389,135.467178 
	C473.361694,132.878052 476.031616,128.962524 480.104279,125.573624 
M442.708923,129.158798 
	C439.710510,131.631592 438.509277,134.227875 442.894714,137.912582 
	C448.515167,132.079239 454.162537,126.274834 459.710846,120.377213 
	C460.308502,119.741898 460.723419,118.486252 460.555176,117.653252 
	C459.623657,113.040771 458.485291,108.470070 457.370789,103.683174 
	C452.824554,105.286461 451.490326,110.510185 446.889526,111.223602 
	C446.265717,108.152725 449.904724,107.650246 449.864227,104.657433 
	C446.266296,106.050102 442.468384,106.620232 439.965668,108.728157 
	C437.155151,111.095390 433.462402,110.709183 430.451660,112.901077 
	C432.132202,115.399261 432.112549,118.429031 434.138245,120.407707 
	C438.044098,120.092155 438.869965,114.655945 443.217896,115.236237 
	C442.431152,120.253075 433.064606,121.991783 438.134766,129.450104 
	C444.240631,124.660896 448.375214,118.622932 454.217224,114.674774 
	C454.663025,115.149597 455.108826,115.624420 455.554626,116.099243 
	C451.435059,120.285721 447.315491,124.472206 442.708923,129.158798 
M497.451782,119.892609 
	C499.438293,118.198357 500.712067,115.437798 504.585602,114.928802 
	C502.204132,119.450172 498.924713,122.064789 495.902252,124.720596 
	C492.280212,127.903183 491.742950,131.414871 493.089661,137.092743 
	C499.384674,126.828789 512.323120,122.897110 512.450500,109.545395 
	C510.911743,108.862534 510.058929,111.920578 508.473816,109.983444 
	C508.918365,108.002113 510.669617,107.092026 511.809143,105.712906 
	C512.855469,104.446472 514.510864,103.117844 512.939941,101.458641 
	C511.388336,99.819778 509.268585,99.890411 507.539673,101.389549 
	C505.532318,103.130165 503.758728,105.139320 501.762756,106.894409 
	C500.293365,108.186440 499.266388,110.338760 496.455475,110.286812 
	C497.935608,105.840233 502.584991,104.255493 504.001190,100.224045 
	C498.389038,98.756058 493.167694,100.739128 492.691559,105.200790 
	C492.041138,111.296173 492.529205,117.513031 492.529205,123.677818 
	C493.034515,123.930550 493.539825,124.183281 494.045166,124.436012 
	C495.016144,123.081329 495.987122,121.726639 497.451782,119.892609 
M528.282288,79.321854 
	C526.292419,79.716805 523.337219,76.839874 522.392395,80.514351 
	C521.077515,85.628174 520.095276,90.858406 519.424011,96.096916 
	C518.900269,100.184402 522.716370,99.390236 524.988342,100.187996 
	C527.709229,101.143402 528.432678,99.469254 528.916809,97.230865 
	C529.861511,92.863182 530.758423,88.465721 532.076233,84.204597 
	C533.046631,81.066612 531.831543,79.877892 528.282288,79.321854 
M418.508484,98.980316 
	C417.324036,97.043228 417.152435,94.503441 414.884033,92.933846 
	C414.041534,93.291847 413.118469,93.627228 412.246094,94.063957 
	C406.284210,97.048653 406.281799,97.058800 409.550873,102.854652 
	C411.430573,106.187218 413.412567,109.464928 415.199127,112.846268 
	C416.586792,115.472633 418.205048,115.918655 420.824310,114.406197 
	C423.274292,112.991501 424.953033,111.790482 423.132965,108.644501 
	C421.472412,105.774277 420.222321,102.666580 418.508484,98.980316 
M480.544830,128.050034 
	C477.884125,130.784637 475.410553,133.739716 472.514893,136.197525 
	C468.974518,139.202621 469.508881,142.301529 471.243195,145.874496 
	C482.885590,138.338165 489.355438,128.472000 486.337341,120.922318 
	C484.334869,123.420807 482.683533,125.481224 480.544830,128.050034 
M561.701416,132.263992 
	C553.979004,138.784637 550.849121,148.237152 546.121338,156.761292 
	C552.273132,151.323044 557.918518,145.467636 563.581848,139.629608 
	C566.437134,136.686234 567.563416,133.321136 566.481384,129.285507 
	C564.206787,129.030396 563.500916,130.883423 561.701416,132.263992 
M492.420135,147.773453 
	C493.977600,149.650696 494.648590,147.659042 495.316864,146.945572 
	C498.706177,143.326889 501.774292,139.386230 505.342407,135.962173 
	C508.753418,132.688843 509.264282,128.773834 508.741852,123.996819 
	C504.413361,127.634277 500.884033,131.987320 496.857361,135.817566 
	C493.483551,139.026779 491.526245,142.435165 492.420135,147.773453 
M523.313782,102.794746 
	C520.116333,101.691498 518.006592,102.815903 517.483398,106.104881 
	C516.539001,112.041656 516.210327,118.079292 514.377747,123.866592 
	C514.209534,124.397873 514.520203,125.080772 514.619568,125.770149 
	C520.469421,122.842979 527.404724,112.019783 525.258972,109.256798 
	C523.874207,109.032387 523.107422,111.500008 521.367798,110.354630 
	C521.442566,107.937881 523.500549,107.044136 524.747131,105.623695 
	C526.083008,104.101547 525.722595,103.384552 523.313782,102.794746 
M445.814453,145.851532 
	C452.246674,141.624771 456.745361,135.388641 462.006927,129.970901 
	C463.779541,128.145660 462.765472,125.376785 461.448303,123.401520 
	C456.178375,128.432053 451.187103,133.289230 446.085297,138.027420 
	C443.539612,140.391678 443.387390,142.782135 445.814453,145.851532 
M458.330963,146.817169 
	C459.632141,145.532669 460.869141,144.174179 462.247284,142.978378 
	C465.570068,140.095215 465.430847,136.814209 463.728699,133.083206 
	C463.054596,133.361694 462.489899,133.427216 462.190918,133.743713 
	C458.084900,138.090912 454.141632,142.600327 449.892334,146.800720 
	C447.112366,149.548660 447.321686,151.786575 451.093048,155.347733 
	C453.385925,152.615311 455.607513,149.967819 458.330963,146.817169 
M480.244202,140.739487 
	C478.272797,142.964630 476.383362,145.269806 474.309174,147.394638 
	C471.714111,150.053040 471.585205,152.761139 473.532990,155.807312 
	C484.815765,148.595490 489.160614,141.676941 487.040436,134.049194 
	C484.332550,135.583588 482.747772,138.146378 480.244202,140.739487 
M451.475800,158.499100 
	C451.990356,160.188095 452.140869,162.107864 454.869873,163.180756 
	C457.802246,160.089966 460.602966,156.504364 464.036499,153.691177 
	C467.718658,150.674255 467.754761,147.634506 465.641327,143.104507 
	C460.757782,148.365601 455.627380,152.557434 451.475800,158.499100 
M494.536560,151.206375 
	C491.715088,153.814560 491.973572,156.868088 493.181305,161.121094 
	C499.358948,154.171127 508.114319,149.957916 506.693115,139.846542 
	C502.989807,143.294525 499.021515,146.989197 494.536560,151.206375 
M538.615234,159.297760 
	C539.445190,157.716782 540.275208,156.135788 541.105164,154.554810 
	C540.950012,154.489914 540.794800,154.425003 540.639587,154.360107 
	C534.176880,160.976868 527.714111,167.593643 521.219482,174.243027 
	C524.565796,177.432358 527.675049,176.735123 530.144348,173.049927 
	C533.008667,168.775223 535.584473,164.307190 538.615234,159.297760 
M476.019257,157.745605 
	C473.646149,160.370010 473.126129,163.085327 475.382233,166.104446 
	C486.263123,158.864838 489.143036,154.036194 487.169525,146.890930 
	C483.672424,150.278122 480.096527,153.741653 476.019257,157.745605 
M455.384827,166.554596 
	C455.725494,168.366714 456.228638,170.995850 458.363342,170.252686 
	C462.674683,168.751755 465.535919,165.015289 468.523010,161.686234 
	C470.751007,159.203125 468.901154,156.773315 468.202271,153.517746 
	C463.340973,157.597977 458.741638,160.996872 455.384827,166.554596 
M548.650513,158.185120 
	C541.945496,164.492889 535.393005,170.906601 533.470337,180.569733 
	C541.898865,172.724991 547.330566,162.609818 554.275330,153.649033 
	C553.957825,153.362915 553.640259,153.076797 553.322754,152.790695 
	C551.930969,154.427643 550.539185,156.064590 548.650513,158.185120 
M498.251984,167.955643 
	C503.147888,164.693420 504.263214,159.847549 503.688965,154.045685 
	C500.421173,156.692947 497.623291,159.720749 494.881775,162.798752 
	C493.706665,164.118042 491.732147,165.373260 492.716431,167.408066 
	C493.734192,169.512192 495.846771,168.607941 498.251984,167.955643 
M519.200806,133.574905 
	C520.552979,131.156143 521.267822,128.654205 520.647888,125.681732 
	C514.655029,129.621109 511.196777,134.455612 511.695679,142.290848 
	C514.525940,139.448685 517.204346,137.335434 519.200806,133.574905 
M462.064972,173.679474 
	C463.933807,173.050110 465.795013,172.396988 467.672882,171.795898 
	C472.975708,170.098526 473.292572,169.024765 469.710480,163.490128 
	C466.168976,166.188690 463.043213,169.273972 460.276550,172.675400 
	C459.156982,174.051819 460.315857,174.219437 462.064972,173.679474 
M482.556763,168.781815 
	C488.097565,167.814636 489.206329,165.408707 487.023163,159.544113 
	C484.041840,162.922821 480.990631,166.380676 478.314667,169.413284 
	C478.899200,169.321335 480.344635,169.093979 482.556763,168.781815 
M429.252411,126.831055 
	C431.604431,124.095840 429.665588,122.448441 427.811890,120.334084 
	C425.607941,122.801910 421.557159,124.036285 424.422272,128.142227 
	C426.249420,130.760651 427.446716,128.210373 429.252411,126.831055 
M416.454987,131.093216 
	C413.377319,133.804947 414.564667,136.046173 416.870575,138.303741 
	C418.837738,137.510086 419.848663,136.223175 420.772980,134.881409 
	C421.808105,133.378738 420.945587,132.084290 420.170746,130.814270 
	C419.171631,129.176498 418.064972,129.708099 416.454987,131.093216 
M421.604279,138.429977 
	C418.126862,141.191330 419.018494,143.612320 422.549347,146.320389 
	C423.648285,144.294250 426.639862,143.639038 425.863556,140.730942 
	C425.446106,139.167160 424.772736,136.958557 421.604279,138.429977 
M431.906708,136.206985 
	C434.911255,133.767670 434.487946,131.328934 431.767365,128.612564 
	C429.928741,130.167709 427.253510,131.140671 427.921814,134.128922 
	C428.231506,135.513611 428.718292,138.059479 431.906708,136.206985 
M427.059753,145.978806 
	C423.641388,148.472000 423.557617,150.796982 427.359863,153.148666 
	C430.760223,150.627655 432.156708,148.272919 427.059753,145.978806 
M433.657440,144.188980 
	C435.723602,146.048340 436.724884,143.986694 437.467041,142.837921 
	C439.026886,140.423523 437.078613,138.727707 435.744080,136.299805 
	C433.724396,138.797913 430.959106,140.319611 433.657440,144.188980 
M429.417755,156.489960 
	C429.747009,158.173615 430.573914,159.484604 432.228882,160.284454 
	C435.002319,159.027603 436.064850,157.184875 433.941589,154.607300 
	C431.746216,151.942169 430.727081,154.435303 429.417755,156.489960 
M438.206177,146.707993 
	C435.873840,148.958969 436.937500,150.932465 439.034302,152.324066 
	C440.106720,153.035828 441.432373,151.831009 441.515259,150.710419 
	C441.663971,148.700134 442.397766,145.931122 438.206177,146.707993 
M422.464020,116.914963 
	C420.315063,118.121605 418.665192,119.443253 421.308472,122.140633 
	C423.400635,120.225426 426.130493,119.236008 426.313751,116.151497 
	C424.804077,115.011765 423.964722,116.107124 422.464020,116.914963 
M439.250305,163.924438 
	C438.559265,162.701767 438.343781,161.050568 436.499969,160.831863 
	C434.903625,161.724243 433.787292,162.860596 434.730682,164.784653 
	C435.220612,165.783798 435.783569,167.050217 437.052795,167.107834 
	C438.653107,167.180511 439.231476,165.946823 439.250305,163.924438 
M444.824677,159.888748 
	C446.723145,157.470123 445.279236,155.757263 443.673065,153.693909 
	C440.316681,156.523666 440.649475,158.548309 444.824677,159.888748 
M446.900665,167.301437 
	C447.662201,168.298965 448.698364,168.554291 449.240540,167.366684 
	C450.197998,165.269257 449.076019,163.595703 447.648590,162.040833 
	C444.678833,163.136597 445.472595,164.941025 446.900665,167.301437 
M442.631836,169.470490 
	C441.702118,167.949036 440.485687,167.724243 439.756042,169.401077 
	C438.669495,171.898224 440.358673,173.214676 442.205231,174.328476 
	C444.407471,173.015259 443.683960,171.516830 442.631836,169.470490 
M444.058594,178.172989 
	C444.941437,179.364365 445.213196,181.376404 447.736786,180.706863 
	C448.699921,178.799393 447.638733,177.274918 446.282074,176.243927 
	C445.027008,175.290115 444.296234,176.425537 444.058594,178.172989 
M451.206482,174.954468 
	C451.698639,175.656815 452.595184,176.461533 453.070831,175.508957 
	C454.250061,173.147476 452.817627,171.705231 450.977509,170.529129 
	C448.836395,172.050354 450.287048,173.243423 451.206482,174.954468 
z"/>
<path fill="#000000" opacity="1.000000" stroke="none" 
	d="
M538.174561,61.907509 
	C539.087097,60.683483 539.519287,59.316792 541.395813,59.259495 
	C542.495178,61.602993 541.627563,63.237679 539.358582,64.041237 
	C537.496948,64.700508 537.607422,63.423656 538.174561,61.907509 
z"/>
<path fill="#000000" opacity="1.000000" stroke="none" 
	d="
M174.849213,252.917587 
	C174.852005,248.941360 174.924423,245.445999 174.823746,241.955658 
	C174.767227,239.996353 174.852600,237.476944 171.979736,237.635422 
	C169.487839,237.772903 167.502914,239.250046 167.459595,242.061798 
	C167.421310,244.545181 167.775208,247.032684 167.901932,249.521118 
	C168.003189,251.509277 167.617172,253.361191 165.176666,253.459625 
	C162.710236,253.559082 162.860504,251.534988 162.803970,249.905731 
	C162.723236,247.579254 162.651474,245.240646 162.796494,242.921021 
	C162.990906,239.811142 162.676361,237.237015 158.266052,237.694016 
	C159.206726,233.718430 161.997589,232.951431 164.702515,233.329178 
	C167.736450,233.752914 170.555939,233.760239 173.553818,233.111847 
	C176.802353,232.409271 179.205338,233.775650 179.419983,237.409363 
	C179.792343,243.713226 180.008438,250.026611 180.258743,256.337250 
	C180.349899,258.635681 180.056549,261.074799 177.141861,261.013153 
	C174.123154,260.949280 175.044571,258.216553 174.845901,256.392761 
	C174.738510,255.407089 174.839478,254.398697 174.849213,252.917587 
z"/>
<path fill="#000000" opacity="1.000000" stroke="none" 
	d="
M715.523804,246.576477 
	C717.661682,255.198975 713.556519,260.232483 705.514709,259.348724 
	C698.907471,258.622650 695.738647,252.558975 699.359619,246.983063 
	C700.798584,244.767242 701.335388,243.259430 699.891052,240.805695 
	C697.844177,237.328674 698.683838,233.948364 701.968384,231.561249 
	C705.619141,228.907990 709.533691,228.952393 713.043213,231.769379 
	C716.141235,234.256134 716.279785,237.683624 714.074341,240.690186 
	C712.066956,243.426880 714.574402,244.519287 715.523804,246.576477 
M702.409973,250.105438 
	C701.615967,253.941971 703.771912,255.699707 707.084900,256.291687 
	C709.495911,256.722473 711.441040,255.395630 712.115601,253.178711 
	C712.992615,250.296280 710.377991,249.329636 708.569275,247.957901 
	C705.916931,245.946335 704.047363,246.608688 702.409973,250.105438 
M704.510803,237.969360 
	C706.185181,239.112656 707.675598,241.270096 710.025635,239.329025 
	C711.443420,238.157990 711.793518,236.591934 710.726685,234.945496 
	C709.721558,233.394409 708.193176,232.804321 706.470459,233.256989 
	C704.369873,233.808929 702.757324,234.854279 704.510803,237.969360 
z"/>
<path fill="#000000" opacity="1.000000" stroke="none" 
	d="
M663.797485,248.486816 
	C663.427917,245.925293 664.304138,242.724960 660.695679,242.988052 
	C657.630920,243.211517 656.127075,245.422791 656.377686,248.596634 
	C656.560120,250.906937 656.795105,253.214020 656.927917,255.527054 
	C657.030334,257.309937 656.054443,258.343842 654.340637,258.593658 
	C652.204773,258.904968 651.837158,257.414398 651.793030,255.811661 
	C651.719910,253.157013 651.585693,250.489029 651.765686,247.846298 
	C651.983093,244.652466 651.445190,242.258301 647.130737,242.655609 
	C648.399841,238.966553 651.005493,237.354935 653.712708,238.342926 
	C656.869568,239.494980 659.426575,238.756119 662.303101,238.054016 
	C665.516479,237.269730 668.081482,238.242874 668.323486,241.973083 
	C668.763672,248.756836 668.986084,255.555161 669.259583,262.348999 
	C669.344543,264.459778 668.432861,266.028595 666.171997,266.026917 
	C663.778870,266.025146 663.884277,263.979889 663.854675,262.370789 
	C663.772217,257.889618 663.815308,253.406143 663.797485,248.486816 
z"/>
<path fill="#000000" opacity="1.000000" stroke="none" 
	d="
M684.581055,226.794342 
	C686.671143,227.326645 686.399475,228.781677 686.397583,230.077805 
	C686.380920,241.378632 686.376343,252.679657 686.287170,263.979980 
	C686.275208,265.495300 686.882629,267.436340 684.679443,268.180176 
	C682.567383,267.757172 682.798828,266.054657 682.793335,264.636047 
	C682.748901,253.169144 682.750000,241.702011 682.769531,230.235001 
	C682.771729,228.932175 682.680786,227.504562 684.581055,226.794342 
z"/>
<path fill="#000000" opacity="1.000000" stroke="none" 
	d="
M522.546021,254.598404 
	C522.310242,256.784760 521.829346,258.184448 519.642151,258.403870 
	C515.041016,258.865509 510.449493,259.544556 506.054474,257.974579 
	C504.986420,255.441589 506.895508,254.400803 507.962860,253.068893 
	C510.760468,249.577667 514.162720,246.559799 516.313904,242.565918 
	C517.620789,240.139664 518.374451,237.599869 516.574036,235.057938 
	C515.638672,233.737350 514.302734,233.087296 512.673035,233.467606 
	C510.822052,233.899567 510.481110,235.092606 510.908051,236.872177 
	C511.485321,239.278198 510.377106,241.052887 507.908081,240.852264 
	C505.186218,240.631088 505.306793,238.269257 505.609070,236.224030 
	C506.303162,231.527664 511.134644,228.738342 516.290894,229.999115 
	C521.557312,231.286819 524.283142,235.980515 522.768005,240.993912 
	C521.340393,245.717560 516.988403,248.129974 513.992249,252.157867 
	C517.445740,254.148346 519.898865,253.259811 521.361389,249.936676 
	C523.757690,251.298752 522.935669,252.798523 522.546021,254.598404 
z"/>
<path fill="#000000" opacity="1.000000" stroke="none" 
	d="
M454.456848,241.836624 
	C456.386414,238.513474 458.995880,237.166382 462.437805,238.882462 
	C463.965302,239.644028 465.216095,239.346222 466.711670,238.897812 
	C473.518646,236.856705 475.061707,237.777344 475.678772,244.889221 
	C476.167450,250.521332 476.105560,256.201416 476.279724,261.860474 
	C476.349335,264.122223 475.606171,266.055054 473.073975,265.993835 
	C470.332916,265.927582 470.901428,263.468781 470.869232,261.785950 
	C470.773560,256.790375 470.894318,251.790939 470.829712,246.794327 
	C470.806274,244.979691 470.804443,242.680832 468.328583,242.621719 
	C465.815704,242.561722 463.687225,243.916840 463.508179,246.691559 
	C463.349091,249.157410 463.678131,251.666229 463.922119,254.143219 
	C464.142883,256.384552 463.821564,258.383514 461.182007,258.541290 
	C458.324310,258.712097 458.859314,256.288940 458.777496,254.577606 
	C458.674255,252.416733 458.514099,250.212555 458.814606,248.088776 
	C459.311371,244.578110 457.917175,242.722382 454.456848,241.836624 
z"/>
<path fill="#000000" opacity="1.000000" stroke="none" 
	d="
M492.322113,253.991516 
	C492.320831,259.029266 492.320831,263.568848 492.320831,268.818420 
	C487.639343,265.533722 487.549805,229.869522 491.789307,226.558746 
	C492.891571,235.822464 492.044556,244.683533 492.322113,253.991516 
z"/>
<path fill="#000000" opacity="1.000000" stroke="none" 
	d="
M536.678345,129.678589 
	C541.932800,124.468697 546.938904,119.510368 551.945007,114.552040 
	C552.420959,115.038086 552.896912,115.524139 553.372864,116.010185 
	C541.873230,127.897995 530.373535,139.785812 518.873901,151.673615 
	C518.430725,151.257645 517.987610,150.841675 517.544434,150.425705 
	C523.118835,142.959152 529.864441,136.523926 536.678345,129.678589 
z"/>
</svg>