<svg version="1.1" id="Layer_1" xmlns="http://www.w3.org/2000/svg" xmlns:xlink="http://www.w3.org/1999/xlink" x="0px" y="0px"
	 width="100%" viewBox="0 0 100 100" enable-background="new 0 0 100 100" xml:space="preserve">
<path fill="#2A2A2A" opacity="1.000000" stroke="none" 
	d="
M101.000000,3.000000 
	C101.000000,35.020893 101.000000,67.041786 100.531342,99.532684 
	C67.041786,100.001785 34.020893,100.000893 1.000000,100.000000 
	C1.000000,67.979103 1.000000,35.958210 1.468656,3.467315 
	C34.958206,2.998210 67.979103,2.999105 101.000000,3.000000 
M94.565903,38.727402 
	C94.944641,38.917801 95.323387,39.108204 95.623322,40.195175 
	C94.879494,48.774261 97.275948,57.567841 92.943359,65.992432 
	C63.021393,65.992432 33.099430,65.992432 3.177465,65.992432 
	C3.147486,66.556816 3.117508,67.121193 3.087530,67.685577 
	C4.600630,67.788666 6.113485,67.976654 7.626869,67.981010 
	C17.115091,68.008331 26.603428,67.992638 36.091728,67.995094 
	C55.567692,68.000130 75.043938,68.051208 94.519051,67.926079 
	C95.974785,67.916725 97.422455,66.653816 99.018539,65.064339 
	C98.873177,61.790611 99.588707,58.156494 98.400932,55.319145 
	C96.021935,49.636234 96.830360,44.221031 97.873413,38.614872 
	C98.211914,36.795444 98.998756,34.617508 98.325272,33.199913 
	C97.838844,32.176029 95.277351,32.137985 93.627800,31.656315 
	C93.627800,33.489025 93.627800,34.725166 93.163574,36.167217 
	C92.995766,36.638256 92.827950,37.109295 92.183334,38.622562 
	C92.777390,38.727894 93.371437,38.833225 94.565903,38.727402 
M41.740211,50.155144 
	C43.542282,49.146675 45.344353,48.138210 47.600292,46.875748 
	C44.831802,42.053562 53.655590,41.215080 53.661896,35.165112 
	C48.935730,40.209213 44.920082,44.494999 40.191273,48.355419 
	C39.986439,43.118683 39.781601,37.881947 39.576767,32.645210 
	C39.188934,32.675354 38.801105,32.705502 38.413277,32.735645 
	C38.413277,42.105698 38.413277,51.475750 38.413277,60.845802 
	C38.685043,60.847477 38.956810,60.849148 39.228577,60.850822 
	C39.862122,57.412544 40.495667,53.974262 41.740211,50.155144 
M88.942024,43.743553 
	C87.220055,46.485687 85.498085,49.227825 83.516403,52.383541 
	C79.247154,45.240776 75.323776,38.676685 71.400398,32.112598 
	C71.051743,32.287285 70.703094,32.461971 70.354439,32.636658 
	C70.354439,42.042282 70.354439,51.447910 70.354439,60.853535 
	C70.792679,60.862854 71.230911,60.872169 71.669151,60.881489 
	C71.669151,53.472485 71.669151,46.063484 71.669151,38.654484 
	C75.708786,43.322384 78.688461,48.196175 81.452393,53.189392 
	C82.855003,55.723297 83.846153,56.036697 85.353836,53.315498 
	C87.014633,50.317940 88.891968,47.440350 91.171257,43.786289 
	C91.234337,43.075474 91.297409,42.364662 91.360497,41.653851 
	C90.691849,42.164902 90.023209,42.675949 88.942024,43.743553 
M23.468426,43.486111 
	C25.294748,37.430920 23.605328,33.178123 18.650295,32.728306 
	C13.603925,32.270195 8.483572,32.627022 3.405944,32.627022 
	C3.859077,40.641495 4.318020,48.874825 4.797025,57.106991 
	C4.869813,58.357925 5.035689,59.603443 5.154294,60.808651 
	C10.005268,60.808651 14.471829,60.808651 19.661882,60.873325 
	C26.981003,57.721844 28.064972,52.361858 22.143961,47.198448 
	C22.143961,47.198448 21.807405,47.060062 21.696295,46.379204 
	C22.147423,45.599442 22.598551,44.819675 23.468426,43.486111 
M91.521141,40.991550 
	C91.557419,40.697659 91.593697,40.403763 91.629982,40.109871 
	C91.436607,40.237961 91.243225,40.366051 91.521141,40.991550 
z"/>
<path fill="#FFFFFF" opacity="1.000000" stroke="none" 
	d="
M101.000000,2.500000 
	C67.979103,2.999105 34.958206,2.998210 1.468656,2.998657 
	C0.387769,-0.085014 2.730436,1.037810 4.000101,1.034058 
	C21.166616,0.983321 38.333332,1.000000 55.500000,1.000000 
	C69.833336,1.000000 84.166733,0.983278 98.499825,1.042731 
	C99.334526,1.046193 100.166664,1.666668 101.000000,2.500000 
z"/>
<path fill="#FFFFFF" opacity="1.000000" stroke="none" 
	d="
M1.000000,100.500000 
	C34.020893,100.000893 67.041786,100.001785 100.531342,100.001343 
	C99.674873,100.333328 98.350243,100.955460 97.024559,100.957710 
	C65.016441,101.011963 33.008209,101.000000 1.000000,100.500000 
z"/>
<path fill="#D0D0D0" opacity="1.000000" stroke="none" 
	d="
M98.873878,65.973648 
	C97.422455,66.653816 95.974785,67.916725 94.519051,67.926079 
	C75.043938,68.051208 55.567692,68.000130 36.091728,67.995094 
	C26.603428,67.992638 17.115091,68.008331 7.626869,67.981010 
	C6.113485,67.976654 4.600630,67.788666 3.087530,67.685577 
	C3.117508,67.121193 3.147486,66.556816 3.177465,65.992432 
	C33.099430,65.992432 63.021393,65.992432 93.820190,66.011047 
	C96.089302,66.010994 97.481590,65.992317 98.873878,65.973648 
z"/>
<path fill="#DEDEDE" opacity="1.000000" stroke="none" 
	d="
M18.938391,60.808651 
	C14.471829,60.808651 10.005268,60.808651 5.154294,60.808651 
	C5.035689,59.603443 4.869813,58.357925 4.797025,57.106991 
	C4.318020,48.874825 3.859077,40.641495 3.405944,32.627022 
	C8.483572,32.627022 13.603925,32.270195 18.650295,32.728306 
	C23.605328,33.178123 25.294748,37.430920 22.995621,43.659443 
	C22.317722,43.518265 22.112629,43.203751 21.984337,42.553673 
	C23.592861,34.380951 18.796265,33.144012 7.134405,34.716934 
	C7.134405,38.212448 7.134405,41.753883 7.134405,46.134716 
	C11.569115,45.727608 15.757728,45.343094 20.198490,45.117554 
	C20.902895,45.871040 21.355150,46.465553 21.807404,47.060062 
	C21.807405,47.060062 22.143961,47.198448 22.123646,47.660011 
	C22.077053,48.350422 22.050777,48.579266 21.667568,48.657089 
	C16.659737,48.034672 12.008838,47.563271 7.226195,47.078518 
	C7.226195,51.670994 7.226195,55.332691 7.226195,59.299202 
	C11.056996,59.299202 14.505168,59.299202 18.061108,59.498161 
	C18.425381,60.067635 18.681885,60.438141 18.938391,60.808651 
z"/>
<path fill="#D3D3D3" opacity="1.000000" stroke="none" 
	d="
M90.674965,44.510494 
	C88.891968,47.440350 87.014633,50.317940 85.353836,53.315498 
	C83.846153,56.036697 82.855003,55.723297 81.452393,53.189392 
	C78.688461,48.196175 75.708786,43.322384 71.669151,38.654484 
	C71.669151,46.063484 71.669151,53.472485 71.669151,60.881489 
	C71.230911,60.872169 70.792679,60.862854 70.354439,60.853535 
	C70.354439,51.447910 70.354439,42.042282 70.354439,32.636658 
	C70.703094,32.461971 71.051743,32.287285 71.400398,32.112598 
	C75.323776,38.676685 79.247154,45.240776 83.516403,52.383541 
	C85.498085,49.227825 87.220055,46.485687 89.470276,43.804245 
	C90.224007,44.080124 90.449486,44.295311 90.674965,44.510494 
z"/>
<path fill="#CECECE" opacity="1.000000" stroke="none" 
	d="
M41.129211,50.535984 
	C40.495667,53.974262 39.862122,57.412544 39.228577,60.850822 
	C38.956810,60.849148 38.685043,60.847477 38.413277,60.845802 
	C38.413277,51.475750 38.413277,42.105698 38.413277,32.735645 
	C38.801105,32.705502 39.188934,32.675354 39.576767,32.645210 
	C39.781601,37.881947 39.986439,43.118683 40.607857,49.006416 
	C41.059368,49.950264 41.094288,50.243122 41.129211,50.535984 
z"/>
<path fill="#EFEFEF" opacity="1.000000" stroke="none" 
	d="
M98.946213,65.518990 
	C97.481590,65.992317 96.089302,66.010994 94.280075,65.997147 
	C97.275948,57.567841 94.879494,48.774261 95.809311,39.388527 
	C95.206139,37.708351 94.416969,36.834827 93.627800,35.961304 
	C93.627800,34.725166 93.627800,33.489025 93.627800,31.656315 
	C95.277351,32.137985 97.838844,32.176029 98.325272,33.199913 
	C98.998756,34.617508 98.211914,36.795444 97.873413,38.614872 
	C96.830360,44.221031 96.021935,49.636234 98.400932,55.319145 
	C99.588707,58.156494 98.873177,61.790611 98.946213,65.518990 
z"/>
<path fill="#DBDBDB" opacity="1.000000" stroke="none" 
	d="
M41.434711,50.345566 
	C41.094288,50.243122 41.059368,49.950264 40.964439,49.219101 
	C44.920082,44.494999 48.935730,40.209213 53.661896,35.165112 
	C53.655590,41.215080 44.831802,42.053562 47.600292,46.875748 
	C45.344353,48.138210 43.542282,49.146675 41.434711,50.345566 
z"/>
<path fill="#BFBFBF" opacity="1.000000" stroke="none" 
	d="
M19.300137,60.840988 
	C18.681885,60.438141 18.425381,60.067635 18.427021,59.367844 
	C24.138784,56.526001 24.702908,54.797741 22.024502,48.808113 
	C22.050777,48.579266 22.077053,48.350422 22.236502,47.802731 
	C28.064972,52.361858 26.981003,57.721844 19.300137,60.840988 
z"/>
<path fill="#AAAAAA" opacity="1.000000" stroke="none" 
	d="
M93.395691,36.064262 
	C94.416969,36.834827 95.206139,37.708351 95.848717,38.940239 
	C95.323387,39.108204 94.944641,38.917801 94.117218,38.546509 
	C93.332397,38.103851 92.996262,37.842091 92.660133,37.580330 
	C92.827950,37.109295 92.995766,36.638256 93.395691,36.064262 
z"/>
<path fill="#A7A7A7" opacity="1.000000" stroke="none" 
	d="
M21.907536,42.889240 
	C22.112629,43.203751 22.317722,43.518265 22.786247,43.936344 
	C22.598551,44.819675 22.147423,45.599442 21.751850,46.719635 
	C21.355150,46.465553 20.902895,45.871040 20.346413,44.869530 
	C20.797304,43.938107 21.352421,43.413673 21.907536,42.889240 
z"/>
<path fill="#D3D3D3" opacity="1.000000" stroke="none" 
	d="
M89.676544,43.525970 
	C90.023209,42.675949 90.691849,42.164902 91.360489,41.653847 
	C91.297409,42.364662 91.234337,43.075474 90.923111,44.148392 
	C90.449486,44.295311 90.224007,44.080124 89.676544,43.525970 
z"/>
<path fill="#D3D3D3" opacity="1.000000" stroke="none" 
	d="
M91.285492,40.742844 
	C91.243225,40.366051 91.436607,40.237961 91.629974,40.109871 
	C91.593697,40.403763 91.557419,40.697659 91.285492,40.742844 
z"/>
<path fill="#D3D3D3" opacity="1.000000" stroke="none" 
	d="
M92.421738,38.101448 
	C92.996262,37.842091 93.332397,38.103851 93.817009,38.652084 
	C93.371437,38.833225 92.777390,38.727894 92.421738,38.101448 
z"/>
<path fill="#2B2B2B" opacity="1.000000" stroke="none" 
	d="
M21.667568,48.657089 
	C24.702908,54.797741 24.138784,56.526001 18.319252,59.168884 
	C14.505168,59.299202 11.056996,59.299202 7.226195,59.299202 
	C7.226195,55.332691 7.226195,51.670994 7.226195,47.078518 
	C12.008838,47.563271 16.659737,48.034672 21.667568,48.657089 
z"/>
<path fill="#323232" opacity="1.000000" stroke="none" 
	d="
M21.984337,42.553673 
	C21.352421,43.413673 20.797304,43.938107 20.094265,44.710556 
	C15.757728,45.343094 11.569115,45.727608 7.134405,46.134716 
	C7.134405,41.753883 7.134405,38.212448 7.134405,34.716934 
	C18.796265,33.144012 23.592861,34.380951 21.984337,42.553673 
z"/>
</svg>