<svg version="1.1" id="Layer_1" xmlns="http://www.w3.org/2000/svg" xmlns:xlink="http://www.w3.org/1999/xlink" x="0px" y="0px"
	 width="100%" viewBox="0 0 1024 512" enable-background="new 0 0 1024 512" xml:space="preserve">
<path fill="#000000" opacity="1.000000" stroke="none" 
	d="
M837.938660,259.921570 
	C838.501770,255.218201 834.413330,252.603317 833.845276,249.232925 
	C832.733459,242.636505 828.157532,238.954025 824.260437,234.570251 
	C818.403931,227.982513 808.455139,228.835358 803.591675,236.476578 
	C801.378784,239.953415 798.682800,241.874603 794.528687,241.122467 
	C790.670715,240.423965 787.754883,236.573242 788.051147,232.782639 
	C788.382446,228.543961 791.669067,225.267105 796.155579,225.764587 
	C800.057495,226.197235 803.231140,225.034882 806.636597,223.593994 
	C811.620605,221.485214 813.118042,217.616882 812.674805,212.762085 
	C812.389099,209.632141 811.537415,206.552841 810.920654,203.454559 
	C810.615540,201.921997 810.125061,200.490829 808.245605,200.324707 
	C806.554932,200.175232 805.350952,201.042786 804.563904,202.435959 
	C802.796875,205.563751 800.335205,207.503891 796.585876,207.545334 
	C791.626038,207.600159 787.643616,203.580551 787.848694,198.656723 
	C788.060791,193.564682 792.714844,189.742081 797.779114,190.539795 
	C798.593567,190.668091 799.400940,190.930344 800.170654,191.234253 
	C801.535095,191.772980 802.853516,191.766312 803.867859,190.672852 
	C805.090576,189.354706 804.101990,188.075638 803.311157,187.101669 
	C800.035217,183.067184 797.927795,178.032440 792.093689,176.328842 
	C788.471436,175.271133 786.762329,171.761978 787.124512,167.921783 
	C787.492493,164.020905 789.906494,161.371140 793.790283,160.861984 
	C798.369873,160.261642 800.317871,157.785889 801.082397,153.439789 
	C801.745117,149.673401 804.286865,147.225128 808.248291,146.822159 
	C811.765198,146.464386 814.385193,148.109756 816.044312,151.156906 
	C817.730774,154.254395 817.327637,157.259079 815.248108,160.059113 
	C813.742615,162.086166 811.438416,162.576248 809.192749,163.242386 
	C803.842468,164.829376 802.195068,169.455688 805.307983,174.105286 
	C806.326355,175.626465 807.471069,177.064026 808.576843,178.525543 
	C815.001038,187.017029 824.733032,186.607666 830.576904,177.604553 
	C833.443237,173.188660 837.437561,171.794159 841.635681,173.743820 
	C845.636597,175.601868 847.572021,180.043427 846.185303,184.184662 
	C844.764648,188.427216 840.849976,190.493317 835.812927,189.659027 
	C826.002258,188.034073 818.506592,195.783936 820.602234,205.391159 
	C820.814514,206.364578 821.168518,207.317642 821.279846,208.300201 
	C821.474304,210.017044 821.723328,211.817352 823.564148,212.392426 
	C825.730164,213.069077 826.262573,210.962723 827.216248,209.704514 
	C829.115173,207.199356 831.653137,206.499039 834.701233,206.638077 
	C842.820618,207.008469 849.339417,203.693771 854.407837,197.491425 
	C857.171387,194.109619 860.525024,192.759598 864.530823,194.589096 
	C868.076843,196.208618 869.846313,199.317032 868.828979,203.197800 
	C867.737427,207.361633 864.893188,209.401154 860.327881,209.333221 
	C852.032776,209.209778 844.976868,212.125427 839.745911,218.816071 
	C837.859741,221.228470 835.400085,222.332535 832.346191,222.207687 
	C830.729004,222.141556 828.945374,221.653046 827.467651,224.517685 
	C831.272644,228.524078 834.986206,233.215195 839.500671,236.934082 
	C842.948425,239.774246 849.615662,236.962311 851.455566,232.300735 
	C853.005920,228.372696 855.639343,226.352432 859.727234,226.317703 
	C864.243103,226.279312 868.046753,230.111404 868.154602,234.555496 
	C868.257629,238.806870 864.580688,242.708572 860.019470,243.187790 
	C848.998413,244.345703 846.316162,247.729599 847.145996,258.943085 
	C847.612244,265.243134 848.006226,271.433990 852.274231,276.678497 
	C854.007202,278.807922 855.324585,281.166443 857.888245,277.954224 
	C860.860168,274.230316 864.349731,272.046661 869.142212,273.812256 
	C873.856201,275.548950 875.466187,279.381805 875.310059,284.159180 
	C875.289062,284.802826 875.242981,285.516510 876.652954,286.149475 
	C880.453491,282.710480 885.877991,280.689819 887.606445,274.526978 
	C888.914673,269.862213 892.942810,267.853851 897.792114,268.736084 
	C901.685974,269.444489 904.423462,272.939331 904.279480,277.018311 
	C904.117554,281.606598 900.977051,284.682098 895.903442,285.267731 
	C889.711609,285.982422 885.904419,290.356323 882.685669,294.877838 
	C880.775391,297.561218 880.729004,301.269379 884.239197,303.920563 
	C886.834717,303.536652 889.101013,301.234283 892.117981,301.826538 
	C895.111267,302.414154 897.113342,304.076599 898.611877,306.754333 
	C901.284912,311.530670 904.995789,313.043884 909.294922,310.236786 
	C913.179626,307.700256 917.310913,304.926605 918.064941,299.400513 
	C918.685913,294.849274 922.689026,291.884216 926.942200,292.436432 
	C931.029297,292.967102 933.622620,295.345673 934.162231,299.539001 
	C934.720093,303.874115 932.021179,307.182922 927.171997,308.342072 
	C917.947693,310.546967 913.620911,320.799347 918.566589,328.673981 
	C920.338623,331.495392 922.023926,334.371216 923.757568,337.216919 
	C924.800232,338.928528 925.746582,340.908325 928.210876,340.603333 
	C930.584839,340.309509 932.029907,338.805145 932.743835,336.516663 
	C933.817688,333.074432 936.399475,331.308228 939.811951,331.125305 
	C942.809326,330.964600 945.292969,332.296356 946.803772,335.089081 
	C949.443420,339.968231 946.628662,345.449890 941.035095,346.326538 
	C939.330627,346.593689 937.299866,345.788239 936.014160,347.812836 
	C936.948425,349.974182 938.628784,349.134979 940.215393,348.969879 
	C945.266357,348.444183 949.230408,350.930847 950.082153,355.303467 
	C950.878479,359.391357 949.386475,362.522461 945.502075,364.274506 
	C941.307922,366.166260 937.514587,364.600403 934.717346,359.920410 
	C931.700562,354.873199 926.816650,354.278503 922.845215,358.640472 
	C919.369324,362.458099 916.086914,366.451935 912.723267,370.371582 
	C909.713867,373.878571 909.305664,377.400146 912.453369,381.120819 
	C914.926941,384.044678 917.092224,387.237213 919.653503,390.076782 
	C922.067078,392.752594 925.202759,392.397644 926.383179,389.173859 
	C928.086243,384.522369 930.956055,382.160980 935.830505,383.498199 
	C939.656555,384.547882 941.661438,387.574982 941.131287,391.497559 
	C940.491943,396.227203 937.173889,398.136353 932.587830,398.099854 
	C931.738342,398.093079 930.934570,398.243835 930.201172,399.346588 
	C931.475403,402.428467 934.351501,401.556335 936.802734,401.782196 
	C941.799866,402.242645 944.965576,406.248505 944.242310,411.102112 
	C943.591309,415.470245 939.446960,418.228271 934.986084,417.189819 
	C932.392639,416.586151 930.361084,415.057281 929.466492,412.560364 
	C928.370911,409.502808 926.907410,406.633820 923.251038,407.483734 
	C919.521362,408.350830 917.842773,411.573303 917.266724,415.249268 
	C917.139160,416.063171 917.336792,416.928284 917.207336,417.741638 
	C916.553101,421.853149 914.204102,424.641205 910.013184,424.766907 
	C905.866638,424.891266 903.160461,422.320221 902.229065,418.303925 
	C901.293518,414.270172 903.161621,411.363251 906.867188,410.001129 
	C914.293213,407.271423 916.591797,398.580292 911.156860,393.254761 
	C908.794189,390.939728 907.120300,387.931488 904.815491,385.545410 
	C901.365173,381.973480 897.344543,382.895203 895.356140,387.468964 
	C893.118225,392.616638 890.009460,394.682373 885.992676,393.496948 
	C881.813110,392.263489 879.559021,389.430084 879.761292,384.994629 
	C879.955383,380.739685 883.196594,378.042084 888.362122,377.781036 
	C890.212585,377.687531 892.596191,378.010132 892.900635,375.782349 
	C893.249756,373.227997 890.682983,372.331543 888.740601,371.521484 
	C887.724670,371.097778 886.429749,371.397614 885.283936,371.220917 
	C881.311707,370.608551 879.007080,368.319092 878.729065,364.258850 
	C878.447449,360.147888 880.505920,357.592773 884.401855,356.599854 
	C888.438721,355.571136 891.396545,357.356598 892.857422,360.975708 
	C893.774719,363.247986 894.792664,365.085510 896.899536,366.385712 
	C900.209717,368.428436 903.065125,368.432404 905.675964,365.187805 
	C908.808472,361.294922 912.011780,357.452972 915.325439,353.713867 
	C917.778076,350.946350 918.153320,347.918060 917.328918,344.559875 
	C915.687927,344.115326 915.131470,345.471893 914.207092,346.041504 
	C908.806213,349.369690 903.858093,348.063110 900.815796,342.442902 
	C897.266541,335.886108 891.094482,334.916412 885.817749,340.117706 
	C882.998779,342.896301 880.034302,345.391235 879.479004,349.888794 
	C878.907959,354.514984 875.520874,356.732147 870.931091,356.544769 
	C866.490051,356.363434 863.728577,353.705322 863.199524,349.426514 
	C862.633301,344.847229 865.075317,341.780060 869.445618,340.444977 
	C876.401672,338.319946 880.706482,333.892517 882.081787,326.653839 
	C882.343994,325.273865 882.380859,324.066193 881.774414,322.795807 
	C879.193665,317.389221 876.778748,311.898865 874.046814,306.570587 
	C871.854492,302.294830 870.319885,302.228943 867.484558,305.907410 
	C865.663086,308.270508 863.372437,309.780273 860.369568,310.056702 
	C851.221985,310.898712 847.353333,319.142548 839.607788,323.456177 
	C844.441223,326.062408 845.736755,323.139252 847.484619,321.145264 
	C850.296387,317.937653 853.906067,316.979828 857.906006,318.117462 
	C861.957764,319.269806 864.367493,322.220673 865.074768,326.313904 
	C865.766602,330.317932 863.978333,333.487427 860.874634,335.866974 
	C857.632385,338.352661 854.091675,338.141113 850.467712,336.661011 
	C846.908691,335.207397 835.215942,337.627380 832.682983,340.275879 
	C829.286316,343.827545 828.407043,357.469910 831.312378,361.542847 
	C834.065002,365.401947 834.138489,370.192047 831.380005,373.588409 
	C828.405884,377.250153 824.483826,378.290619 820.165466,376.721741 
	C815.808105,375.138641 813.642029,371.743500 813.741516,367.035767 
	C813.755493,366.374939 813.660095,365.499817 814.025757,365.090515 
	C818.838867,359.701904 817.757019,354.650726 813.679504,349.352905 
	C812.172729,347.395233 813.588257,344.880310 814.105408,342.608063 
	C814.901245,339.110779 812.395630,336.254120 808.940186,336.448578 
	C797.390442,337.098511 796.451416,336.503510 792.848145,325.759857 
	C786.811279,328.406219 779.839172,328.486908 775.495667,335.008179 
	C773.381104,338.183105 769.606689,340.104858 768.742004,344.450439 
	C768.187134,347.238586 767.608826,349.607819 768.679321,352.572510 
	C771.104675,359.289368 765.433716,365.237091 758.001587,364.855743 
	C751.350403,364.514526 744.429810,363.412018 738.441284,367.838654 
	C737.381958,368.621704 736.045166,369.199249 735.313721,370.215210 
	C734.283386,371.646515 732.903259,373.304108 733.644958,375.205109 
	C734.418945,377.188782 736.470825,376.567352 738.063721,376.581146 
	C741.916138,376.614563 744.349121,378.457275 745.384827,382.126678 
	C746.498596,386.072784 744.839111,388.907440 741.654297,391.083069 
	C739.741943,392.389404 735.515076,392.461700 738.189148,396.400635 
	C740.365234,399.606018 743.653503,400.744354 747.381287,398.911041 
	C748.703369,398.260864 749.733398,397.038940 751.020630,396.291260 
	C754.987854,393.986908 759.644470,394.711365 762.346313,397.943390 
	C765.040833,401.166626 765.048279,406.235413 762.363403,409.486084 
	C759.284302,413.213959 754.963379,413.960571 750.781799,411.485565 
	C750.638733,411.400848 750.497437,411.308868 750.369995,411.202637 
	C748.166626,409.365936 745.163696,407.845245 743.412659,410.490387 
	C741.696106,413.083435 744.305664,415.132935 746.718384,416.696350 
	C752.505127,420.446014 752.938232,427.552795 747.708679,431.224121 
	C744.755249,433.297424 741.603577,433.938843 738.403381,431.763672 
	C735.262207,429.628601 733.348938,426.732758 734.503418,422.846954 
	C735.345459,420.012482 735.022888,417.625763 733.249512,415.366943 
	C732.151550,413.968475 730.560608,412.809326 728.937500,413.477631 
	C724.142029,415.452118 718.651672,416.200989 715.736816,421.569397 
	C713.601868,425.501465 710.110413,427.765137 705.325256,426.481079 
	C700.680481,425.234741 697.944824,420.576508 699.014893,416.027466 
	C700.212463,410.936737 704.759644,407.980621 709.922852,408.936371 
	C715.500366,409.968842 725.071594,405.336365 726.687927,400.108948 
	C728.653564,393.751892 726.350891,387.503540 723.476685,382.055939 
	C721.651062,378.595886 716.867737,380.468018 714.341370,381.777161 
	C709.919922,384.068329 705.302673,386.660339 703.508667,392.185486 
	C701.923584,397.066803 697.855530,399.265137 693.416565,398.116455 
	C689.569275,397.120941 687.558533,394.559021 687.610657,390.466614 
	C687.670959,385.726715 690.463440,382.664093 695.588135,381.839355 
	C702.415039,380.740631 709.071533,374.720825 710.557312,368.412994 
	C711.090393,366.150146 710.896912,363.941040 709.430603,362.261353 
	C707.724854,360.307404 706.108398,362.427124 704.528870,362.981445 
	C698.945312,364.940887 695.335205,363.183228 690.704773,355.941132 
	C686.301086,357.702576 681.976685,359.231323 679.558838,364.156219 
	C677.545166,368.257996 672.376099,369.532318 668.231812,367.771576 
	C664.433777,366.157990 662.329895,361.856018 663.406372,357.904663 
	C664.665710,353.282074 668.811401,350.512329 673.630127,351.074127 
	C680.263550,351.847443 690.197998,345.663849 691.903442,339.335663 
	C692.634521,336.622864 692.351868,333.707092 690.146912,331.418701 
	C688.735413,329.953705 687.737915,328.329681 687.534668,326.181305 
	C686.260559,312.713501 671.327942,303.867828 658.769836,309.015015 
	C656.912109,309.776459 655.984680,311.100037 654.985107,312.713898 
	C652.273926,317.091431 647.135010,318.414062 642.803101,316.111572 
	C638.644409,313.901093 636.516663,307.909363 638.348328,303.566772 
	C640.184326,299.213867 645.366577,296.848541 649.962708,298.265564 
	C657.338013,300.539551 658.739258,299.901978 661.810669,292.795929 
	C663.346069,289.243652 666.199585,287.101776 669.853577,286.880096 
	C674.867493,286.575897 676.055786,284.638794 674.949890,279.799896 
	C673.391357,272.980377 678.507202,267.720398 685.184937,268.760284 
	C689.239563,269.391693 691.767456,271.975250 692.723267,275.841522 
	C693.732300,279.923309 691.775391,282.961700 688.499268,285.181488 
	C681.556213,289.885925 680.175537,297.915253 686.009155,303.863770 
	C691.196533,309.153381 695.273804,315.570190 702.093933,319.313538 
	C706.116821,321.521576 709.705200,323.052582 714.203064,320.846405 
	C717.632996,319.164062 721.290222,317.946136 724.841736,316.510315 
	C729.385132,314.673492 733.563293,313.104614 736.566895,308.201050 
	C738.939880,304.327179 743.180603,301.546997 744.500183,296.632599 
	C745.160278,294.174194 745.700806,292.027527 744.760742,289.419098 
	C743.250488,285.228699 745.383911,280.805756 749.244446,278.981415 
	C753.396179,277.019409 758.268250,278.308502 760.760803,282.028473 
	C763.131470,285.566437 762.808594,290.560272 759.189331,293.306213 
	C755.915588,295.790039 754.183472,298.913361 752.797302,302.523804 
	C749.464417,311.204834 755.679077,319.132324 764.958313,320.354828 
	C775.494324,321.742981 784.157166,317.344757 793.404846,314.185699 
	C797.367554,312.832031 798.938599,309.335114 799.736145,306.359467 
	C801.381348,300.221161 802.461121,293.661987 798.453918,287.728485 
	C795.234314,282.961243 795.382629,277.880737 798.912903,274.530762 
	C802.337097,271.281281 807.646423,271.012482 811.282471,273.904449 
	C815.432617,277.205322 816.017090,282.001556 812.912903,287.283875 
	C808.941833,294.041199 811.797913,308.656708 817.977722,313.202637 
	C822.904907,316.827148 833.436462,315.943085 837.886353,311.666077 
	C839.797180,309.829468 841.905701,308.179016 844.037720,306.596588 
	C847.367920,304.124786 850.964661,302.044006 851.817993,297.360352 
	C852.245361,295.014832 854.744385,293.869415 856.542847,291.981934 
	C852.822693,287.605835 848.174072,286.213440 843.107910,287.465393 
	C839.137024,288.446716 836.263245,291.223236 835.175964,295.542725 
	C834.052368,300.006378 830.962219,302.411957 826.391479,302.036163 
	C822.301697,301.699890 819.516907,299.217041 819.235962,294.979645 
	C818.934021,290.425140 821.244751,287.437256 825.719116,286.144867 
	C834.810120,283.518982 839.051025,277.705902 838.713745,268.288788 
	C838.618774,265.637482 838.259094,262.995667 837.938660,259.921570 
M743.704651,352.232269 
	C745.550232,349.293182 748.424377,348.346344 751.671021,347.773315 
	C757.378784,346.765900 761.444336,338.672729 759.732544,333.110413 
	C757.056458,324.414429 742.638245,321.277466 735.139221,323.316650 
	C728.766479,325.049500 722.684082,327.940735 716.596741,330.601959 
	C712.139832,332.550446 710.361938,336.759430 708.111267,340.909210 
	C718.383179,343.011871 718.411804,343.011841 718.425781,353.777985 
	C718.428101,355.562897 719.582092,356.388214 720.670715,357.410217 
	C725.992126,362.406128 739.456543,359.899872 743.704651,352.232269 
M673.528076,293.686462 
	C670.882202,291.376556 668.088501,291.219574 665.553345,293.637634 
	C663.920959,295.194611 664.083618,297.296967 665.310242,299.134613 
	C666.757324,301.302643 669.023865,301.323151 671.121399,300.631042 
	C674.189636,299.618683 675.048767,297.327423 673.528076,293.686462 
M799.829651,329.613190 
	C801.644104,331.645538 803.809998,332.640869 806.411621,331.337677 
	C807.994934,330.544525 808.843384,329.013611 808.516479,327.221069 
	C808.053650,324.682709 806.625977,322.913574 803.791260,323.244690 
	C800.492676,323.629944 798.654358,325.339630 799.829651,329.613190 
M649.722717,308.221863 
	C650.000732,305.577484 648.942688,303.697723 646.376343,302.939453 
	C644.425293,302.363037 642.763550,303.102692 641.769165,304.864655 
	C640.707214,306.746338 640.931335,308.635620 642.196472,310.407410 
	C644.502747,313.637421 646.654541,313.209869 649.722717,308.221863 
M696.512512,357.822449 
	C698.324097,359.355499 700.232605,360.160400 702.224731,358.204987 
	C703.975037,356.487061 704.290283,354.438660 702.948120,352.348267 
	C701.842834,350.626770 700.115723,349.844360 698.226135,350.754456 
	C695.407166,352.112061 694.454529,354.335693 696.512512,357.822449 
M863.142517,279.755310 
	C861.395691,282.604919 861.895264,284.955475 865.031677,286.211243 
	C867.517456,287.206512 869.130066,285.775024 870.118835,283.517944 
	C870.721375,282.142517 870.516602,280.860992 869.502747,279.823608 
	C867.756897,278.037201 865.777527,277.785583 863.142517,279.755310 
M852.340637,325.003693 
	C850.737366,327.176666 850.659729,329.339325 852.869446,331.048462 
	C854.588013,332.377838 856.597656,332.444427 858.191956,330.726257 
	C859.764465,329.031494 859.478577,327.032074 858.347229,325.269836 
	C856.897034,323.010834 854.931519,323.032013 852.340637,325.003693 
M822.768799,364.428955 
	C820.227661,365.293762 818.805420,366.999603 819.505188,369.708344 
	C820.020630,371.703827 821.753479,372.596893 823.739746,372.434174 
	C825.751831,372.269318 827.242676,370.982788 827.470093,369.003052 
	C827.787109,366.243500 826.266968,364.667145 822.768799,364.428955 
M685.996399,278.777283 
	C686.090942,274.446838 683.491638,272.109680 680.285645,273.749207 
	C678.363342,274.732239 676.818359,276.680847 678.046692,278.572021 
	C679.938599,281.484894 682.821899,281.746216 685.996399,278.777283 
M755.146606,354.963959 
	C754.831848,357.331451 755.276733,359.251312 758.059753,359.683350 
	C760.140930,360.006378 761.552063,359.098999 762.229065,357.135590 
	C762.870667,355.275055 762.694702,353.415283 760.969910,352.321167 
	C758.477966,350.740479 756.668152,351.961487 755.146606,354.963959 
M799.415649,195.763733 
	C797.624573,194.132065 795.690063,193.677032 793.679749,195.289459 
	C792.224915,196.456314 791.907410,198.041412 792.735535,199.702240 
	C793.551514,201.338943 795.033569,202.125839 796.804871,201.800385 
	C799.929504,201.226273 800.676270,199.176300 799.415649,195.763733 
M806.440125,158.146332 
	C808.115051,157.579788 810.049500,157.659378 811.339172,156.136841 
	C812.652710,154.586014 813.179382,152.933029 811.532532,151.362915 
	C809.844788,149.753860 807.718689,149.677887 806.364441,151.489731 
	C804.903137,153.444946 803.760864,155.850143 806.440125,158.146332 
M752.437134,402.015533 
	C750.592346,404.866852 749.781799,407.645630 754.149170,408.674622 
	C756.626892,409.258423 758.419617,407.582489 758.423645,405.142853 
	C758.429443,401.664581 756.163818,400.784851 752.437134,402.015533 
M709.796021,420.098907 
	C710.169312,416.808624 709.169800,414.715485 705.409180,415.532379 
	C703.855408,415.869843 702.851868,417.140259 702.666809,418.764709 
	C702.503784,420.195099 703.157166,421.465118 704.379089,422.150360 
	C706.432983,423.302185 708.216370,422.784576 709.796021,420.098907 
M908.120972,336.519165 
	C905.963257,338.271484 905.420105,340.334534 907.374329,342.486572 
	C908.858337,344.120758 910.653015,343.754456 912.293213,342.535065 
	C913.486023,341.648193 913.937256,340.404846 913.454285,339.018097 
	C912.700806,336.854462 911.118896,335.897156 908.120972,336.519165 
M807.507996,278.220184 
	C805.248596,276.694275 803.410339,277.339966 802.012756,279.438049 
	C800.943970,281.042450 801.260071,282.624542 802.675354,283.892303 
	C804.052551,285.125916 805.742004,285.388245 807.256653,284.382385 
	C809.509033,282.886597 809.258606,280.826172 807.507996,278.220184 
M834.721802,179.804733 
	C834.367493,182.314072 835.610291,183.584579 837.982666,183.837738 
	C839.628418,184.013367 840.978882,183.408539 841.530212,181.739578 
	C842.036865,180.205658 841.919617,178.605133 840.404114,177.758026 
	C838.290527,176.576645 836.239319,176.548767 834.721802,179.804733 
M672.471069,357.458221 
	C670.361389,356.334381 668.561096,356.676086 667.462952,358.843933 
	C666.764343,360.223236 666.721436,361.846802 667.925110,363.012543 
	C669.292297,364.336731 671.098999,364.289825 672.490234,363.222260 
	C674.360657,361.787140 674.309204,359.850861 672.471069,357.458221 
M738.538269,424.898407 
	C738.208923,427.051514 739.143433,428.382935 741.244934,428.782227 
	C742.756165,429.069366 744.214539,428.828308 745.143311,427.413452 
	C745.939392,426.200745 745.927063,424.771271 745.063416,423.734589 
	C742.847412,421.074829 740.802795,422.576965 738.538269,424.898407 
M861.943848,231.533875 
	C859.935120,229.920258 858.197327,230.536819 856.869385,232.385437 
	C855.890442,233.748260 856.209900,235.230759 857.356384,236.445953 
	C858.525269,237.684952 859.936829,237.988190 861.351501,236.972931 
	C863.153076,235.679977 864.128784,234.091156 861.943848,231.533875 
M934.761108,412.680603 
	C937.153870,414.477844 939.285095,414.519623 940.641724,411.522491 
	C941.208801,410.269653 940.833496,408.935272 939.714722,407.986328 
	C938.622620,407.059814 937.312744,406.859772 936.051025,407.434021 
	C934.021484,408.357788 933.949402,410.116486 934.761108,412.680603 
M946.286682,358.927887 
	C946.885498,356.680450 946.391663,354.914368 943.927795,354.318756 
	C942.554565,353.986786 941.255493,354.401276 940.536987,355.772156 
	C939.871887,357.041199 939.794678,358.462372 940.752258,359.519745 
	C942.360596,361.295685 944.185913,361.292358 946.286682,358.927887 
M884.913574,387.918274 
	C886.155090,389.989868 887.929321,390.324646 889.923767,389.231903 
	C891.355042,388.447693 891.955811,387.098297 891.345032,385.485565 
	C890.770447,383.968628 889.596924,383.061432 887.950745,383.213806 
	C885.562073,383.434875 884.636353,384.994476 884.913574,387.918274 
M899.354431,275.281281 
	C898.207886,273.596985 896.763306,272.732544 894.836426,273.973663 
	C893.471863,274.852631 892.982239,276.222443 893.455750,277.805847 
	C893.885315,279.242615 895.008057,279.915527 896.426147,279.856110 
	C898.868408,279.753723 899.883301,278.354767 899.354431,275.281281 
M694.485474,388.082550 
	C692.361511,388.258850 691.086853,389.286285 691.289856,391.541992 
	C691.440186,393.212280 692.522644,394.235962 694.129211,394.476471 
	C695.814697,394.728729 697.027954,393.815552 697.506104,392.262207 
	C698.134949,390.219360 697.403259,388.736633 694.485474,388.082550 
M913.614746,418.435883 
	C913.649170,416.348145 912.774780,414.817993 910.625916,414.579346 
	C908.946167,414.392853 907.848267,415.504730 907.389465,417.078766 
	C907.043823,418.264313 907.239502,419.503937 908.332458,420.181396 
	C910.281372,421.389374 912.092163,421.233887 913.614746,418.435883 
M794.376587,235.427780 
	C796.407288,236.133972 798.056885,235.818726 798.671509,233.518280 
	C799.046082,232.116440 798.519653,230.903122 797.234375,230.105438 
	C796.111572,229.408615 794.974121,229.433716 794.020386,230.322723 
	C792.454529,231.782410 792.092896,233.385681 794.376587,235.427780 
M872.279785,352.081757 
	C874.399719,351.436157 875.209290,349.996429 874.564453,347.913055 
	C874.133606,346.520782 872.973511,345.784485 871.529724,345.826965 
	C869.990845,345.872192 869.168762,346.915619 868.905579,348.338226 
	C868.503357,350.513184 869.407166,351.832245 872.279785,352.081757 
M735.351440,386.058838 
	C735.700928,387.849609 736.627197,388.851624 738.494019,387.965271 
	C739.962524,387.268066 740.750488,385.961731 740.537659,384.296387 
	C740.342529,382.769562 739.306946,381.875732 737.804077,381.914886 
	C735.599976,381.972382 735.090881,383.468384 735.351440,386.058838 
M924.559814,299.315247 
	C923.835266,301.344208 924.300293,302.894897 926.465698,303.572876 
	C927.665466,303.948547 928.765259,303.573822 929.402893,302.416504 
	C930.090759,301.168030 930.104980,299.809570 929.180420,298.731354 
	C927.861328,297.192993 926.365295,297.309937 924.559814,299.315247 
M944.470459,339.940460 
	C944.280884,335.765839 941.993591,335.601593 938.347900,336.932037 
	C939.925964,339.304596 939.031921,344.531616 944.470459,339.940460 
M884.255859,366.749359 
	C888.068481,367.467712 887.706360,364.123871 889.588684,361.709473 
	C885.105713,361.128876 882.737000,361.622375 884.255859,366.749359 
M933.458984,388.438446 
	C931.825195,391.044464 934.166443,392.417847 934.904541,394.298187 
	C937.288940,393.863831 937.933838,392.436981 937.690186,390.654663 
	C937.417114,388.656677 935.977600,388.019775 933.458984,388.438446 
M825.394653,358.663086 
	C825.607483,357.077332 826.290283,355.297760 824.167725,354.471710 
	C823.359436,354.157135 822.545227,354.601196 822.090271,355.386078 
	C821.309875,356.732391 820.936462,358.237427 821.897522,359.551605 
	C822.939941,360.976868 824.130310,360.544708 825.394653,358.663086 
M843.377136,329.245361 
	C841.624207,329.531586 839.643372,329.576538 839.474670,331.987701 
	C839.442322,332.449036 840.043030,333.248688 840.509766,333.397980 
	C842.180603,333.932434 843.843689,333.433380 844.998657,332.264648 
	C846.202332,331.046661 845.621033,329.911102 843.377136,329.245361 
M888.905518,310.613373 
	C889.512390,311.517700 890.102844,313.107574 891.376709,311.771301 
	C892.417969,310.678986 893.710205,309.321960 893.224060,307.504578 
	C893.103943,307.055573 892.249634,306.480316 891.763550,306.507690 
	C889.636536,306.627441 888.521301,307.807129 888.905518,310.613373 
M806.298401,296.451630 
	C808.773987,294.113434 808.239075,292.241486 805.011658,290.072235 
	C804.309570,292.671631 803.071533,294.623596 806.298401,296.451630 
M749.705505,356.080688 
	C748.495300,353.453705 747.271851,355.032776 746.806152,356.347778 
	C745.890442,358.933929 747.313354,360.179169 749.764893,360.530823 
	C751.038208,359.088043 749.991394,357.904144 749.705505,356.080688 
M657.576538,302.698944 
	C655.671814,302.055023 653.986328,302.157562 653.356018,304.413757 
	C653.067200,305.447693 653.717773,306.572601 654.818604,306.409393 
	C656.536011,306.154694 659.136414,306.358734 657.576538,302.698944 
M681.839722,352.897705 
	C680.533936,353.689697 678.463989,353.762573 678.781372,356.311493 
	C680.927002,357.866302 682.574036,356.442841 683.771423,355.007721 
	C684.699524,353.895355 683.946167,352.840942 681.839722,352.897705 
M890.105042,282.129395 
	C888.796082,279.942871 887.631653,281.341248 886.591003,282.354553 
	C885.513672,283.403625 884.393921,284.592682 886.510315,286.167603 
	C888.161011,285.541382 889.503723,284.508667 890.105042,282.129395 
M701.025269,385.673370 
	C704.490356,386.952148 705.060730,384.904053 705.485046,381.569092 
	C703.060608,382.370850 701.223694,382.768066 701.025269,385.673370 
M901.911377,328.917969 
	C903.113647,332.037323 904.998657,330.848969 907.367737,329.836639 
	C905.775391,327.636963 904.320984,326.865204 901.911377,328.917969 
z"/>
<path fill="#000000" opacity="1.000000" stroke="none" 
	d="
M169.201019,324.164703 
	C168.241898,326.104126 166.781845,327.400726 166.619583,329.284698 
	C167.287613,331.032318 168.841431,330.479706 170.060959,330.751282 
	C175.176346,331.890411 177.761353,335.956726 176.427658,340.754364 
	C175.125748,345.437714 170.695374,347.501770 165.687134,345.758270 
	C160.488129,343.948364 159.164948,344.824646 159.146912,350.291382 
	C159.129883,355.457275 159.366562,360.625854 159.269089,365.789062 
	C159.178818,370.570587 161.802231,372.927765 166.085876,373.449860 
	C169.993790,373.926117 173.864334,374.211517 177.648636,371.841614 
	C181.317780,369.543823 185.746841,371.014984 188.202286,374.494690 
	C190.702957,378.038483 190.168839,382.906616 186.954849,385.864166 
	C183.682312,388.875580 179.357971,389.391510 176.149521,386.163727 
	C171.938416,381.927368 166.708755,382.724304 162.087097,383.237396 
	C159.258972,383.551392 154.091553,384.695068 155.624084,390.612946 
	C156.653122,394.586578 154.773178,397.809998 151.232849,399.819092 
	C147.921173,401.698425 144.723068,401.108490 142.084595,398.485565 
	C139.115997,395.534424 139.022858,392.011963 140.694458,388.343292 
	C141.032028,387.602448 141.456116,386.901062 141.882034,386.103333 
	C135.920731,385.718597 133.007187,388.288177 133.196228,393.970093 
	C133.417480,400.620056 133.361084,407.356171 134.466324,413.878510 
	C135.609070,420.622070 144.746582,428.868103 153.320572,426.617218 
	C158.013306,425.385223 162.373169,427.351654 164.076721,431.459595 
	C166.003494,436.105774 164.136536,441.670776 159.858063,444.034485 
	C155.578430,446.398834 151.060303,445.197723 148.100906,440.909027 
	C142.823883,433.261658 136.908752,432.662994 128.836838,436.601837 
	C123.858650,439.031067 120.330841,441.182678 118.508598,446.753632 
	C117.353935,450.283569 113.231026,451.820404 109.220207,450.912445 
	C105.026657,449.963074 102.495781,446.990326 102.238831,442.782227 
	C101.960945,438.231262 104.088669,434.215820 108.477577,432.999451 
	C112.518906,431.879456 114.022591,429.765167 114.772102,426.007996 
	C115.392471,422.898224 117.733475,420.852264 120.719315,419.739685 
	C123.663971,418.642487 124.626328,416.785309 124.258392,413.546661 
	C123.620186,407.929169 123.741837,402.227936 123.172935,396.599426 
	C122.172272,386.699158 113.703102,381.338409 104.185478,384.351105 
	C99.435257,385.854736 95.142250,384.254913 93.136894,380.233765 
	C91.173218,376.296204 92.610855,371.251862 96.391655,368.813446 
	C100.476532,366.178986 105.265251,366.824554 108.330688,370.975220 
	C111.513588,375.284882 116.354256,375.721069 120.746422,376.290863 
	C125.557961,376.915009 128.983917,370.552765 127.510094,364.900757 
	C126.179985,359.799927 128.827942,355.065338 133.833237,353.594940 
	C138.581451,352.200104 143.432831,354.752930 144.867783,359.598389 
	C146.182114,364.036469 144.337738,367.474731 140.757004,369.943481 
	C138.637634,371.404694 136.671524,372.721527 136.752396,375.663269 
	C146.738281,375.763611 150.770508,372.388977 149.828644,363.353485 
	C149.450256,359.723511 149.719879,356.026459 149.684708,352.360046 
	C149.604462,343.992920 142.281525,338.858887 134.207291,341.504486 
	C128.105438,343.503815 123.356026,341.457977 122.416359,336.236206 
	C121.733864,332.443573 123.010895,329.229614 126.468430,327.331360 
	C130.116104,325.328735 133.718735,325.827667 136.438477,328.986023 
	C141.938248,335.372742 153.518661,334.761383 156.821045,326.682312 
	C158.126984,323.487427 160.422867,320.699310 162.247498,317.713470 
	C163.205856,316.145142 164.237854,314.575012 163.194870,312.265625 
	C160.547745,312.425720 157.679703,314.587219 154.946991,312.378418 
	C153.007080,310.810364 150.913361,309.354797 150.041504,306.849762 
	C148.610901,302.739380 150.427399,298.264587 154.333099,296.188629 
	C158.891525,293.765717 162.365692,295.209625 167.902740,302.186157 
	C170.624344,295.798279 172.591125,289.243713 172.188354,282.925476 
	C171.650482,274.487793 163.547852,271.503296 157.453522,267.176239 
	C156.063965,268.161713 157.243484,269.321442 157.132584,270.304474 
	C156.647003,274.608337 153.779953,277.644348 149.812500,277.870575 
	C145.872086,278.095215 142.409241,275.449890 142.022156,271.022095 
	C141.666260,266.951385 140.297256,264.487030 136.068726,263.752533 
	C134.244797,263.435730 132.575333,262.085571 132.020920,260.297058 
	C129.850281,253.294586 123.350739,250.924408 118.127411,247.375046 
	C113.844086,244.464462 108.013763,247.490768 104.562851,253.694336 
	C105.867386,256.126495 108.206825,255.538681 110.301300,255.611053 
	C114.191444,255.745453 116.579323,257.747620 117.213539,261.525085 
	C117.777443,264.883759 116.315613,267.643951 113.200775,268.784943 
	C109.761299,270.044830 105.932091,270.114624 104.070480,266.184723 
	C102.179863,262.193573 99.230934,261.630859 95.265137,261.184296 
	C91.065628,260.711426 87.073364,259.136688 82.671646,260.255127 
	C79.007217,261.186188 75.290535,261.370789 72.185600,264.208679 
	C69.456345,266.703186 65.953377,266.587494 63.068680,264.050110 
	C60.350460,261.659180 59.118767,258.623779 60.914036,255.098984 
	C62.735451,251.522873 65.900360,249.844788 69.647736,251.058746 
	C77.753624,253.684647 85.063477,252.876801 92.287910,248.156021 
	C95.336128,246.164169 99.842560,246.707687 102.242111,243.114822 
	C102.778717,242.311386 103.758194,241.718735 103.236603,240.479263 
	C101.944786,239.320435 100.777367,240.442535 99.578659,240.754257 
	C95.370262,241.848572 92.289856,240.143280 90.459007,236.530807 
	C88.666168,232.993271 89.486458,229.532578 92.691513,227.183258 
	C96.025787,224.739182 99.596481,225.078064 102.824013,227.656418 
	C103.714897,228.368088 104.262230,229.494461 105.100090,230.290741 
	C107.783257,232.840744 111.028351,232.401184 112.315308,229.021332 
	C114.149651,224.203979 115.761635,219.278564 117.079613,214.296417 
	C117.919708,211.120712 116.404892,208.209656 113.747353,206.583862 
	C108.183174,203.179886 103.348587,198.519394 96.047142,198.196533 
	C90.569481,197.954346 87.933502,191.280487 91.328384,186.769196 
	C93.744545,183.558472 94.317780,180.892319 92.497780,177.222473 
	C90.581558,173.358627 91.411552,169.692535 95.256088,167.206116 
	C98.776764,164.929138 102.127975,165.836655 104.749214,168.614609 
	C107.794609,171.842041 107.992821,175.695740 104.797867,178.903458 
	C101.355011,182.360062 102.344131,185.457550 104.822723,188.603226 
	C109.735245,194.837891 115.588371,199.678238 123.946297,200.202805 
	C128.020187,200.458481 130.470093,198.077499 131.643204,194.437073 
	C132.834457,190.740417 135.410095,188.867584 139.052689,188.931854 
	C142.250366,188.988281 144.942642,190.739319 145.899414,193.897369 
	C146.975098,197.447937 146.633820,201.005051 142.987823,203.099533 
	C141.024826,204.227173 140.839920,205.364960 141.192322,207.519379 
	C142.334442,214.501999 137.453125,218.416901 130.839645,215.607391 
	C127.304848,214.105789 125.928513,215.221542 124.933060,218.281265 
	C123.645264,222.239563 122.486519,226.248184 120.996498,230.129303 
	C120.071739,232.538040 120.587074,234.644241 121.300087,236.900040 
	C122.348640,240.217392 123.782181,240.337708 126.221321,238.006332 
	C133.307144,231.233490 139.209747,232.612732 142.145798,241.713455 
	C143.275421,245.214844 145.727127,246.853088 149.087936,247.255859 
	C153.210953,247.749954 155.766327,249.856354 156.993988,253.801895 
	C158.207031,257.700439 162.020386,258.960999 164.879303,261.108032 
	C178.971085,271.690918 177.957779,271.374756 190.673553,260.370636 
	C193.005966,258.352203 195.018982,256.339752 195.630280,253.158524 
	C196.022522,251.117325 197.240021,249.257950 199.183319,248.581558 
	C205.378296,246.425308 206.838669,240.525955 209.290802,235.653091 
	C210.790070,232.673752 210.286392,229.514786 205.408325,229.142227 
	C201.017639,228.806885 198.517258,225.775467 198.336288,221.420502 
	C198.168625,217.385376 200.574188,214.839935 204.391327,213.936890 
	C208.781540,212.898239 211.774063,214.862457 213.601944,218.870880 
	C215.579773,223.208054 219.197388,224.343414 223.466522,221.889114 
	C227.655365,219.480972 231.791031,216.978256 235.914246,214.458466 
	C242.693069,210.315781 243.256073,203.062347 237.260315,197.065247 
	C235.606949,198.146927 236.176971,200.088669 235.565811,201.566162 
	C233.816345,205.795380 229.872360,208.519928 225.884125,208.019547 
	C221.728088,207.498123 218.431595,203.824753 218.170334,199.423889 
	C217.915375,195.129211 220.581696,191.707748 225.214920,190.384155 
	C232.724457,188.238876 233.632751,185.430786 228.829041,179.316422 
	C226.583237,176.457886 224.610123,173.630722 220.516052,172.702576 
	C217.218643,171.955048 215.689621,168.911026 215.649612,165.343582 
	C215.610168,161.828323 216.997894,159.135910 220.118500,157.593521 
	C223.165207,156.087646 226.439407,156.023056 229.003448,158.411453 
	C231.048065,160.316040 232.712418,161.754486 235.854187,160.971771 
	C237.990356,160.439575 240.442734,161.655548 241.330460,163.712616 
	C242.949921,167.465302 246.164627,169.028717 249.384933,170.743256 
	C254.649460,173.546219 259.104340,171.265915 259.610107,165.258484 
	C259.944702,161.284317 259.666656,157.262329 259.789856,153.265671 
	C259.952972,147.973022 251.161438,142.846664 245.439590,144.176346 
	C240.640610,145.291565 237.164871,143.199402 236.026443,139.080872 
	C235.046738,135.536591 237.231522,131.707336 240.998703,130.432373 
	C244.251419,129.331543 247.173004,130.165619 248.899551,132.980881 
	C250.891403,136.228729 254.124069,136.851181 257.187561,138.047653 
	C258.654022,138.620392 259.573486,138.263306 260.625854,137.063324 
	C265.422852,131.593582 265.865509,131.498627 272.720795,133.103134 
	C273.480011,131.956940 274.120056,130.573166 275.128082,129.552902 
	C277.477448,127.175056 280.415558,126.647392 283.402832,128.049149 
	C286.684784,129.589142 287.863281,132.479767 287.187714,135.956161 
	C286.543457,139.271515 284.397217,141.087784 280.974854,141.440460 
	C272.808594,142.281998 266.444794,151.398575 268.305084,159.406754 
	C268.609100,160.715576 269.282501,161.262848 270.448578,161.815781 
	C276.416534,164.645554 277.877350,167.320862 275.201233,173.680267 
	C273.287567,178.227829 274.797089,180.134995 278.587708,181.546814 
	C283.154419,183.247742 286.674286,187.467621 292.241974,186.817261 
	C300.314148,185.874359 303.816101,178.113159 299.065430,171.357101 
	C295.833984,166.761566 295.932312,162.722733 299.461151,159.856247 
	C302.531738,157.362030 305.815918,156.968658 309.052399,159.514297 
	C312.187592,161.980255 313.441193,165.338120 311.235260,168.761505 
	C308.949951,172.308105 309.359589,174.379257 312.676819,177.007736 
	C315.692963,179.397644 315.436371,183.173904 313.779999,187.115814 
	C319.962646,188.497101 325.699951,190.124741 331.550079,190.985825 
	C337.081604,191.800049 344.034515,185.170578 344.314423,179.462265 
	C344.568329,174.284256 347.069794,171.096283 351.444824,170.837067 
	C355.345612,170.605972 358.257233,172.263290 359.381073,176.231247 
	C360.597260,180.525513 358.750854,183.625610 353.760834,185.898773 
	C350.416595,187.422211 349.819763,188.108871 347.707397,193.016251 
	C349.783508,194.684143 352.888794,195.142456 354.311157,197.851929 
	C355.305542,199.746170 356.120087,202.380692 354.927246,203.534363 
	C350.323639,207.986816 354.678223,216.185471 347.937500,219.485458 
	C345.338470,220.757843 342.741272,220.680161 340.356293,219.024200 
	C337.840485,217.277420 336.635773,214.790649 336.978851,211.704849 
	C337.635406,205.799393 334.239899,200.753265 328.352081,199.261566 
	C324.001038,198.159195 319.618195,197.155548 315.210815,196.309677 
	C310.397247,195.385834 306.156586,196.926590 302.493713,200.014709 
	C300.844543,201.405106 299.519684,203.175858 297.897766,204.603775 
	C295.128937,207.041443 294.499176,209.771484 296.222229,213.072296 
	C298.372589,217.191544 297.331726,220.751022 293.483582,222.947266 
	C288.836578,225.599442 289.631287,229.038177 291.485229,232.657684 
	C292.841858,235.306274 293.826599,237.806183 292.430939,240.700226 
	C290.433838,244.841293 285.327606,246.498383 281.390076,244.268387 
	C277.270935,241.935547 275.891266,236.723755 279.068176,232.670990 
	C284.629974,225.575882 280.748840,209.733337 273.547821,204.964233 
	C270.352234,202.847855 267.418304,202.671051 264.355804,204.927841 
	C263.418304,205.618668 262.529266,206.379608 261.652649,207.147934 
	C255.031952,212.951004 256.815643,221.716629 265.221008,224.716568 
	C270.344757,226.545258 272.684448,230.039642 271.709961,234.407990 
	C270.803986,238.469193 267.038025,241.428589 263.019440,241.237213 
	C258.422852,241.018311 254.968933,237.502304 254.920471,232.177139 
	C254.877151,227.418304 251.724960,224.593765 249.031891,221.592102 
	C247.205811,219.556808 244.496567,219.993729 242.117233,221.443054 
	C237.705872,224.130127 233.264603,226.768326 228.824768,229.408310 
	C227.184113,230.383896 226.023926,231.721130 225.368820,233.527100 
	C224.782654,235.143005 223.808395,236.755402 222.280884,237.320892 
	C216.606583,239.421539 214.963593,244.811432 212.344711,249.292740 
	C209.914642,253.450943 211.069473,255.236069 215.804901,255.782059 
	C220.979553,256.378693 224.055923,259.339996 224.282227,263.942322 
	C224.501984,268.411926 221.714584,271.979889 217.247330,272.947144 
	C213.336075,273.794006 209.516632,271.296631 207.712646,266.712769 
	C206.397293,263.370544 202.890564,262.536987 199.398346,265.124207 
	C195.806244,267.785461 192.496078,270.827271 188.721725,273.987946 
	C192.514297,277.493469 196.382507,281.028564 193.151245,286.387451 
	C190.354797,291.025208 185.964844,291.190063 181.276443,288.980408 
	C179.570343,293.326508 178.849060,297.420990 178.390320,301.498566 
	C177.991745,305.041473 179.466080,307.945892 182.902283,309.629364 
	C186.650711,311.465820 189.739685,314.328369 194.822021,312.532410 
	C198.558929,311.211884 202.598770,314.944336 203.467560,319.064209 
	C204.393631,323.455597 202.427612,326.657318 198.641800,328.475983 
	C194.710220,330.364685 190.602280,329.543243 188.584381,325.740692 
	C186.199539,321.246704 182.105911,320.137604 178.082016,318.908142 
	C173.833725,317.610138 171.298599,320.457825 169.201019,324.164703 
M277.438782,195.983810 
	C278.605804,198.315277 280.851196,199.565109 282.702545,201.205460 
	C283.872894,202.242432 285.250793,203.089340 286.737885,202.022934 
	C288.320526,200.888016 287.490936,199.430084 286.976776,197.987137 
	C285.039490,192.550095 279.939362,191.836029 275.431458,189.586075 
	C276.157288,191.837082 276.714630,193.565659 277.438782,195.983810 
M121.454193,427.092499 
	C118.943680,428.402100 117.541229,430.299347 119.037804,433.074158 
	C120.088829,435.022827 122.139465,435.576080 124.185608,435.017853 
	C126.634018,434.349884 127.559235,432.196808 127.227974,429.990082 
	C126.821976,427.285522 124.870232,426.188141 121.454193,427.092499 
M138.123001,366.755615 
	C140.142227,364.330444 140.364914,361.959961 137.508331,360.103943 
	C135.318466,358.681091 133.405701,359.545013 132.059814,361.581940 
	C131.184830,362.906281 131.157761,364.401184 132.045807,365.756470 
	C133.425186,367.861572 135.310760,368.309021 138.123001,366.755615 
M261.410156,185.369156 
	C256.154480,187.502853 255.244476,192.229507 259.447479,196.980148 
	C260.834839,194.128281 262.240753,191.417328 263.472687,188.629517 
	C264.078857,187.257767 263.706390,186.032867 261.410156,185.369156 
M152.294647,435.001312 
	C150.794739,437.250519 150.765823,439.378937 153.119766,441.012878 
	C154.639832,442.068024 156.307449,441.853912 157.628769,440.536285 
	C159.078629,439.090515 159.328690,437.200989 158.319672,435.538361 
	C156.986069,433.340851 154.964890,433.103851 152.294647,435.001312 
M154.421616,303.023926 
	C153.859406,305.076385 153.806534,307.044617 155.995667,308.176239 
	C157.583801,308.997162 159.227753,308.853394 160.554459,307.520386 
	C161.718918,306.350433 162.033051,304.812317 161.315918,303.405548 
	C159.693008,300.221893 157.345276,300.461212 154.421616,303.023926 
M103.496796,378.124603 
	C103.857101,375.578644 102.951073,373.782593 100.249413,373.612732 
	C98.152748,373.480896 96.925400,374.924225 96.431602,376.852142 
	C95.966858,378.666565 96.636871,380.117462 98.306007,381.004120 
	C100.870682,382.366455 102.339645,381.120209 103.496796,378.124603 
M262.646271,173.976227 
	C263.599945,176.331406 265.239868,177.411575 267.691803,176.313675 
	C269.383453,175.556213 269.895020,173.960495 269.720032,172.184433 
	C269.526733,170.222061 268.327911,169.235992 266.423523,169.265152 
	C263.862885,169.304367 262.493103,170.651108 262.646271,173.976227 
M113.054321,441.558044 
	C111.228973,439.635101 109.329025,439.646423 107.570229,441.549530 
	C106.340805,442.879852 106.175056,444.469482 107.237633,446.044189 
	C108.287758,447.600494 109.794365,448.136475 111.504349,447.473511 
	C114.043648,446.488983 114.176842,444.468475 113.054321,441.558044 
M224.609146,195.912231 
	C223.266556,197.390656 222.724899,199.046188 223.983765,200.779266 
	C225.165497,202.406158 226.809662,202.989288 228.714905,202.017319 
	C230.376358,201.169708 231.104156,199.698608 230.599945,197.933289 
	C229.800674,195.134903 227.802521,194.576691 224.609146,195.912231 
M184.679977,380.622467 
	C184.273483,378.258545 182.871063,377.124603 180.507553,377.567047 
	C178.698273,377.905670 177.662567,379.209717 177.469040,381.022034 
	C177.284607,382.748901 178.233719,383.975006 179.830902,384.308746 
	C182.246796,384.813538 184.020508,383.889160 184.679977,380.622467 
M197.935242,319.432526 
	C196.117279,317.614868 194.146469,317.592102 192.322403,319.262207 
	C191.122482,320.360870 191.066681,321.890808 191.895889,323.310730 
	C192.876053,324.989075 194.498047,325.289459 196.157898,324.754364 
	C198.448441,324.015900 198.998566,322.278870 197.935242,319.432526 
M131.027542,332.413696 
	C128.802536,331.812866 127.044418,332.297699 126.346725,334.694336 
	C125.951820,336.050842 126.286110,337.372284 127.538399,338.194427 
	C128.913010,339.096863 130.468719,339.152100 131.658157,338.010101 
	C133.350845,336.384918 133.325821,334.537628 131.027542,332.413696 
M350.157227,178.255463 
	C350.688202,180.534317 351.927277,181.821259 354.410461,181.079514 
	C355.799316,180.664673 356.614777,179.630630 356.701080,178.154800 
	C356.800201,176.460663 355.992340,175.171310 354.409424,174.732224 
	C352.064514,174.081787 350.595123,175.133270 350.157227,178.255463 
M97.167473,230.249634 
	C95.115326,230.054245 93.490425,230.577286 93.211174,232.917725 
	C93.018791,234.530075 93.560898,235.916168 95.225594,236.474197 
	C96.837067,237.014359 98.202881,236.423325 99.073448,235.020737 
	C100.236969,233.146149 99.817734,231.566910 97.167473,230.249634 
M213.005096,263.278870 
	C212.151840,265.592407 212.971588,267.126160 215.288483,267.739594 
	C216.867172,268.157593 218.190201,267.548187 218.988007,266.079376 
	C219.709427,264.751129 219.336044,263.477234 218.368134,262.496643 
	C216.691895,260.798462 214.951340,260.820007 213.005096,263.278870 
M145.421509,390.888763 
	C142.463821,392.314362 142.729568,394.436310 144.555206,396.425598 
	C145.979538,397.977570 148.123779,398.051880 149.368546,396.314850 
	C152.332031,392.179413 147.582520,392.545837 145.421509,390.888763 
M351.099457,199.277802 
	C349.369812,197.678574 347.535889,197.616898 345.894226,199.256500 
	C344.869904,200.279556 344.985168,201.676529 345.727600,202.900696 
	C346.469025,204.123260 347.606873,204.835007 349.036835,204.438004 
	C351.339722,203.798630 352.116455,202.196457 351.099457,199.277802 
M227.087738,163.112320 
	C225.042892,160.776001 222.951645,160.184631 221.377136,163.429764 
	C220.583237,165.065979 221.169403,166.943451 223.019897,167.476105 
	C226.035675,168.344177 227.173141,166.488831 227.087738,163.112320 
M267.163177,231.920380 
	C266.456329,229.890991 265.178253,228.861710 263.045258,229.884659 
	C261.618469,230.568909 260.768463,231.843918 260.940704,233.468262 
	C261.072815,234.713898 261.974884,235.530487 263.213226,235.742981 
	C265.675018,236.165375 266.881500,234.888123 267.163177,231.920380 
M251.665909,200.702667 
	C258.366882,198.790314 252.093582,195.166046 252.834549,192.455109 
	C251.934433,195.103195 246.475571,196.727463 251.665909,200.702667 
M276.270081,136.028061 
	C275.067932,140.142227 277.634827,136.871445 277.991852,136.763504 
	C280.094055,136.127869 283.483429,137.540726 283.631592,133.569153 
	C283.671906,132.489319 282.973541,131.654053 281.922974,131.370758 
	C278.255188,130.381683 278.436920,134.173004 276.270081,136.028061 
M345.723999,215.703278 
	C348.016022,215.601730 348.937134,214.306305 348.682373,212.142746 
	C348.521088,210.772934 347.517944,210.270554 346.240143,210.224731 
	C344.802734,210.173172 343.582825,210.753952 342.968597,211.997299 
	C341.952423,214.054367 343.366180,214.954880 345.723999,215.703278 
M95.291428,172.700043 
	C95.387444,175.756927 97.290260,176.321228 99.678497,175.530060 
	C101.267601,175.003662 102.065170,173.428467 100.990334,171.949081 
	C99.288841,169.607193 97.278648,169.392563 95.291428,172.700043 
M265.440033,140.101944 
	C266.794769,142.302658 268.565582,142.508072 270.138977,140.597763 
	C271.350342,139.126999 270.978241,137.283844 269.116577,136.589554 
	C266.777496,135.717209 265.379456,136.826813 265.440033,140.101944 
M136.625427,198.650604 
	C138.968170,199.707047 140.619781,199.213470 140.864639,196.453491 
	C141.017441,194.730942 140.033279,193.316757 138.230133,193.596512 
	C135.526306,194.016006 134.520294,195.640564 136.625427,198.650604 
M306.761749,162.782166 
	C304.211182,161.707840 302.514954,162.446259 302.364624,165.276993 
	C302.270386,167.050812 303.671082,167.953201 305.333954,167.662598 
	C307.933746,167.208237 308.309082,165.505249 306.761749,162.782166 
M151.779922,270.646851 
	C148.908066,265.387238 147.890503,270.896637 145.412857,271.272156 
	C148.090881,274.360748 150.015732,274.929108 151.779922,270.646851 
M233.928024,168.788788 
	C235.883865,170.377670 237.558868,170.178619 238.513474,167.776398 
	C239.075043,166.363251 238.332047,165.028458 236.867798,164.785904 
	C234.352676,164.369308 233.317123,165.760178 233.928024,168.788788 
M245.666367,135.645111 
	C244.287445,133.338287 242.682938,133.931595 241.302124,135.504700 
	C240.207733,136.751526 240.655624,138.119690 242.090500,138.766724 
	C244.457413,139.834076 245.410187,138.429901 245.666367,135.645111 
M147.606430,434.242035 
	C149.489716,432.097198 147.828491,431.412048 146.153107,430.792572 
	C144.874191,430.319672 143.586731,430.573883 143.544525,432.061096 
	C143.480804,434.306702 145.277969,434.521973 147.606430,434.242035 
z"/>
<path fill="#000000" opacity="1.000000" stroke="none" 
	d="
M408.000000,342.135162 
	C367.507141,342.149597 327.514282,342.169159 287.521423,342.172638 
	C280.660614,342.173248 280.663239,342.141693 280.661896,335.199585 
	C280.657074,310.537323 280.650635,285.875092 280.643951,261.212830 
	C280.641937,253.736801 280.640656,253.719849 287.979614,253.720825 
	C369.465057,253.731613 450.950470,253.748566 532.435913,253.762100 
	C539.854248,253.763336 539.871216,253.757690 539.878479,246.432709 
	C539.888550,236.267883 539.845276,226.102936 539.887634,215.938293 
	C539.894958,214.182632 539.323608,212.263611 540.801758,210.693085 
	C542.888245,210.289780 543.715637,212.028152 544.809753,213.119766 
	C571.822937,240.070923 598.781250,267.077179 625.840210,293.982269 
	C628.335815,296.463715 628.803528,298.025055 626.117004,300.858154 
	C599.750122,328.663239 572.240356,355.332367 545.237183,382.503906 
	C544.099915,383.648254 543.175354,385.181152 541.243164,385.380829 
	C539.103577,384.253113 539.890625,382.202606 539.882446,380.524750 
	C539.830688,369.860352 539.882141,359.195526 539.890686,348.530823 
	C539.895752,342.184265 539.865173,342.124084 533.477478,342.123199 
	C491.818329,342.117462 450.159149,342.128998 408.000000,342.135162 
M594.492188,319.991333 
	C601.499939,312.529999 608.507751,305.068695 614.458496,298.732819 
	C592.463684,276.462524 570.932983,254.662125 549.333618,232.792206 
	C549.333618,240.401642 549.340271,248.216736 549.331665,256.031830 
	C549.323669,263.297852 549.316528,263.310211 541.868164,263.310669 
	C460.219238,263.315613 378.570312,263.315521 296.921387,263.320007 
	C290.318359,263.320374 290.148010,263.459229 290.136719,269.979431 
	C290.104980,288.308624 290.106903,306.637909 290.100403,324.967133 
	C290.097687,332.660461 290.103241,332.644196 297.872375,332.646210 
	C377.188385,332.666656 456.504425,332.688171 535.820435,332.721924 
	C549.326843,332.727661 549.326599,332.755127 549.324402,346.519104 
	C549.323547,352.214539 549.324219,357.910004 549.324219,363.996216 
	C550.537842,363.433350 550.902893,363.365112 551.120667,363.148712 
	C565.419861,348.938507 579.707092,334.716278 594.492188,319.991333 
z"/>
<path fill="#000000" opacity="1.000000" stroke="none" 
	d="
M176.375336,77.613754 
	C177.091400,80.890953 176.080826,83.207054 173.054428,83.441170 
	C169.061569,83.750053 170.058258,80.059944 169.557007,77.713837 
	C166.515884,78.288353 165.733444,80.559586 165.119553,82.782913 
	C163.925781,87.106339 162.911697,91.479568 161.836655,95.835495 
	C161.370285,97.725113 161.287125,99.619141 163.389221,100.544640 
	C165.309174,101.389961 166.848770,100.290451 168.383377,99.158157 
	C170.651398,97.484718 170.539169,93.911301 173.753082,92.565010 
	C175.612427,96.364777 173.076202,98.660545 171.203369,100.889648 
	C168.649841,103.928925 164.899414,105.625282 161.398514,103.753189 
	C157.987671,101.929245 155.574570,102.035446 152.390686,103.875175 
	C150.382889,105.035332 147.795074,104.468544 145.807205,102.902649 
	C144.077637,101.540215 143.312119,99.777893 144.284241,97.624680 
	C145.025314,95.983208 146.312515,94.832542 148.172577,95.079163 
	C150.333069,95.365616 151.195877,96.874008 151.069580,99.025291 
	C151.046341,99.421440 151.388672,99.839058 151.553543,100.226303 
	C153.483017,99.994278 154.202866,98.649300 154.752213,97.260551 
	C156.714554,92.299629 158.156677,87.186348 158.789398,81.879974 
	C158.964615,80.410652 159.023071,78.771179 157.446045,77.880997 
	C155.699249,76.894981 154.288528,77.963219 152.851791,78.822495 
	C150.238419,80.385483 150.097824,84.081657 146.403168,85.987190 
	C145.333252,81.516098 147.914413,79.151268 150.242340,76.943970 
	C154.117203,73.269897 157.652069,73.417931 163.737061,77.087723 
	C170.115402,73.033684 172.162888,73.062912 176.375336,77.613754 
z"/>
<path fill="#000000" opacity="1.000000" stroke="none" 
	d="
M709.778320,99.440125 
	C710.650696,97.017761 712.178040,96.374779 714.248657,96.678360 
	C717.075195,97.092743 715.998962,99.898666 717.036865,101.334686 
	C718.877930,101.851440 719.609314,100.592392 720.119507,99.408653 
	C722.371582,94.183311 723.645996,88.665405 724.626770,83.087425 
	C724.922791,81.403648 724.645081,79.645409 722.813416,78.824890 
	C721.048157,78.034042 719.614868,79.132874 718.196167,79.982819 
	C715.537903,81.575394 715.440857,85.240997 712.820190,86.992546 
	C710.811768,83.018242 714.754700,75.941628 719.854919,76.132133 
	C725.953003,76.359917 731.944031,77.219849 738.044922,75.946228 
	C739.382263,75.667038 740.839844,76.923195 741.625488,78.320633 
	C742.634949,80.116211 742.470459,81.854767 741.095215,83.390877 
	C740.142883,84.454552 738.932373,84.951874 737.499634,84.446533 
	C734.645386,83.439774 735.424255,81.120888 735.677307,79.021416 
	C734.244873,78.520370 733.166260,79.291718 732.642639,80.199074 
	C729.167053,86.221512 727.510010,92.895805 727.518433,99.715118 
	C727.523010,103.455521 730.482971,102.744751 733.033691,101.330276 
	C735.892822,99.744789 736.157715,95.935684 739.347412,94.065659 
	C740.923950,98.275444 738.229126,100.478424 736.104492,102.724464 
	C733.659424,105.309250 730.387390,106.926620 727.119324,105.114326 
	C723.882324,103.319237 721.576904,103.029510 718.184082,105.036842 
	C713.907410,107.567139 710.426270,105.086212 709.778320,99.440125 
z"/>
<path fill="#000000" opacity="1.000000" stroke="none" 
	d="
M208.433624,101.094719 
	C206.780151,96.668839 208.346558,92.888069 209.250443,89.024185 
	C210.030960,85.687668 211.378647,82.426285 211.072525,79.030754 
	C209.284943,77.447571 206.337296,79.099800 205.295258,76.431488 
	C205.408630,76.112823 205.505417,75.549751 205.625565,75.544724 
	C211.858246,75.283844 214.309967,71.530067 215.061829,65.832100 
	C215.327606,63.818005 216.637527,61.833836 219.181076,62.609825 
	C221.567978,63.338028 221.250443,65.448509 220.460297,67.182289 
	C218.146698,72.258781 219.397919,75.257820 225.153015,75.336555 
	C225.360489,77.498596 224.113388,78.090698 223.031708,77.964828 
	C217.974548,77.376335 216.978470,80.685028 216.192795,84.528717 
	C215.427872,88.270782 214.276337,91.933899 213.514145,95.676399 
	C213.171448,97.359085 212.415482,99.654785 214.701385,100.468887 
	C216.695923,101.179214 217.988922,99.423042 219.189316,98.003922 
	C220.636917,96.292511 220.850891,93.582458 224.518051,92.308266 
	C224.381226,97.239357 221.911163,100.306343 218.759827,102.604080 
	C215.324661,105.108765 211.629700,105.295685 208.433624,101.094719 
z"/>
<path fill="#000000" opacity="1.000000" stroke="none" 
	d="
M790.644531,78.532043 
	C784.442627,78.324066 782.411438,81.880501 781.580811,87.028252 
	C781.000610,90.623993 779.949585,94.144287 779.095825,97.695137 
	C778.707947,99.308350 777.931030,101.212349 779.882019,102.120384 
	C781.640686,102.938957 782.861755,101.272507 784.173584,100.286453 
	C786.333374,98.663124 786.314270,95.034134 789.564697,94.132599 
	C789.926392,100.039185 784.330505,106.157776 779.164734,105.861145 
	C775.571045,105.654785 772.827576,102.200394 773.474304,97.995613 
	C774.127930,93.745934 775.367004,89.588326 776.285095,85.376320 
	C776.665710,83.629913 777.530151,81.921753 776.984009,80.120880 
	C775.362793,78.471512 772.442017,80.350838 771.272095,77.924278 
	C771.182434,76.810387 771.854553,75.996765 772.616577,76.075005 
	C778.581848,76.687492 779.683594,72.605751 780.621582,68.153107 
	C781.064270,66.051575 781.717651,63.401512 784.550049,63.990715 
	C787.737793,64.653824 786.476807,67.419044 785.979370,69.333893 
	C785.048523,72.917412 784.337524,76.028290 789.741943,76.035629 
	C790.829041,76.037102 791.361206,77.073578 790.644531,78.532043 
z"/>
<path fill="#000000" opacity="1.000000" stroke="none" 
	d="
M829.713867,81.473747 
	C829.714417,77.373444 829.672241,73.706223 829.735474,70.040825 
	C829.761169,68.555092 829.784729,66.739723 831.922791,66.836815 
	C833.617798,66.913788 833.886902,68.525833 833.929260,69.835014 
	C834.063904,73.997452 834.149109,78.166351 834.069458,82.329231 
	C834.013184,85.276527 835.148804,86.624100 838.190063,86.486397 
	C842.013000,86.313324 845.845642,86.300835 849.673584,86.320702 
	C851.130493,86.328262 853.037964,86.251701 853.100525,88.303558 
	C853.166687,90.474098 851.216553,90.273918 849.775208,90.299263 
	C846.276489,90.360802 842.761963,90.505325 839.279724,90.255310 
	C835.393860,89.976349 833.748596,91.411530 834.031189,95.376060 
	C834.255798,98.526512 834.113892,101.706573 834.058472,104.872154 
	C834.026855,106.673813 834.199158,108.606400 832.211792,109.771729 
	C829.583801,109.535782 829.793396,107.467628 829.753540,105.704834 
	C829.674561,102.206779 829.572266,98.696487 829.774658,95.208374 
	C829.984802,91.586960 828.694031,89.996788 824.912598,90.259468 
	C821.429871,90.501404 817.915833,90.343254 814.417053,90.278816 
	C812.830627,90.249596 810.951721,90.620720 810.403442,88.320061 
	C811.170532,86.146645 813.070618,86.687805 814.627136,86.639374 
	C818.290344,86.525391 821.959839,86.446068 825.622559,86.532486 
	C828.948547,86.610954 830.118286,85.013176 829.713867,81.473747 
z"/>
<path fill="#000000" opacity="1.000000" stroke="none" 
	d="
M913.360229,119.105072 
	C912.140930,119.937950 911.225525,120.792168 909.584656,119.742355 
	C923.864746,98.842957 924.040283,77.768982 909.324097,56.477337 
	C912.744385,55.812927 914.066650,58.188335 915.543274,59.913738 
	C929.520203,76.245712 928.642700,102.223793 913.360229,119.105072 
z"/>
<path fill="#000000" opacity="1.000000" stroke="none" 
	d="
M245.134354,98.730087 
	C241.417343,110.678345 236.663971,117.309555 229.917709,118.994942 
	C244.882080,97.671425 245.389847,76.646446 230.373978,55.633774 
	C241.208832,56.126671 248.709396,78.372231 245.134354,98.730087 
z"/>
<path fill="#000000" opacity="1.000000" stroke="none" 
	d="
M198.846710,115.070953 
	C199.815567,116.354851 201.120667,117.238182 199.388626,119.479118 
	C188.727036,112.009621 185.280258,101.091629 184.852493,89.099495 
	C184.371613,75.618561 187.404434,63.263187 199.802643,55.036728 
	C187.383682,74.848198 185.414856,94.688721 198.846710,115.070953 
z"/>
<path fill="#000000" opacity="1.000000" stroke="none" 
	d="
M755.896362,110.934723 
	C744.023193,89.534470 753.908264,58.267429 766.363159,56.560143 
	C751.547668,77.818016 751.378113,98.866119 765.918762,120.171974 
	C760.824036,119.226814 758.636108,115.024261 755.896362,110.934723 
z"/>
<path fill="#000000" opacity="1.000000" stroke="none" 
	d="
M896.816895,75.730537 
	C897.456482,75.725632 897.625366,75.703911 897.788330,75.725891 
	C900.070984,76.033798 903.734497,74.786919 903.692261,78.361404 
	C903.653320,81.661858 900.042969,81.339760 897.713623,81.053810 
	C892.151733,80.371025 889.554260,82.464233 889.029663,88.135216 
	C888.619934,92.564018 887.294495,96.910217 886.342346,101.285828 
	C885.864136,103.483795 885.143127,105.946579 882.292236,105.141533 
	C879.561768,104.370491 880.646423,101.981010 881.182678,100.104645 
	C882.823486,94.363129 884.510132,88.634689 886.150513,82.893051 
	C886.229736,82.615913 886.037476,82.261230 885.940918,81.793961 
	C880.526794,79.282051 877.181519,83.362244 873.405090,86.301262 
	C872.692200,81.055206 877.417969,76.169922 883.387512,75.826477 
	C887.693665,75.578728 892.023865,75.749786 896.816895,75.730537 
z"/>
<path fill="#000000" opacity="1.000000" stroke="none" 
	d="
M527.671814,310.055359 
	C524.472717,302.684052 524.515137,295.515015 526.792908,288.358124 
	C528.190247,283.967377 531.345886,281.494812 536.080200,281.500275 
	C540.681030,281.505585 543.646484,284.147369 544.923950,288.243958 
	C547.146240,295.370880 547.190796,302.579285 544.366699,309.646973 
	C542.900085,313.317291 540.439209,315.889954 536.335876,316.089294 
	C532.233093,316.288635 529.480713,314.086975 527.671814,310.055359 
M540.939026,296.549774 
	C540.791321,293.742096 540.841187,290.905182 540.431702,288.136230 
	C540.119507,286.025269 538.645874,284.584412 536.372986,284.377777 
	C534.365173,284.195221 532.358887,284.947296 531.984070,286.877625 
	C530.432617,294.869049 529.629639,303.010925 532.636108,310.785706 
	C534.080627,314.521484 537.002686,314.217133 539.221863,310.621155 
	C541.761230,306.506134 540.618591,301.916077 540.939026,296.549774 
z"/>
<path fill="#000000" opacity="1.000000" stroke="none" 
	d="
M404.229065,305.778259 
	C403.475800,307.883026 402.781097,309.571289 402.106354,311.267517 
	C400.746429,314.686218 397.791046,315.882446 394.556091,316.077209 
	C391.184296,316.280151 388.418976,314.703766 386.791931,311.612244 
	C382.659943,303.760925 382.675323,295.645294 385.591003,287.464478 
	C387.037262,283.406677 390.236084,281.403778 394.460907,281.434082 
	C398.722229,281.464600 401.717438,283.739014 403.230286,287.678070 
	C405.440979,293.433960 405.484222,299.376068 404.229065,305.778259 
M399.686035,301.219818 
	C399.474884,296.767639 400.281036,292.239532 398.674622,287.891357 
	C397.924316,285.860504 396.664581,284.446381 394.351288,284.386353 
	C392.476257,284.337646 390.914703,285.273956 390.507782,286.984070 
	C388.644562,294.815094 388.121582,302.681458 390.937988,310.436432 
	C391.463501,311.883453 392.473755,313.059418 394.183838,313.163147 
	C396.201904,313.285522 397.089355,311.840729 397.820770,310.294373 
	C399.042450,307.711487 399.760162,305.005188 399.686035,301.219818 
z"/>
<path fill="#000000" opacity="1.000000" stroke="none" 
	d="
M435.482208,300.713745 
	C432.937103,294.479523 432.670837,294.424347 424.120544,298.393646 
	C422.366211,293.311646 423.263733,288.264496 423.657104,283.270477 
	C423.728516,282.364197 424.586670,281.703156 425.461426,281.976837 
	C429.776245,283.326843 434.167755,282.571625 439.099152,281.772522 
	C437.281738,287.140869 433.486572,287.827850 429.712738,288.141754 
	C426.370270,288.419830 425.824829,289.984467 426.904480,293.262634 
	C433.569153,291.752960 438.639160,293.663788 440.755890,300.743561 
	C442.528320,306.671539 438.318542,314.305237 432.476959,315.727905 
	C426.617859,317.154846 420.784760,312.461090 420.931915,306.455719 
	C420.967560,305.001373 421.516693,303.859985 422.829834,303.199280 
	C423.802521,302.709900 424.798279,302.842590 425.634705,303.528168 
	C426.830597,304.508362 427.114258,305.813751 426.294830,307.089874 
	C424.689911,309.589172 425.808197,311.275909 427.952393,312.374512 
	C430.521545,313.690796 432.349426,312.335663 433.841797,310.211914 
	C435.806702,307.415802 435.820221,304.295502 435.482208,300.713745 
z"/>
<path fill="#000000" opacity="1.000000" stroke="none" 
	d="
M573.691772,301.184387 
	C573.799072,298.043976 573.993774,295.306244 569.817749,294.154846 
	C573.004028,292.021027 573.697205,289.508087 573.894958,286.421173 
	C574.194702,281.742462 579.052490,278.630493 583.204651,279.916595 
	C584.677185,280.372681 585.981140,281.121246 586.261292,282.832397 
	C586.472900,284.124451 585.934021,285.145905 584.764221,285.695404 
	C582.974731,286.536011 582.025208,285.320618 581.079163,284.085205 
	C580.813843,283.738708 580.347290,283.546234 579.966797,283.278748 
	C576.853943,288.202179 577.240784,289.561096 582.797668,293.615723 
	C576.464417,298.077698 576.135925,306.582153 582.548889,313.886932 
	C578.375427,315.485840 574.632080,315.205139 569.517639,313.939087 
	C574.539001,310.305847 573.642334,305.853668 573.691772,301.184387 
z"/>
<path fill="#000000" opacity="1.000000" stroke="none" 
	d="
M512.515625,282.278107 
	C515.769653,282.314270 515.176208,284.566345 515.210388,286.231506 
	C515.312439,291.204956 515.205566,296.182373 515.272461,301.157013 
	C515.335999,305.883759 513.456848,311.451416 521.468201,313.251770 
	C515.201294,315.382874 510.082062,315.266937 504.895386,314.343018 
	C504.944336,313.396240 504.875031,312.833557 504.989685,312.793182 
	C510.395935,310.889435 510.312103,306.509430 510.035248,301.942169 
	C509.875000,299.298096 510.017517,296.636597 509.992462,293.983185 
	C509.957947,290.329010 510.947449,285.964020 504.026428,287.232056 
	C506.277802,283.212585 509.938385,284.151642 512.515625,282.278107 
z"/>
<path fill="#000000" opacity="1.000000" stroke="none" 
	d="
M584.669678,299.437317 
	C584.128662,295.533356 585.890137,293.339020 589.051086,292.209106 
	C592.483887,290.982025 596.213318,291.339966 599.148315,292.909607 
	C600.984314,293.891418 600.477905,297.015839 599.340881,299.239044 
	C596.886292,299.071808 597.192749,296.774475 596.082886,295.711853 
	C594.250732,293.957642 592.163818,294.075195 590.027649,294.678223 
	C589.004761,294.967041 588.320251,295.877716 588.581909,296.994080 
	C589.095825,299.186462 590.982666,299.448944 592.814453,299.838104 
	C596.312866,300.581268 599.677856,301.578735 600.836121,305.612366 
	C602.219421,310.429993 598.828735,315.019867 593.738586,315.355011 
	C590.899658,315.541962 588.255310,314.019073 585.260559,314.804779 
	C583.731323,311.516052 583.493896,308.514435 585.383789,305.384003 
	C587.826843,306.360199 587.710876,308.774475 588.893921,310.299957 
	C590.390015,312.229218 592.026794,313.329041 594.434814,312.443542 
	C596.106995,311.828705 597.324036,310.485596 597.364929,308.723755 
	C597.423340,306.204742 595.329773,305.589752 593.358826,305.010223 
	C590.034180,304.032654 586.389160,303.567139 584.669678,299.437317 
z"/>
<path fill="#000000" opacity="1.000000" stroke="none" 
	d="
M475.545227,295.445007 
	C477.998962,293.428558 479.400146,290.486572 483.381378,289.867188 
	C482.418671,295.644348 476.649567,297.143585 474.985229,301.504517 
	C476.566162,306.206360 483.401093,307.528168 483.253662,314.899628 
	C479.630859,310.395813 476.733582,306.793945 473.836304,303.192108 
	C468.628113,306.116211 466.521057,309.125214 464.149078,311.815094 
	C463.187439,312.905609 462.359375,314.748260 460.651306,313.476990 
	C459.056061,312.289703 460.193085,310.853210 461.096405,309.587006 
	C463.276428,306.531036 468.372772,304.947266 468.114227,301.171661 
	C467.884186,297.812195 463.163971,296.147827 460.946259,293.241791 
	C460.338806,292.445831 459.676941,291.644897 460.661133,290.235992 
	C464.435913,290.026093 465.910889,293.511230 468.015778,295.665466 
	C470.688965,298.401306 472.856812,298.905334 475.545227,295.445007 
z"/>
<path fill="#000000" opacity="1.000000" stroke="none" 
	d="
M550.161133,291.784180 
	C549.024597,289.562866 548.278320,287.261261 550.825806,286.441376 
	C553.606140,285.546539 553.413147,288.033417 553.490051,289.866241 
	C553.546814,291.219208 554.401489,292.007111 555.641418,292.250031 
	C557.057312,292.527405 558.355713,291.999207 559.148987,290.849609 
	C560.937073,288.258362 560.927429,285.474701 559.148254,282.936737 
	C557.329285,280.342010 555.378357,282.163605 553.495911,283.090393 
	C553.080200,283.295074 552.549622,283.266235 551.744690,283.398834 
	C549.976868,279.781677 549.494080,274.984100 551.562317,272.668457 
	C554.184937,269.732178 559.100403,272.432648 563.557922,271.285126 
	C561.914001,277.102234 555.926880,274.963593 552.596375,279.484741 
	C559.166016,279.016571 564.291748,279.815033 564.933105,286.448700 
	C565.270630,289.939240 563.240723,292.438690 560.242920,294.036316 
	C556.475220,296.044220 553.205750,295.092346 550.161133,291.784180 
z"/>
<path fill="#000000" opacity="1.000000" stroke="none" 
	d="
M305.277527,310.942169 
	C304.864471,313.177307 304.501007,315.464172 302.072052,314.905762 
	C299.520874,314.319275 300.544800,311.975372 300.876923,310.292175 
	C301.761261,305.810150 304.061920,301.661285 304.375244,297.033539 
	C300.373077,295.204376 298.526123,299.111267 295.340454,299.829071 
	C294.573334,296.539612 296.611633,294.339600 298.770874,293.475464 
	C305.035797,290.968323 311.515350,291.574585 318.013824,292.992584 
	C317.523773,296.894379 314.965912,296.426849 312.977844,296.276825 
	C309.218597,295.993103 307.504028,297.502014 307.124237,301.248657 
	C306.807678,304.371063 305.943329,307.437958 305.277527,310.942169 
z"/>
<path fill="#000000" opacity="1.000000" stroke="none" 
	d="
M351.000366,304.068298 
	C356.613647,304.528564 361.941650,303.034058 367.213776,305.250000 
	C364.355194,308.695862 340.309784,309.244446 334.296234,305.818268 
	C339.981079,302.778381 345.429901,304.613678 351.000366,304.068298 
z"/>
<path fill="#000000" opacity="1.000000" stroke="none" 
	d="
M347.044861,298.984619 
	C342.832672,298.457123 338.695160,300.254333 335.214661,297.204712 
	C338.714264,294.277618 362.404083,294.023376 367.529785,297.133057 
	C360.736786,300.669006 353.943420,298.229858 347.044861,298.984619 
z"/>
<path fill="#000000" opacity="1.000000" stroke="none" 
	d="
M410.782654,313.731079 
	C409.414825,311.529175 409.214752,309.672363 411.280396,308.266174 
	C412.323090,307.556366 413.565063,307.661102 414.510254,308.490234 
	C415.741913,309.570648 416.062073,311.048553 415.460205,312.557159 
	C414.602295,314.707611 413.034149,315.064178 410.782654,313.731079 
z"/>
</svg>