<?xml version="1.0" standalone="no"?>
<!DOCTYPE svg PUBLIC "-//W3C//DTD SVG 20010904//EN"
 "http://www.w3.org/TR/2001/REC-SVG-20010904/DTD/svg10.dtd">
<svg version="1.0" xmlns="http://www.w3.org/2000/svg"
 width="1330.000000pt" height="800.000000pt" viewBox="0 0 1330.000000 800.000000"
 preserveAspectRatio="xMidYMid meet">
<metadata>
Created by potrace 1.10, written by Peter Selinger 2001-2011
</metadata>
<g transform="translate(0.000000,1284.000000) scale(0.100000,-0.100000)"
fill="#000000" stroke="none">
<path d="M595 12606 c-92 -35 -128 -90 -129 -197 -1 -59 3 -80 17 -93 9 -10
17 -23 17 -30 0 -21 72 -65 110 -67 81 -6 109 1 146 33 75 66 95 168 50 257
-26 50 -58 77 -116 98 -41 15 -54 15 -95 -1z m119 -73 c45 -49 47 -188 3 -239
-29 -33 -88 -42 -122 -20 -34 22 -55 77 -55 143 0 57 9 84 43 121 31 33 98 31
131 -5z"/>
<path d="M8317 12593 c-12 -12 -7 -20 18 -31 l26 -12 -3 -142 c-3 -140 -4
-143 -25 -146 -26 -4 -31 -27 -7 -36 9 -3 40 -6 69 -6 29 0 60 3 69 6 20 8 21
34 1 34 -27 0 -35 38 -35 159 0 118 1 121 25 137 48 31 32 44 -53 44 -43 0
-82 -3 -85 -7z"/>
<path d="M1238 12515 c-29 -27 -37 -70 -18 -105 5 -10 35 -34 65 -55 48 -31
56 -41 53 -63 -5 -41 -54 -43 -93 -2 -42 44 -59 40 -51 -12 4 -22 9 -45 12
-50 3 -4 38 -8 79 -8 54 0 78 4 89 16 28 27 38 55 31 82 -7 27 -71 92 -91 92
-18 0 -46 37 -42 56 1 9 11 22 20 28 14 9 24 4 56 -27 21 -20 41 -37 45 -37
10 0 9 88 -1 94 -4 2 -35 7 -67 11 -55 6 -62 4 -87 -20z"/>
<path d="M1523 12533 c-44 -3 -63 -8 -63 -17 0 -8 7 -16 15 -20 12 -4 15 -27
15 -116 0 -89 -3 -112 -15 -116 -20 -8 -19 -32 3 -38 9 -2 63 -5 119 -5 l102
-1 12 40 c7 22 9 43 6 47 -4 3 -24 -6 -46 -21 -29 -21 -48 -27 -77 -24 -38 3
-39 4 -42 46 -4 56 10 74 46 61 15 -6 35 -18 45 -27 16 -14 19 -14 27 -2 12
18 13 61 2 77 -6 9 -18 9 -51 -3 -60 -21 -73 -14 -69 38 3 41 4 43 39 46 27 2
44 -3 66 -22 35 -29 43 -25 43 20 0 46 -2 47 -177 37z"/>
<path d="M2043 12534 c-17 -7 -17 -30 0 -37 14 -5 48 -72 99 -192 37 -87 62
-107 74 -58 7 28 42 113 70 166 8 16 14 34 14 41 0 8 9 24 20 38 23 29 11 48
-29 48 -41 0 -58 -16 -44 -39 12 -19 8 -33 -36 -144 -10 -27 -31 -29 -31 -4 0
7 -12 41 -27 76 -20 46 -24 66 -15 69 24 8 12 32 -15 32 -16 0 -37 2 -48 5
-11 2 -26 2 -32 -1z"/>
<path d="M2433 12533 c-35 -2 -63 -7 -63 -10 0 -4 8 -15 18 -26 27 -30 25
-206 -3 -237 -16 -18 -17 -23 -5 -30 20 -13 222 -11 237 2 17 14 17 78 0 78
-7 0 -18 -9 -24 -20 -14 -22 -70 -35 -108 -26 -21 5 -25 12 -25 44 0 21 5 43
12 50 17 17 53 15 68 -3 31 -37 68 -4 54 49 -7 31 -4 30 -53 10 -30 -12 -44
-13 -60 -4 -24 12 -29 58 -9 78 19 19 70 14 94 -9 41 -38 77 6 38 45 -16 16
-28 17 -171 9z"/>
<path d="M2723 12533 c-64 -4 -74 -11 -48 -33 12 -10 15 -37 15 -126 0 -69 -4
-114 -10 -114 -16 0 -11 -27 6 -34 9 -3 49 -6 90 -6 59 0 83 5 113 22 78 45
101 152 48 222 -45 58 -99 75 -214 69z m103 -49 c51 -24 74 -59 74 -110 0 -61
-40 -106 -96 -108 l-39 -1 -3 104 c-4 142 -1 146 64 115z"/>
<path d="M3136 12532 c-3 -6 4 -26 17 -45 13 -19 30 -50 37 -68 7 -19 19 -48
26 -66 8 -17 14 -38 14 -46 0 -28 30 -87 44 -87 15 0 16 3 37 87 14 58 8 73
-20 56 -17 -11 -21 -5 -40 52 -13 39 -19 74 -15 89 5 21 3 26 -14 26 -11 0
-33 3 -50 6 -16 3 -32 1 -36 -4z"/>
<path d="M3467 12533 c-13 -3 -16 -10 -11 -21 11 -23 7 -93 -6 -106 -5 -5 -10
-20 -10 -33 0 -55 -37 -7 -60 76 -8 31 -8 47 -1 54 6 6 11 15 11 19 0 11 -107
10 -114 -1 -3 -4 6 -19 19 -31 18 -17 25 -34 25 -61 0 -27 7 -45 25 -63 14
-14 27 -42 31 -66 8 -46 35 -87 52 -76 6 3 14 21 17 39 11 53 37 127 46 133 5
3 9 16 9 29 0 13 11 37 25 53 14 17 25 34 25 40 0 19 -40 26 -83 15z"/>
<path d="M3651 12516 c-18 -14 -40 -34 -47 -45 -18 -25 -28 -100 -20 -145 9
-49 66 -106 108 -107 89 -3 114 6 148 53 25 35 30 50 30 101 0 43 -6 69 -21
93 -45 73 -136 96 -198 50z m123 -42 c65 -71 32 -214 -50 -214 -50 0 -74 37
-74 116 0 53 4 67 26 93 32 38 65 40 98 5z"/>
<path d="M4248 12532 c-22 -4 -23 -21 -4 -36 11 -8 15 -38 17 -113 2 -86 0
-105 -15 -122 -17 -19 -17 -20 3 -30 28 -15 214 -14 229 1 14 14 16 74 3 82
-5 3 -16 -5 -25 -18 -17 -26 -79 -43 -117 -31 -20 7 -21 12 -17 112 3 96 6
106 27 122 19 14 21 20 10 27 -14 9 -82 13 -111 6z"/>
<path d="M4583 12533 c-67 -4 -71 -7 -49 -32 20 -23 28 -218 10 -236 -34 -34
-10 -45 92 -45 95 0 143 24 175 88 27 55 22 109 -15 157 -44 57 -99 74 -213
68z m103 -49 c78 -37 100 -125 47 -184 -31 -35 -112 -55 -114 -29 -2 39 3 215
7 221 8 12 22 10 60 -8z"/>
<path d="M8724 12525 c-3 -8 1 -22 10 -30 11 -12 16 -35 16 -81 0 -35 -3 -64
-8 -64 -4 0 -38 41 -75 90 -65 87 -69 90 -107 90 -43 0 -50 -11 -24 -38 14
-14 16 -31 10 -114 -3 -54 -12 -108 -19 -119 -10 -16 -9 -21 3 -29 19 -12 71
-12 90 0 12 8 12 11 -2 27 -20 22 -36 147 -20 157 11 6 104 -107 151 -183 5
-8 16 -11 24 -8 12 5 15 28 15 127 0 97 3 125 16 139 9 10 16 22 16 28 0 25
-87 32 -96 8z"/>
<path d="M8869 12529 c-5 -3 -12 -22 -16 -42 -5 -31 -3 -37 13 -37 10 0 28 12
40 27 14 17 26 24 37 20 14 -5 17 -23 17 -115 0 -102 -2 -111 -22 -125 -20
-14 -21 -18 -8 -26 24 -17 110 -14 117 4 3 9 -2 21 -11 28 -14 10 -16 29 -14
121 3 119 12 135 49 92 13 -14 29 -26 36 -26 16 0 18 66 1 76 -13 9 -226 11
-239 3z"/>
<path d="M9225 12533 c-75 -5 -82 -10 -57 -34 20 -18 22 -30 22 -120 0 -92 -2
-102 -22 -120 -20 -16 -21 -20 -8 -29 18 -12 219 -13 238 -1 14 9 20 67 8 79
-4 4 -16 -3 -26 -16 -22 -27 -102 -41 -125 -22 -18 15 -20 71 -3 88 17 17 42
15 81 -8 31 -18 35 -19 41 -4 9 23 7 72 -3 78 -5 3 -26 -1 -47 -10 -49 -21
-84 -7 -84 34 0 15 5 33 12 40 19 19 76 15 95 -8 19 -22 52 -27 54 -7 6 63
-16 71 -176 60z"/>
<path d="M9743 12533 c-18 -6 -16 -28 2 -43 16 -14 70 -125 100 -205 10 -27
22 -54 26 -58 13 -16 47 13 53 46 3 19 17 56 30 83 13 27 27 60 31 74 4 14 16
37 26 52 11 14 19 31 19 36 0 16 -36 24 -70 17 -31 -7 -38 -19 -19 -31 12 -7
4 -71 -11 -89 -5 -5 -10 -23 -12 -40 -5 -50 -29 -35 -62 38 -25 59 -28 72 -17
89 7 11 11 21 9 23 -7 5 -94 12 -105 8z"/>
<path d="M10128 12533 c-40 -3 -58 -8 -58 -17 0 -8 7 -16 15 -20 23 -9 22
-221 -2 -234 -9 -6 -14 -16 -10 -25 5 -13 27 -16 121 -16 l116 0 15 36 c22 52
6 63 -44 29 -29 -21 -48 -27 -77 -24 -36 3 -39 5 -42 37 -2 19 -1 44 2 58 6
20 11 22 34 17 15 -4 37 -16 50 -28 20 -17 24 -18 32 -6 22 35 4 104 -22 83
-7 -7 -31 -13 -53 -15 l-40 -3 0 45 c0 44 0 45 36 48 27 2 44 -3 67 -23 28
-23 32 -24 40 -9 11 19 4 55 -12 66 -11 8 -56 8 -168 1z"/>
<path d="M10373 12533 c-19 -7 -16 -20 8 -44 20 -20 21 -28 15 -117 -5 -69
-12 -102 -23 -115 -15 -16 -15 -19 -3 -27 19 -12 71 -12 90 0 12 8 11 12 -8
30 -19 18 -22 31 -22 90 0 38 4 71 8 74 9 5 108 -118 132 -165 14 -26 20 -30
52 -33 8 -1 12 36 14 128 3 106 6 132 21 148 15 17 15 21 3 28 -17 11 -61 13
-84 4 -17 -7 -22 -30 -7 -36 11 -3 41 -135 33 -143 -11 -11 -43 19 -98 91 -63
82 -94 103 -131 87z"/>
<path d="M10763 12533 c-64 -4 -75 -11 -48 -33 23 -19 21 -216 -2 -242 -27
-30 -2 -38 119 -38 l108 0 15 36 c23 55 6 70 -35 32 -18 -17 -36 -22 -74 -23
-49 0 -51 1 -54 29 -2 15 -1 39 2 52 8 31 51 32 83 2 20 -19 25 -20 33 -8 22
35 4 103 -22 83 -7 -5 -27 -13 -45 -16 -39 -8 -56 10 -51 55 3 32 4 33 51 32
37 0 51 -5 63 -23 13 -17 19 -20 30 -10 19 15 18 44 -2 63 -16 16 -28 17 -171
9z"/>
<path d="M11058 12533 c-40 -3 -58 -8 -58 -17 0 -8 7 -16 15 -20 23 -9 22
-212 -2 -238 -27 -30 -1 -39 103 -36 70 2 94 7 108 21 10 9 22 17 26 17 5 0
19 19 30 42 43 89 15 172 -70 211 -44 20 -80 24 -152 20z m98 -49 c49 -23 74
-63 74 -117 0 -39 -5 -49 -36 -77 -27 -23 -44 -30 -67 -28 l-32 3 -3 104 c-4
142 -1 146 64 115z"/>
<path d="M11465 12526 c-19 -14 -19 -15 -1 -22 27 -10 106 -198 106 -251 0
-19 5 -23 30 -23 26 0 30 4 30 28 0 37 32 123 44 119 5 -2 18 -34 29 -73 10
-38 23 -73 29 -79 15 -16 48 32 48 70 0 19 6 40 13 47 6 7 21 39 32 72 10 32
27 69 38 82 10 13 15 28 12 34 -7 11 -54 13 -79 4 -18 -7 -22 -34 -5 -34 7 0
9 -10 5 -27 -4 -16 -10 -46 -14 -68 -5 -31 -12 -40 -26 -40 -28 0 -72 118 -50
136 26 21 14 29 -46 29 -33 0 -60 -3 -60 -6 0 -3 11 -20 25 -38 14 -18 25 -39
25 -46 0 -29 -24 -90 -35 -90 -17 0 -57 125 -49 155 5 21 3 25 -17 25 -13 0
-33 3 -44 6 -11 3 -29 -2 -40 -10z"/>
<path d="M11966 12499 c-35 -35 -46 -54 -51 -90 -9 -59 7 -116 44 -156 28 -31
34 -33 100 -33 69 0 70 0 105 42 37 42 42 64 37 143 -5 79 -55 126 -138 133
-52 4 -54 3 -97 -39z m140 -24 c56 -52 39 -196 -24 -212 -46 -11 -76 8 -93 61
-20 60 -9 120 29 154 32 29 55 28 88 -3z"/>
<path d="M12257 12528 c-8 -5 -5 -13 7 -27 15 -17 19 -38 20 -120 1 -85 -2
-102 -19 -121 -16 -18 -17 -23 -5 -31 15 -10 96 -6 107 5 3 3 -1 14 -10 24
-23 25 -27 85 -6 90 11 2 30 -18 55 -58 38 -59 63 -76 101 -68 25 5 28 33 4
44 -10 5 -35 29 -55 53 l-37 44 30 18 c52 32 53 92 3 128 -20 14 -48 20 -106
23 -43 1 -83 0 -89 -4z m150 -50 c31 -29 29 -50 -8 -77 -43 -32 -59 -22 -59
37 0 27 3 52 7 55 12 13 37 7 60 -15z"/>
<path d="M12563 12522 c-4 -8 1 -19 10 -24 25 -13 25 -213 0 -240 -9 -10 -13
-21 -9 -26 4 -4 58 -8 121 -10 l113 -4 16 33 c30 60 14 84 -29 45 -27 -25
-103 -44 -124 -31 -12 7 -15 173 -5 213 4 12 13 22 20 22 8 0 14 7 14 15 0 17
2 17 -68 20 -40 1 -55 -2 -59 -13z"/>
<path d="M12920 12533 c-63 -5 -81 -16 -51 -32 19 -11 21 -20 21 -118 0 -85
-3 -110 -17 -125 -9 -10 -13 -21 -9 -26 4 -4 49 -9 99 -10 82 -3 95 -1 116 17
13 12 27 21 32 21 18 0 49 74 49 116 0 63 -31 110 -90 137 -44 20 -80 24 -150
20z m96 -49 c48 -23 74 -63 74 -114 0 -35 -6 -48 -35 -77 -28 -28 -41 -34 -67
-31 l-33 3 -3 104 c-4 142 -1 146 64 115z"/>
<path d="M880 12516 c0 -8 7 -16 15 -20 12 -4 15 -27 15 -114 0 -102 -1 -111
-22 -125 -36 -24 -13 -32 92 -32 90 0 100 2 124 24 19 18 26 35 26 63 0 21 -4
38 -10 38 -5 0 -14 9 -20 20 -8 15 -7 26 5 44 21 32 11 71 -25 96 -23 16 -44
20 -114 20 -67 0 -86 -3 -86 -14z m159 -40 c29 -30 24 -58 -12 -70 -50 -18
-75 22 -53 81 8 21 40 15 65 -11z m-3 -122 c40 -31 43 -57 10 -80 -55 -35
-101 14 -75 79 14 34 22 34 65 1z"/>
<path d="M1750 12523 c0 -3 7 -14 15 -23 11 -12 18 -49 22 -118 5 -93 4 -101
-15 -118 -16 -13 -19 -21 -10 -31 12 -15 76 -17 98 -3 12 8 12 11 -3 28 -21
23 -23 92 -3 92 7 0 31 -26 52 -57 22 -32 44 -61 49 -65 15 -11 73 -9 80 2 4
6 -19 34 -49 63 -31 29 -56 57 -56 63 0 6 14 20 30 32 41 31 41 74 -1 113 -30
28 -36 29 -120 29 -49 0 -89 -3 -89 -7z m159 -47 c28 -29 25 -52 -11 -79 -37
-28 -58 -17 -58 32 0 75 26 93 69 47z"/>
<path d="M3920 12519 c0 -6 7 -17 15 -25 23 -23 22 -219 -2 -232 -10 -6 -14
-16 -10 -26 8 -19 67 -22 99 -5 19 10 20 13 5 23 -8 7 -17 30 -19 51 -5 59 20
56 62 -7 41 -63 57 -78 84 -78 51 1 51 17 -1 67 -58 56 -71 81 -45 90 25 9 52
45 52 71 0 14 -13 36 -31 53 -30 28 -36 29 -120 29 -57 0 -89 -4 -89 -11z
m155 -44 c14 -13 25 -28 25 -34 0 -23 -63 -67 -80 -56 -11 7 -14 98 -3 108 13
13 34 7 58 -18z"/>
<path d="M9450 12516 c0 -8 5 -16 12 -18 8 -3 14 -39 16 -106 4 -84 1 -107
-13 -128 -14 -22 -15 -28 -4 -35 21 -13 73 -11 93 4 16 12 16 14 -3 31 -26 23
-30 86 -6 86 9 0 37 -29 63 -65 40 -55 51 -65 77 -65 16 0 37 5 45 11 13 9 12
12 -5 22 -25 15 -105 99 -105 110 0 4 11 12 24 17 53 20 60 79 15 121 -30 28
-36 29 -120 29 -70 0 -89 -3 -89 -14z m152 -33 c31 -27 23 -67 -17 -88 -41
-23 -50 -16 -49 33 0 70 26 92 66 55z"/>
<path d="M6500 11701 c-79 -13 -178 -54 -229 -95 -57 -46 -171 -170 -171 -188
0 -10 -4 -18 -10 -18 -5 0 -13 -12 -16 -27 -4 -16 -11 -34 -16 -40 -10 -13
-31 -146 -30 -193 0 -14 3 -37 7 -51 6 -22 3 -27 -17 -33 -26 -8 -163 -33
-249 -45 -30 -5 -65 -13 -77 -20 -11 -6 -40 -11 -64 -11 -24 0 -61 -5 -83 -11
-63 -16 -174 -38 -249 -49 -38 -5 -74 -14 -80 -19 -6 -4 -46 -11 -88 -14 -43
-4 -86 -11 -95 -16 -19 -10 -104 -26 -215 -41 -37 -5 -75 -13 -85 -18 -15 -8
-105 -25 -137 -27 -6 0 -10 148 -10 365 -1 389 2 365 -51 445 -25 39 -40 51
-95 78 l-45 22 -1755 0 c-1707 0 -1756 -1 -1795 -19 -46 -22 -91 -65 -123
-117 l-22 -37 2 -2968 3 -2969 34 -48 c37 -51 86 -86 141 -101 49 -14 3443
-20 3490 -7 19 6 47 12 62 15 31 7 107 78 134 126 18 34 19 74 21 1510 1 811
2 1482 3 1490 0 8 17 33 38 55 21 22 63 72 92 110 30 39 57 72 60 75 4 3 31
37 60 75 30 39 64 81 77 95 13 14 23 28 23 31 0 3 10 17 23 31 36 41 61 72 78
98 9 14 27 36 39 50 12 14 43 52 68 85 26 33 52 66 59 73 7 7 34 41 60 75 43
56 150 192 192 242 9 11 41 52 71 90 30 39 65 81 77 95 13 14 23 28 23 31 0 3
10 17 23 31 36 41 61 72 78 98 9 14 27 36 39 50 12 14 43 52 68 85 26 33 54
69 64 80 9 11 48 61 87 110 39 50 74 95 78 100 70 88 89 111 93 115 3 3 17 21
30 40 13 19 30 41 37 48 7 7 13 18 13 23 0 18 33 8 90 -26 32 -19 69 -35 82
-35 13 0 30 -6 36 -12 9 -9 53 -13 147 -13 94 0 138 4 147 13 6 6 24 12 39 12
15 0 34 7 43 15 8 8 19 15 24 15 5 0 28 14 52 31 l44 32 24 -29 c13 -16 33
-40 45 -54 11 -14 34 -41 51 -60 17 -20 51 -60 76 -90 25 -29 57 -66 72 -82
15 -15 30 -33 35 -41 7 -12 83 -103 123 -146 8 -10 37 -44 65 -76 47 -57 81
-96 115 -134 8 -9 51 -59 95 -111 44 -52 89 -106 101 -120 13 -14 55 -63 95
-110 39 -47 75 -87 78 -90 4 -3 17 -18 30 -35 24 -32 115 -137 142 -166 9 -9
21 -23 25 -31 7 -12 73 -89 129 -152 15 -16 117 -137 140 -165 11 -13 27 -32
35 -41 8 -9 51 -58 95 -110 44 -52 89 -106 101 -120 13 -14 55 -63 95 -110 39
-47 75 -87 78 -90 4 -3 17 -18 30 -35 22 -29 110 -132 141 -165 8 -9 33 -38
55 -65 22 -28 48 -59 58 -70 10 -11 51 -58 90 -105 39 -47 104 -118 144 -159
40 -41 73 -80 73 -87 0 -7 -21 -24 -46 -39 -48 -28 -52 -43 -13 -62 13 -6 72
-35 131 -65 59 -29 117 -57 128 -63 11 -5 20 -14 20 -19 0 -5 -21 -31 -47 -57
-119 -123 -170 -321 -127 -490 9 -34 19 -70 24 -78 43 -92 65 -124 130 -190
75 -76 147 -122 211 -136 19 -4 40 -12 48 -19 9 -7 61 -11 140 -11 101 0 132
4 156 18 17 9 37 17 47 17 31 0 116 52 170 103 161 155 213 308 181 532 -12
80 -57 173 -117 242 -21 24 -37 46 -35 48 11 10 201 95 213 95 8 0 17 4 20 9
4 5 24 12 46 16 23 4 40 12 40 20 0 7 -21 31 -47 53 l-48 41 25 17 c37 26 400
397 530 542 l66 73 34 -31 c18 -16 40 -30 47 -30 7 0 13 -4 13 -9 0 -5 11 -12
25 -15 14 -4 25 -10 25 -15 0 -5 19 -12 43 -16 23 -4 48 -12 56 -18 20 -17
246 -16 262 1 7 6 24 12 39 12 14 0 36 6 50 14 14 7 44 23 66 35 40 21 127 99
170 152 32 39 85 149 97 199 13 59 13 222 -1 285 -11 53 -57 147 -95 193 -67
82 -209 192 -249 192 -8 0 -19 5 -24 10 -20 20 -181 32 -267 21 -45 -6 -86
-16 -91 -21 -6 -6 -19 -10 -29 -10 -10 0 -30 -9 -44 -20 -14 -11 -31 -20 -39
-20 -19 0 -190 -171 -199 -200 -4 -13 -14 -30 -21 -38 -8 -7 -14 -22 -14 -33
0 -11 -6 -30 -14 -42 -7 -12 -19 -56 -25 -97 -10 -61 -9 -93 3 -165 8 -50 21
-103 30 -120 9 -16 16 -36 16 -42 0 -7 4 -13 9 -13 5 0 13 -12 19 -27 5 -16
21 -39 35 -53 14 -14 27 -33 29 -42 2 -11 -71 -93 -203 -230 -114 -117 -235
-242 -269 -278 -34 -36 -73 -82 -86 -103 -23 -35 -26 -36 -47 -22 -12 8 -33
28 -46 45 -29 37 -44 28 -65 -39 -25 -77 -45 -130 -77 -197 l-30 -65 -47 39
c-51 42 -92 65 -161 89 -51 17 -313 21 -334 5 -7 -5 -27 -13 -44 -17 -18 -3
-33 -10 -33 -15 0 -4 -10 -10 -22 -14 -13 -3 -36 -17 -51 -32 -36 -33 -53 -26
-68 28 -7 24 -19 52 -26 63 -7 11 -13 30 -13 43 0 13 -5 33 -12 45 -7 12 -15
42 -18 67 -7 59 -37 67 -76 21 -36 -43 -57 -39 -92 17 -16 26 -40 59 -53 73
-30 32 -108 123 -145 169 -16 19 -31 37 -34 40 -3 3 -36 41 -74 85 -38 44 -90
105 -116 135 -26 30 -87 102 -136 160 -48 58 -91 107 -94 110 -4 3 -44 49 -89
104 -45 54 -87 104 -94 111 -7 7 -25 29 -42 49 -31 39 -46 56 -105 122 -19 22
-53 62 -75 89 -21 28 -42 52 -45 55 -3 3 -36 41 -74 85 -127 148 -171 199
-186 215 -8 9 -33 38 -55 65 -35 44 -69 84 -100 119 -31 34 -86 98 -125 146
-25 29 -57 66 -72 82 -15 15 -30 34 -35 41 -6 11 -67 83 -128 151 -5 6 -32 38
-60 71 -52 63 -80 95 -139 159 -20 21 -36 42 -36 45 0 3 -15 22 -33 42 -17 19
-54 62 -82 94 -89 105 -130 150 -143 158 -15 10 -6 28 43 82 20 22 41 49 46
60 5 11 13 27 18 35 19 31 41 89 41 108 0 24 35 39 53 24 12 -10 64 -20 237
-46 47 -7 91 -16 98 -20 7 -4 45 -12 85 -16 74 -9 197 -31 277 -49 25 -6 65
-10 91 -11 25 0 49 -4 55 -10 5 -5 45 -14 89 -20 132 -17 229 -35 242 -43 7
-4 49 -10 95 -14 46 -3 88 -9 93 -14 6 -4 44 -13 85 -18 152 -22 236 -37 250
-46 8 -5 55 -9 105 -9 l90 -1 -1 -30 c-1 -16 -3 -48 -5 -70 -5 -47 -2 -48 106
-15 39 11 98 25 132 29 34 5 66 12 72 15 17 11 25 -17 26 -94 0 -41 6 -98 12
-126 14 -59 67 -163 105 -206 15 -17 29 -34 30 -37 6 -13 116 -101 126 -101 6
0 12 -3 14 -7 2 -5 20 -17 41 -27 34 -17 67 -26 165 -43 18 -3 34 -9 37 -13 2
-4 5 -432 5 -951 l1 -944 -57 0 c-34 0 -59 -5 -61 -11 -2 -7 10 -35 27 -63 16
-29 30 -57 30 -62 0 -6 6 -23 14 -37 24 -47 46 -102 46 -115 0 -7 5 -18 12
-25 15 -15 48 3 48 28 0 11 7 36 16 57 9 21 24 54 32 73 8 19 19 42 23 50 24
42 39 85 35 97 -4 10 -19 12 -59 7 -42 -5 -55 -3 -66 10 -11 13 -11 19 0 33
12 13 14 174 16 937 l2 921 38 7 c109 20 133 28 192 59 73 38 217 175 227 215
3 13 10 24 15 24 5 0 9 6 9 13 0 6 7 26 16 42 18 34 37 138 37 205 -1 144 -40
252 -133 368 -50 62 -189 162 -226 162 -12 0 -24 5 -26 10 -2 6 -44 17 -93 25
-78 12 -100 12 -172 0 -45 -8 -90 -18 -100 -23 -10 -5 -40 -20 -68 -33 -45
-22 -77 -44 -140 -97 -62 -52 -138 -183 -149 -254 l-7 -47 -47 26 c-46 25
-137 80 -157 95 -5 4 -24 19 -40 32 -17 13 -40 26 -50 28 -18 3 -21 -4 -25
-54 -3 -31 -8 -59 -10 -62 -3 -3 -24 1 -45 9 -22 8 -53 14 -68 15 -16 0 -36 4
-46 9 -17 10 -88 23 -241 44 -47 7 -90 15 -97 20 -6 4 -47 12 -90 17 -43 5
-114 16 -158 25 -44 9 -100 20 -125 25 -25 5 -65 9 -90 9 -26 1 -51 6 -56 11
-6 6 -44 15 -85 20 -95 13 -223 36 -274 49 -22 6 -63 11 -90 11 -28 0 -55 4
-60 9 -6 6 -44 15 -85 21 -41 6 -113 17 -160 26 -47 8 -103 18 -125 22 l-40 7
-6 100 c-5 96 -21 170 -40 190 -5 5 -9 15 -9 21 0 15 -68 119 -98 150 -32 34
-161 128 -187 138 -107 38 -234 52 -325 37z m239 -67 c14 -8 34 -14 43 -14 47
0 208 -129 244 -195 10 -19 22 -35 26 -35 5 0 8 -8 8 -17 0 -10 7 -31 15 -47
41 -78 44 -294 5 -368 -11 -21 -20 -45 -20 -53 0 -8 -3 -15 -8 -15 -4 0 -16
-17 -27 -37 -71 -134 -284 -242 -452 -230 -82 6 -178 28 -195 45 -6 6 -16 12
-21 12 -23 0 -117 75 -158 127 -47 60 -65 89 -96 158 -25 55 -24 294 1 340 9
17 16 36 16 43 0 17 59 107 97 147 36 39 165 125 188 125 9 0 31 7 48 15 18 8
48 16 67 18 58 7 190 -4 219 -19z m-2340 0 c58 -19 102 -63 124 -124 15 -39
17 -94 17 -392 l0 -347 -37 -6 c-21 -3 -59 -13 -85 -21 -26 -9 -57 -14 -70
-12 -20 3 -23 9 -26 56 -2 34 -8 55 -17 58 -8 3 -40 -14 -72 -39 -61 -46 -126
-89 -181 -120 -38 -20 -62 -10 -62 25 0 24 -40 118 -50 118 -4 0 -10 10 -14
23 -10 39 -150 171 -193 183 -13 3 -23 10 -23 14 0 5 -15 12 -32 15 -18 4 -38
12 -45 17 -6 5 -50 16 -97 23 -74 12 -98 12 -167 0 -45 -8 -86 -18 -93 -23 -6
-5 -24 -12 -40 -16 -111 -27 -272 -198 -324 -346 -19 -53 -23 -304 -5 -342 43
-93 58 -124 65 -133 5 -5 22 -26 38 -45 16 -19 30 -39 30 -45 -1 -5 -107 -118
-237 -250 -228 -232 -333 -347 -333 -364 0 -5 -8 -12 -17 -15 -12 -5 -28 5
-55 33 -20 23 -43 41 -50 41 -7 0 -21 -28 -31 -63 -20 -67 -39 -119 -68 -183
-11 -22 -19 -46 -19 -52 0 -22 -45 -12 -76 17 -16 16 -40 31 -51 35 -12 4 -27
13 -33 21 -7 8 -22 15 -34 15 -12 0 -26 4 -32 10 -16 16 -163 32 -228 25 -72
-7 -196 -43 -196 -56 0 -5 -6 -9 -14 -9 -40 0 -236 -196 -236 -236 0 -8 -4
-14 -9 -14 -5 0 -13 -15 -16 -32 -4 -18 -12 -39 -19 -47 -7 -9 -11 -69 -11
-170 l0 -156 42 -86 c69 -138 228 -280 333 -296 19 -3 41 -10 48 -16 19 -15
245 -15 263 -1 8 7 33 15 57 19 23 4 42 11 42 16 0 5 6 9 14 9 8 0 38 18 67
40 30 22 57 40 61 40 4 0 47 -41 95 -92 48 -50 184 -189 301 -307 116 -119
212 -220 212 -226 0 -5 -19 -27 -42 -47 -49 -42 -47 -47 32 -73 78 -26 250
-107 250 -118 0 -5 -11 -17 -24 -28 -29 -23 -92 -127 -114 -189 -21 -58 -24
-312 -4 -331 6 -7 12 -19 12 -27 0 -41 77 -160 147 -227 57 -55 148 -110 195
-119 20 -4 50 -14 68 -22 24 -13 55 -15 138 -12 59 2 116 9 127 16 11 6 39 16
62 22 80 20 255 161 269 218 4 12 9 22 13 22 9 0 51 94 51 113 0 7 6 19 13 26
17 17 17 254 -2 301 -27 72 -56 130 -63 130 -5 0 -8 6 -8 14 0 7 -23 38 -50
67 -55 58 -62 84 -27 95 12 3 29 12 37 19 24 21 188 105 205 105 9 0 15 9 15
24 0 18 -10 31 -40 47 -22 13 -40 29 -40 36 0 8 15 28 33 46 17 18 57 64 87
102 30 39 65 81 77 95 13 14 23 28 23 31 0 3 10 17 22 31 29 31 69 80 88 108
8 12 24 32 35 44 11 13 45 57 75 99 30 42 60 77 65 77 7 0 9 -476 8 -1412 -2
-1288 -4 -1418 -19 -1468 -17 -56 -36 -81 -89 -115 -30 -20 -59 -20 -1795 -20
-1748 0 -1765 0 -1795 20 -39 26 -56 45 -77 84 -17 31 -18 192 -18 2970 0
2737 1 2940 17 2972 25 50 62 84 113 101 40 14 240 16 1758 17 1534 1 1718 -1
1761 -15z m-784 -599 c17 -8 51 -23 77 -35 104 -47 231 -198 253 -301 4 -16
11 -31 16 -34 5 -4 9 -49 9 -102 0 -93 -14 -161 -46 -225 -8 -14 -14 -31 -14
-38 0 -6 -6 -18 -12 -26 -7 -8 -29 -33 -48 -57 -70 -86 -180 -152 -295 -175
-86 -17 -111 -17 -200 0 -197 38 -341 172 -399 369 -17 61 -22 234 -7 244 6 3
13 25 17 50 3 24 12 50 20 56 8 6 14 18 14 26 0 7 4 19 10 26 85 105 160 177
186 177 6 0 17 7 24 15 7 8 22 15 34 15 12 0 31 7 42 14 38 27 261 27 319 1z
m6523 -2 c7 -7 22 -13 33 -13 28 0 118 -58 169 -110 47 -48 110 -141 110 -163
0 -7 7 -23 16 -36 14 -19 17 -50 17 -161 1 -144 2 -135 -55 -258 -23 -50 -141
-170 -190 -193 -70 -34 -95 -43 -158 -57 -126 -27 -220 -12 -359 56 -48 24
-172 150 -194 197 -10 22 -26 54 -34 70 -10 20 -17 74 -20 166 -6 140 -1 165
48 249 5 8 13 25 19 38 15 36 145 161 179 173 17 6 31 15 31 20 0 5 13 9 29 9
16 0 34 7 41 15 22 27 291 26 318 -2z m-4085 -61 c9 -21 17 -42 17 -46 0 -12
-28 -36 -41 -36 -7 0 -56 -21 -109 -46 -52 -25 -138 -66 -190 -91 -52 -25
-135 -65 -185 -88 -49 -24 -110 -53 -135 -64 -25 -12 -52 -25 -60 -30 -17 -9
-137 -66 -160 -75 -8 -3 -22 -10 -30 -15 -15 -9 -123 -60 -315 -150 -60 -29
-121 -58 -135 -66 -90 -48 -119 -62 -122 -60 -6 6 0 526 5 532 4 3 42 9 86 13
44 5 89 13 100 19 11 6 37 11 58 11 21 0 56 5 78 11 61 16 182 39 259 49 38 5
74 14 80 20 5 5 28 10 50 10 23 1 61 5 86 11 121 26 200 42 256 49 34 4 67 11
75 16 7 4 50 13 94 20 44 7 107 19 140 27 33 8 65 15 71 16 5 0 18 -16 27 -37z
m62 -136 c9 -19 36 -54 61 -78 24 -23 44 -47 44 -53 0 -5 -21 -32 -46 -60 -24
-27 -48 -54 -52 -60 -73 -94 -121 -155 -139 -175 -13 -14 -23 -28 -23 -31 0
-3 -10 -17 -22 -31 -39 -42 -62 -72 -80 -100 -10 -15 -26 -35 -36 -45 -10 -10
-34 -38 -52 -63 -51 -66 -54 -69 -71 -88 -8 -9 -37 -46 -64 -82 -27 -36 -52
-67 -55 -70 -3 -3 -37 -45 -75 -95 -38 -49 -72 -92 -75 -95 -3 -3 -30 -36 -60
-75 -30 -38 -65 -81 -77 -95 -13 -14 -23 -28 -23 -32 0 -4 -8 -15 -18 -25 -10
-10 -40 -47 -67 -83 -27 -36 -55 -71 -62 -78 -7 -7 -34 -41 -60 -75 -26 -34
-75 -96 -108 -137 -33 -42 -71 -90 -85 -109 -14 -18 -41 -52 -60 -75 -72 -86
-105 -129 -114 -145 -5 -9 -12 -18 -15 -21 -15 -12 -68 -87 -75 -104 -3 -10
-9 -16 -12 -13 -4 3 -6 344 -6 758 1 711 2 752 19 765 10 7 24 14 32 14 7 0
59 23 116 50 57 28 108 50 114 50 6 0 11 5 11 10 0 6 6 10 12 10 7 0 67 27
133 59 66 32 130 62 143 66 12 3 22 11 22 16 0 5 7 9 15 9 9 0 40 13 69 29 30
15 65 31 80 35 14 3 26 11 26 16 0 6 5 10 11 10 7 0 45 16 85 35 40 19 77 35
83 35 6 0 11 5 11 10 0 6 5 10 12 10 6 0 57 22 112 49 56 26 120 57 144 67 23
10 42 21 42 26 0 4 6 8 14 8 18 0 160 71 164 82 9 21 42 5 57 -26z m-1579
-115 c5 -6 8 -117 6 -276 l-3 -265 -47 -21 c-47 -21 -140 -64 -322 -151 -215
-103 -255 -123 -258 -130 -2 -4 -11 -8 -19 -8 -8 0 -61 -22 -118 -50 -57 -27
-107 -50 -113 -50 -6 0 -12 -3 -14 -7 -3 -8 -90 -53 -102 -53 -4 0 -14 -7 -23
-15 -8 -9 -23 -15 -31 -13 -14 3 -16 23 -16 148 l1 145 39 7 c112 20 143 29
189 53 62 33 135 91 172 136 15 19 30 36 33 39 15 13 70 113 76 137 4 16 11
34 17 41 6 7 10 66 10 133 l-1 121 26 -6 c15 -3 56 -10 92 -17 36 -6 93 -19
128 -30 101 -31 125 -24 97 30 -8 17 -15 41 -15 56 0 23 3 25 48 25 26 0 65 7
87 15 49 17 49 17 61 6z m4 -1369 c0 -853 7 -772 -75 -865 -22 -25 -52 -60
-66 -79 -15 -18 -57 -70 -93 -115 -36 -45 -66 -85 -66 -88 0 -3 -8 -13 -17
-23 -45 -47 -172 -213 -199 -259 -10 -18 -23 -33 -28 -33 -6 0 -29 19 -53 42
l-42 41 -9 -24 c-19 -49 -32 -96 -32 -115 0 -23 -25 -103 -51 -162 -19 -43
-20 -44 -42 -28 -12 9 -34 22 -49 29 -16 6 -28 15 -28 18 0 4 -15 11 -32 14
-18 4 -38 11 -43 16 -6 4 -42 9 -80 11 -40 2 -69 7 -68 13 7 33 51 142 87 215
52 105 50 124 -7 114 -23 -4 -48 -7 -55 -8 -11 -1 -13 137 -13 778 0 428 2
780 3 781 2 1 26 12 53 24 28 12 91 42 140 65 50 24 137 66 195 93 58 28 147
70 198 94 51 24 175 85 275 135 100 49 185 87 190 84 4 -4 7 -349 7 -768z
m-1421 739 c82 -65 153 -93 269 -108 23 -3 42 -8 42 -12 0 -3 1 -74 2 -158 1
-167 -1 -175 -60 -188 -18 -3 -32 -11 -32 -16 0 -5 -5 -9 -12 -9 -6 0 -41 -14
-77 -31 -354 -166 -582 -281 -588 -296 -13 -35 -45 -2 -67 70 -9 28 -41 20
-67 -17 -13 -18 -59 -70 -101 -115 -43 -45 -78 -87 -78 -93 0 -6 -11 -1 -25
12 -14 13 -25 28 -25 34 0 5 -14 25 -31 42 -19 20 -29 39 -26 48 3 8 46 33 94
56 48 23 102 48 118 55 17 8 42 17 58 21 37 8 34 31 -9 68 -29 25 -35 36 -30
54 4 12 13 22 21 22 14 0 494 489 542 552 15 21 32 37 37 38 4 0 25 -13 45
-29z m313 -1265 l3 -758 -57 6 c-73 7 -83 -14 -39 -84 29 -45 92 -203 94 -235
2 -18 -6 -21 -68 -26 -105 -9 -175 -38 -245 -101 -43 -38 -55 -33 -85 39 -48
116 -75 195 -75 219 0 37 -37 30 -74 -12 -25 -29 -36 -35 -54 -30 -12 4 -22
13 -22 20 0 6 -34 48 -76 91 -42 44 -135 143 -207 219 -73 76 -167 173 -209
215 -43 42 -78 78 -78 82 0 3 14 21 31 40 17 19 35 43 40 54 5 11 18 34 28 51
10 17 22 46 26 65 4 19 12 40 18 47 6 8 11 62 11 125 1 89 -3 120 -17 150 -10
21 -17 50 -15 65 4 34 36 41 205 41 74 1 124 5 128 12 4 5 -5 28 -20 49 -33
48 -27 76 18 85 18 3 68 23 112 44 84 41 200 94 225 105 8 3 22 10 30 15 8 6
65 33 125 61 61 28 124 59 140 68 63 34 100 50 102 44 2 -4 4 -348 5 -766z
m-1458 529 c11 -8 32 -15 48 -15 15 0 28 -4 28 -9 0 -5 10 -13 23 -17 61 -19
172 -131 216 -219 31 -63 61 -177 61 -233 0 -43 -28 -160 -46 -194 -8 -14 -14
-31 -14 -37 0 -33 -148 -201 -177 -201 -6 0 -18 -6 -25 -12 -25 -23 -79 -48
-104 -48 -14 0 -41 -7 -61 -15 -19 -8 -61 -15 -93 -15 -32 0 -74 7 -93 15 -20
8 -47 15 -61 15 -23 0 -85 27 -96 42 -3 4 -15 11 -27 15 -44 17 -173 154 -173
185 0 8 -5 19 -11 25 -29 29 -48 119 -48 223 0 104 8 143 51 237 12 29 86 123
113 145 6 5 24 20 40 34 17 14 42 30 58 36 15 5 27 14 27 19 0 5 13 9 28 9 16
0 37 7 48 15 14 11 50 14 144 14 94 0 130 -3 144 -14z m9772 0 c16 -8 39 -15
50 -15 12 0 27 -7 34 -15 7 -8 17 -15 22 -15 14 0 86 -58 135 -109 23 -24 59
-78 80 -120 l38 -76 0 -145 0 -145 -35 -70 c-94 -187 -243 -285 -458 -302 -44
-3 -75 0 -103 11 -22 9 -50 16 -64 16 -14 0 -47 14 -73 30 -27 17 -53 30 -58
30 -9 0 -118 111 -139 141 -5 8 -17 30 -26 49 -8 19 -24 52 -34 72 -26 54 -26
281 0 336 10 20 25 53 34 72 21 47 27 55 88 117 58 59 152 123 181 123 10 0
27 7 38 15 27 21 250 21 290 0z m-8164 -1681 c15 -8 38 -14 51 -14 14 0 30 -7
37 -15 7 -8 19 -15 27 -15 42 0 168 -128 211 -215 77 -155 81 -308 13 -455
-22 -49 -91 -138 -137 -179 -44 -38 -143 -91 -172 -91 -10 0 -27 -7 -38 -15
-27 -20 -212 -21 -240 0 -10 8 -30 15 -44 15 -14 0 -34 7 -44 15 -11 8 -26 15
-33 15 -19 0 -36 14 -130 108 -46 46 -83 90 -83 99 0 8 -6 27 -14 41 -34 63
-48 138 -43 228 5 93 24 175 45 196 7 7 12 18 12 26 0 41 171 212 213 212 7 0
18 5 25 12 15 15 90 37 157 47 64 9 152 2 187 -15z m6521 0 c20 -8 46 -14 56
-14 10 0 24 -7 31 -15 7 -8 19 -15 27 -15 8 0 35 -14 61 -31 40 -27 61 -48
127 -132 10 -12 30 -51 61 -120 24 -55 25 -303 0 -338 -9 -13 -16 -30 -16 -37
0 -18 -60 -107 -102 -153 -46 -50 -109 -96 -141 -104 -15 -4 -30 -11 -33 -16
-3 -5 -15 -9 -28 -9 -12 0 -31 -7 -42 -15 -14 -10 -47 -14 -124 -14 -77 0
-110 4 -124 14 -11 8 -30 15 -42 15 -13 0 -25 4 -28 9 -3 5 -17 12 -32 15 -37
10 -148 95 -175 136 -13 19 -27 37 -30 40 -4 3 -22 37 -40 75 -34 70 -34 71
-34 215 1 121 4 150 18 170 9 13 17 31 17 38 0 21 67 117 115 164 44 44 146
102 200 114 17 4 35 10 40 15 26 20 177 16 238 -7z"/>
<path d="M6537 11341 c-80 -17 -156 -111 -157 -197 -2 -204 275 -286 394 -116
27 38 30 51 30 115 0 64 -3 77 -29 113 -16 23 -45 50 -64 61 -42 24 -120 35
-174 24z m142 -70 c37 -37 55 -116 42 -177 -12 -53 -35 -81 -84 -102 -39 -17
-62 -15 -98 7 -51 31 -69 67 -69 139 0 70 16 109 57 142 37 29 118 25 152 -9z"/>
<path d="M6503 11173 c-2 -6 -3 -26 -1 -45 2 -24 7 -32 18 -28 8 3 48 5 88 5
67 0 73 1 78 22 13 50 1 58 -92 58 -56 0 -88 -4 -91 -12z"/>
<path d="M3650 6336 c0 -7 7 -19 15 -26 20 -17 18 -47 -5 -95 -11 -22 -19 -52
-20 -67 0 -41 -36 -115 -59 -123 -25 -8 -28 -30 -5 -39 29 -11 101 -6 113 8
10 11 7 17 -10 30 -20 13 -21 19 -11 40 6 14 14 49 18 78 7 50 31 125 38 117
2 -2 20 -44 41 -94 20 -49 41 -99 45 -110 5 -11 12 -30 15 -42 15 -54 65 -2
65 68 0 13 6 33 14 44 7 11 16 45 20 76 6 46 13 62 42 90 51 49 46 59 -32 59
-65 0 -66 -1 -58 -22 4 -13 7 -52 7 -87 -3 -93 -32 -155 -48 -98 -3 12 -10 31
-15 42 -40 91 -50 115 -50 123 0 5 -8 16 -18 25 -23 21 -102 23 -102 3z"/>
<path d="M1815 6332 c-46 -10 -34 -66 13 -60 21 2 28 9 30 29 3 28 -10 38 -43
31z"/>
<path d="M2627 6323 c-33 -5 -56 -41 -36 -54 8 -5 24 -9 37 -9 21 0 22 -3 22
-110 l0 -110 -35 -14 c-38 -16 -45 -32 -17 -39 14 -4 141 -2 165 2 20 3 3 30
-23 36 -18 4 -30 13 -31 23 -1 9 -2 76 -3 147 l-1 130 -25 1 c-14 1 -37 -1
-53 -3z"/>
<path d="M1744 6210 c-37 -37 -46 -51 -40 -65 8 -21 46 -6 58 24 9 22 12 23
15 8 3 -10 -2 -33 -10 -50 -38 -83 -42 -105 -22 -127 10 -11 29 -20 42 -20 29
0 73 42 73 70 0 26 -30 27 -37 0 -3 -11 -9 -20 -12 -20 -18 0 -19 15 -5 49 32
74 36 101 19 127 -19 29 -54 31 -81 4z"/>
<path d="M2035 6190 c-3 -5 -1 -18 4 -28 9 -17 24 -19 178 -18 l168 1 3 28 3
27 -175 0 c-103 0 -177 -4 -181 -10z"/>
<path d="M2049 6088 c-26 -10 -24 -35 4 -41 12 -3 90 -6 173 -6 152 -1 184 6
166 36 -8 13 -311 23 -343 11z"/>
<path d="M2913 6044 c-9 -23 14 -64 36 -64 22 0 51 25 51 44 0 34 -75 52 -87
20z"/>
<path d="M3135 6049 c-13 -20 5 -59 30 -65 34 -8 45 2 45 42 0 32 -2 34 -34
34 -19 0 -38 -5 -41 -11z"/>
<path d="M3367 6054 c-12 -13 -8 -51 8 -64 26 -22 67 3 63 38 -2 22 -9 28 -33
30 -17 2 -34 0 -38 -4z"/>
<path d="M3310 10783 c-10 -7 -22 -28 -25 -46 -4 -17 -12 -38 -17 -44 -6 -7
-8 -19 -5 -27 9 -23 48 -7 59 25 5 15 20 35 33 43 27 18 120 32 128 19 3 -4
-18 -33 -46 -64 -29 -30 -83 -90 -122 -134 -38 -43 -80 -90 -92 -103 -45 -49
-36 -53 120 -50 l142 3 15 45 c8 25 20 54 27 66 14 24 2 49 -20 41 -8 -3 -23
-23 -32 -45 -20 -45 -58 -68 -127 -78 -35 -4 -48 -3 -48 6 0 11 92 118 209
242 73 78 86 97 69 103 -7 3 -66 6 -131 8 -86 2 -123 0 -137 -10z"/>
<path d="M3632 10581 c-8 -4 -12 -19 -10 -32 5 -36 55 -40 64 -5 3 14 3 30 -1
35 -7 13 -35 14 -53 2z"/>
<path d="M3585 10478 c-14 -11 -25 -26 -25 -33 0 -23 21 -28 35 -9 12 16 14
16 15 4 0 -9 -5 -21 -10 -26 -19 -19 -17 -95 3 -108 20 -13 62 6 81 37 11 17
2 29 -28 40 -6 2 -5 15 1 33 21 61 -24 100 -72 62z"/>
<path d="M9754 10684 c-14 -31 -23 -62 -20 -70 9 -24 34 -15 56 21 12 19 31
42 43 50 22 15 117 21 117 8 0 -5 -15 -24 -33 -44 -17 -19 -66 -73 -107 -119
-41 -46 -90 -98 -107 -117 -18 -18 -33 -42 -33 -53 0 -19 7 -20 138 -20 l139
0 12 28 c21 43 41 115 35 124 -12 20 -43 7 -49 -21 -3 -15 -15 -38 -26 -49
-24 -27 -127 -58 -141 -44 -14 14 -5 27 93 133 147 160 180 200 176 212 -2 8
-46 13 -135 14 l-132 3 -26 -56z"/>
<path d="M10153 10709 c-4 -21 -9 -27 -16 -20 -16 16 -47 13 -47 -3 0 -8 7
-17 16 -20 15 -6 15 -8 -1 -26 -22 -24 -11 -41 23 -38 20 2 27 -2 30 -17 7
-37 21 -40 33 -7 9 27 14 30 30 21 15 -8 21 -6 26 7 3 9 1 24 -5 34 -8 13 -7
21 6 34 14 14 15 18 3 25 -7 5 -21 6 -31 4 -12 -3 -20 2 -25 16 -10 31 -35 26
-42 -10z"/>
<path d="M1631 9086 c-11 -5 -23 -23 -27 -40 -4 -17 -13 -41 -22 -54 -11 -18
-12 -26 -3 -35 16 -16 42 1 62 42 19 40 35 51 76 51 42 0 46 -10 29 -62 -7
-24 -21 -77 -31 -118 -27 -115 -29 -120 -69 -120 -39 0 -50 -11 -41 -41 6 -18
11 -20 43 -13 21 5 66 9 102 9 58 0 65 2 65 20 0 15 -8 21 -28 23 -27 3 -29 6
-25 40 5 38 18 94 48 197 15 53 20 60 45 63 15 2 39 1 52 -3 23 -5 25 -10 20
-40 -5 -28 -2 -37 14 -45 16 -9 21 -7 29 15 14 37 12 101 -2 113 -16 12 -308
11 -337 -2z"/>
<path d="M1983 8903 c-7 -2 -13 -16 -13 -29 0 -20 5 -24 29 -24 21 0 32 6 36
20 11 34 -13 49 -52 33z"/>
<path d="M1923 8796 c-24 -20 -25 -26 -14 -40 18 -22 28 -20 34 6 4 12 9 19
13 15 4 -3 -1 -22 -10 -41 -24 -52 -21 -94 9 -108 19 -9 29 -7 50 6 37 24 42
45 16 65 -19 14 -21 21 -12 44 25 66 -30 101 -86 53z"/>
<path d="M11311 9026 c-12 -18 -21 -40 -21 -49 0 -8 -5 -17 -12 -19 -19 -7 -1
-38 22 -38 13 0 24 11 33 33 21 48 44 67 83 67 31 0 34 -3 34 -29 0 -16 -5
-42 -11 -58 -10 -24 -20 -65 -46 -173 -7 -31 -30 -50 -60 -50 -25 0 -50 -34
-32 -46 12 -7 211 -6 218 2 11 11 -18 39 -37 36 -27 -4 -38 32 -21 73 11 28
28 96 48 186 11 51 18 59 54 59 47 0 61 -14 62 -57 0 -27 5 -39 17 -41 13 -3
18 8 23 52 12 90 19 86 -169 86 l-164 0 -21 -34z"/>
<path d="M11777 9053 c-4 -3 -7 -14 -7 -24 0 -12 -6 -16 -20 -12 -11 3 -28 2
-37 -1 -16 -7 -15 -9 6 -25 l24 -19 -22 -11 c-18 -10 -20 -15 -10 -27 8 -10
21 -13 36 -9 16 4 23 1 23 -9 0 -7 7 -19 15 -26 12 -10 16 -8 25 14 8 22 14
25 35 20 20 -5 25 -2 25 11 0 10 -8 23 -17 30 -15 11 -15 13 6 24 17 10 20 16
11 26 -6 7 -20 11 -31 8 -15 -4 -22 0 -26 16 -5 21 -23 28 -36 14z"/>
<path d="M3225 7422 c-10 -10 -5 -19 30 -55 19 -20 35 -45 35 -56 0 -11 4 -22
9 -25 18 -12 42 -106 31 -126 -5 -10 -10 -29 -10 -42 0 -30 -17 -48 -47 -48
-16 0 -23 -6 -23 -20 0 -18 7 -20 80 -20 67 0 80 3 80 16 0 9 -7 22 -16 29
-13 9 -15 21 -9 53 5 32 21 58 67 109 94 105 125 133 147 133 20 0 37 32 26
50 -3 5 -33 10 -66 10 l-59 0 0 -36 c0 -35 -4 -42 -87 -142 -20 -26 -22 -26
-28 -7 -4 11 -13 35 -21 53 -18 42 -18 76 1 92 32 27 17 37 -60 37 -41 0 -77
-3 -80 -5z"/>
<path d="M3608 7206 c-10 -7 -18 -20 -18 -29 0 -16 44 -32 60 -22 14 9 12 39
-2 53 -15 15 -19 15 -40 -2z"/>
<path d="M3556 7109 c-29 -23 -36 -69 -11 -69 8 0 15 7 15 15 0 8 5 15 10 15
14 0 13 -13 -5 -46 -21 -40 -19 -71 6 -84 30 -16 68 -4 82 27 10 23 9 28 -10
40 -19 13 -20 18 -10 50 10 32 9 37 -12 54 -29 24 -32 24 -65 -2z"/>
<path d="M9645 7361 c-5 -10 32 -51 46 -51 4 0 12 -12 17 -27 6 -16 20 -53 31
-83 25 -64 25 -81 7 -135 -11 -31 -21 -41 -45 -48 -36 -9 -41 -34 -8 -42 17
-5 89 -2 150 4 17 2 5 22 -19 31 -23 9 -25 14 -19 43 10 45 39 98 67 123 12
11 45 46 72 77 26 31 56 57 66 57 20 0 52 38 44 52 -3 4 -35 8 -70 8 l-66 0 7
-28 c5 -24 -2 -39 -40 -88 -25 -32 -53 -59 -61 -59 -10 0 -23 21 -35 54 -17
49 -17 57 -4 78 8 12 15 27 15 33 0 13 -147 14 -155 1z"/>
<path d="M10160 7346 c0 -29 -18 -44 -26 -22 -8 21 -34 21 -34 0 0 -8 5 -24
11 -35 8 -16 7 -25 -7 -40 -15 -17 -15 -19 0 -25 9 -3 23 -1 31 6 15 13 15 14
30 -35 7 -24 35 -6 35 23 0 20 3 23 12 14 7 -7 19 -12 28 -12 12 0 15 13 16
60 1 52 -2 60 -18 60 -10 0 -18 -4 -18 -10 0 -20 -19 -9 -22 12 -4 33 -38 37
-38 4z"/>
</g>
</svg>
